G04 EAGLE Gerber X2 export*
G75*
%MOMM*%
%FSLAX34Y34*%
%LPD*%
%AMOC8*
5,1,8,0,0,1.08239X$1,22.5*%
G01*
%ADD10R,0.600000X0.600000*%
%ADD11R,0.850000X0.900000*%
%ADD12C,1.524000*%
%ADD13C,1.778000*%
%ADD14R,4.850000X4.850000*%
%ADD15C,0.275000*%
%ADD16R,0.800000X2.500000*%
%ADD17C,1.778000*%
%ADD18R,0.900000X0.850000*%
%ADD19R,0.740000X1.250000*%
%ADD20R,1.800000X1.250000*%
%ADD21C,0.654800*%
%ADD22C,0.152400*%
%ADD23C,0.604800*%
%ADD24C,0.914400*%


D10*
X48942Y212090D03*
X38942Y212090D03*
D11*
X50250Y265430D03*
X38650Y265430D03*
X144060Y232410D03*
X155660Y232410D03*
X156930Y266700D03*
X145330Y266700D03*
X70400Y294640D03*
X82000Y294640D03*
D12*
X45720Y349250D02*
X45720Y364490D01*
X71120Y364490D02*
X71120Y349250D01*
X96520Y349250D02*
X96520Y364490D01*
X198120Y163830D02*
X213360Y163830D01*
X213360Y138430D02*
X198120Y138430D01*
X198120Y113030D02*
X213360Y113030D01*
D13*
X192720Y314660D03*
X192720Y340660D03*
D14*
X96520Y242570D03*
D15*
X69020Y242570D03*
X69020Y247570D03*
X69020Y252570D03*
X69020Y257570D03*
X69020Y262570D03*
X64020Y265070D03*
X64020Y255070D03*
X64020Y250070D03*
X64020Y245070D03*
X64020Y240070D03*
X69020Y237570D03*
X69020Y232570D03*
X64020Y235070D03*
X64020Y230070D03*
X64020Y225070D03*
X69020Y222570D03*
X69020Y217570D03*
X69020Y210070D03*
X74020Y210070D03*
X76520Y215070D03*
X79020Y210070D03*
X84020Y210070D03*
X89020Y210070D03*
X94020Y210070D03*
X99020Y210070D03*
X104020Y210070D03*
X109020Y210070D03*
X114020Y210070D03*
X119020Y210070D03*
X124020Y210070D03*
X116520Y215070D03*
X111520Y215070D03*
X106520Y215070D03*
X101520Y215070D03*
X96520Y215070D03*
X91520Y215070D03*
X86520Y215070D03*
X124020Y222570D03*
X129020Y220070D03*
X129020Y215070D03*
X129020Y225070D03*
X124020Y227570D03*
X129020Y230070D03*
X124020Y232570D03*
X124020Y237570D03*
X129020Y235070D03*
X129020Y240070D03*
X129020Y245070D03*
X129020Y250070D03*
X124020Y252570D03*
X124020Y257570D03*
X129020Y260070D03*
X124020Y262570D03*
X129020Y270070D03*
X64020Y270070D03*
X76520Y270070D03*
X81520Y270070D03*
X86520Y270070D03*
X89020Y275070D03*
X91520Y270070D03*
X94020Y275070D03*
X96520Y270070D03*
X99020Y275070D03*
X101520Y270070D03*
X104020Y275070D03*
X106520Y270070D03*
X109020Y275070D03*
X111520Y270070D03*
X114020Y275070D03*
X119020Y275070D03*
X124020Y275070D03*
X71520Y270070D03*
X84020Y275070D03*
D16*
X108348Y146584D03*
X128888Y146584D03*
X83110Y146584D03*
D17*
X60118Y127274D02*
X60118Y109494D01*
X177118Y109494D02*
X177118Y127274D01*
D16*
X153618Y146584D03*
D18*
X169672Y146600D03*
X169672Y158200D03*
X67564Y157946D03*
X67564Y146346D03*
D10*
X207090Y190500D03*
X217090Y190500D03*
X205820Y227330D03*
X215820Y227330D03*
D18*
X203200Y202480D03*
X203200Y214080D03*
D19*
X216120Y247870D03*
D20*
X210820Y275370D03*
D19*
X205520Y247870D03*
D21*
X174244Y342392D03*
D22*
X161036Y355600D01*
X127000Y355600D01*
X90932Y319532D01*
X90932Y287528D01*
X85852Y282448D01*
X85852Y277079D01*
X85359Y276586D01*
X85359Y276409D01*
X84020Y275070D01*
X160338Y166688D02*
X168275Y158750D01*
X169672Y158200D01*
D23*
X160338Y166688D03*
D22*
X82550Y255588D02*
X82550Y257175D01*
X82550Y269875D01*
X82550Y255588D02*
X95250Y242888D01*
X96520Y242570D01*
X82550Y257175D02*
X123825Y257175D01*
X124020Y257570D01*
X96520Y242570D02*
X82550Y257175D01*
X82550Y279400D02*
X82550Y293688D01*
X82550Y279400D02*
X79375Y276225D01*
X79375Y273050D01*
X82550Y269875D01*
X82550Y293688D02*
X82000Y294640D01*
X81520Y270070D02*
X82550Y269875D01*
X39688Y239713D02*
X39751Y197231D01*
X60579Y197231D01*
X60706Y209804D01*
X61151Y210122D01*
X39688Y239713D02*
X39688Y265113D01*
X61151Y210122D02*
X69020Y210070D01*
X39688Y265113D02*
X38650Y265430D01*
X39688Y239713D02*
X39688Y212725D01*
X38942Y212090D01*
X66675Y177800D02*
X66675Y158750D01*
X66675Y177800D02*
X60325Y184150D01*
X60325Y196850D02*
X60579Y197231D01*
X60325Y196850D02*
X60325Y184150D01*
X66675Y158750D02*
X67564Y157946D01*
X155575Y219075D02*
X155575Y231775D01*
X155575Y219075D02*
X133350Y196850D01*
X60325Y196850D01*
X155575Y231775D02*
X155660Y232410D01*
X80963Y295275D02*
X77788Y298450D01*
X77788Y300038D01*
X76200Y301625D01*
X65088Y301625D01*
X39688Y276225D01*
X39688Y266700D01*
X80963Y295275D02*
X82000Y294640D01*
X39688Y266700D02*
X38650Y265430D01*
X215900Y227013D02*
X215900Y190500D01*
X215900Y227013D02*
X215820Y227330D01*
X215900Y190500D02*
X217090Y190500D01*
X187325Y266700D02*
X156930Y266700D01*
X192088Y261938D02*
X204788Y249238D01*
X192088Y261938D02*
X187325Y266700D01*
X204788Y249238D02*
X205520Y247870D01*
X204788Y274638D02*
X209550Y274638D01*
X204788Y274638D02*
X192088Y261938D01*
X209550Y274638D02*
X210820Y275370D01*
X206375Y236538D02*
X214313Y228600D01*
X206375Y236538D02*
X206375Y247650D01*
X214313Y228600D02*
X215820Y227330D01*
X206375Y247650D02*
X205520Y247870D01*
X204788Y274638D02*
X204788Y328613D01*
X193675Y339725D01*
X204788Y274638D02*
X210820Y275370D01*
X193675Y339725D02*
X192720Y340660D01*
X168275Y219075D02*
X155575Y219075D01*
X168275Y219075D02*
X203200Y184150D01*
X211138Y184150D01*
X217488Y190500D01*
X217090Y190500D01*
X68263Y222250D02*
X65088Y225425D01*
X64020Y225070D01*
X68263Y222250D02*
X69020Y222570D01*
X61913Y271463D02*
X53975Y279400D01*
X61913Y271463D02*
X63500Y269875D01*
X64020Y270070D01*
X63500Y225425D02*
X61913Y225425D01*
X49213Y238125D01*
X49213Y255588D01*
X63500Y225425D02*
X64020Y225070D01*
X100013Y209550D02*
X100013Y207963D01*
X101600Y206375D01*
X120650Y206375D01*
X123825Y209550D01*
X100013Y209550D02*
X99020Y210070D01*
X123825Y209550D02*
X124020Y210070D01*
X120650Y206375D02*
X120650Y203200D01*
X119063Y276225D02*
X119063Y322263D01*
X138113Y341313D01*
X119063Y276225D02*
X119020Y275070D01*
X138113Y341313D02*
X152400Y341313D01*
X68263Y277813D02*
X61913Y271463D01*
D23*
X53975Y279400D03*
X49213Y255588D03*
X120650Y203200D03*
X138113Y341313D03*
X152400Y341313D03*
X68263Y277813D03*
D22*
X123825Y276225D02*
X123825Y304800D01*
X158750Y339725D01*
X158750Y342900D01*
X153988Y347663D01*
X136525Y347663D01*
X99568Y310706D01*
X123825Y276225D02*
X124020Y275070D01*
D23*
X99568Y310706D03*
D22*
X130175Y269875D02*
X134938Y269875D01*
X136525Y268288D01*
X130175Y269875D02*
X129020Y270070D01*
D23*
X136525Y268288D03*
D22*
X76520Y215070D02*
X71697Y215070D01*
X70536Y213909D01*
X50761Y213909D02*
X48942Y212090D01*
X50761Y213909D02*
X70536Y213909D01*
X63500Y265113D02*
X50800Y265113D01*
X63500Y265113D02*
X64020Y265070D01*
X50800Y265113D02*
X50250Y265430D01*
X76200Y284163D02*
X76200Y287338D01*
X76200Y284163D02*
X76200Y269875D01*
X76200Y287338D02*
X69850Y293688D01*
X76520Y270070D02*
X76200Y269875D01*
X69850Y293688D02*
X70400Y294640D01*
X130175Y260350D02*
X133350Y257175D01*
X179388Y257175D01*
X130175Y260350D02*
X129020Y260070D01*
D23*
X179388Y257175D03*
X76200Y284163D03*
D22*
X130175Y239713D02*
X136525Y239713D01*
X142875Y233363D01*
X130175Y239713D02*
X129020Y240070D01*
X142875Y233363D02*
X144060Y232410D01*
X127000Y263525D02*
X123825Y263525D01*
X127000Y263525D02*
X128588Y265113D01*
X131763Y265113D01*
X134938Y261938D01*
X139700Y261938D01*
X144463Y266700D01*
X124020Y262570D02*
X123825Y263525D01*
X144463Y266700D02*
X145330Y266700D01*
X125413Y252413D02*
X123825Y252413D01*
X125413Y252413D02*
X127000Y254000D01*
X150813Y254000D01*
X203200Y201613D01*
X124020Y252570D02*
X123825Y252413D01*
X206375Y198438D02*
X206375Y190500D01*
X206375Y198438D02*
X203200Y201613D01*
X206375Y190500D02*
X207090Y190500D01*
X203200Y201613D02*
X203200Y202480D01*
X204788Y215900D02*
X204788Y227013D01*
X204788Y215900D02*
X203200Y214313D01*
X204788Y227013D02*
X205820Y227330D01*
X203200Y214313D02*
X203200Y214080D01*
X215900Y236538D02*
X215900Y247650D01*
X200025Y234950D02*
X206375Y228600D01*
X215900Y247650D02*
X216120Y247870D01*
X206375Y228600D02*
X205820Y227330D01*
D23*
X215900Y236538D03*
X200025Y234950D03*
D22*
X63500Y246063D02*
X55563Y246063D01*
X63500Y246063D02*
X64020Y245070D01*
D23*
X55563Y246063D03*
D24*
X68263Y146050D02*
X82550Y146050D01*
X68263Y146050D02*
X67564Y146346D01*
X82550Y146050D02*
X83110Y146584D01*
X63500Y146050D02*
X60325Y146050D01*
X26988Y179388D01*
X26988Y284163D01*
X95250Y352425D01*
X95250Y355600D01*
X67564Y146346D02*
X63500Y146050D01*
X95250Y355600D02*
X96520Y356870D01*
X153988Y146050D02*
X168275Y146050D01*
X169672Y146600D01*
X153988Y146050D02*
X153618Y146584D01*
X152400Y150813D02*
X114300Y188913D01*
X68263Y188913D01*
X152400Y150813D02*
X153618Y146584D01*
D23*
X68263Y188913D03*
D22*
X130175Y220663D02*
X149225Y220663D01*
X130175Y220663D02*
X129020Y220070D01*
D23*
X149225Y220663D03*
D22*
X136525Y207963D02*
X130175Y214313D01*
X129020Y215070D01*
D23*
X136525Y207963D03*
M02*
