G04 EAGLE Gerber X2 export*
G75*
%MOMM*%
%FSLAX34Y34*%
%LPD*%
%AMOC8*
5,1,8,0,0,1.08239X$1,22.5*%
G01*
%ADD10R,0.600000X0.600000*%
%ADD11C,1.524000*%
%ADD12C,1.778000*%
%ADD13R,2.350000X1.270000*%
%ADD14R,0.200000X0.700000*%
%ADD15R,1.200000X1.000000*%
%ADD16R,0.900000X0.850000*%
%ADD17C,1.778000*%
%ADD18R,0.900000X0.800000*%
%ADD19R,0.550000X1.200000*%
%ADD20C,0.152400*%
%ADD21C,0.654800*%
%ADD22C,0.604800*%
%ADD23C,0.914400*%


D10*
X123444Y244776D03*
X123444Y234776D03*
X77724Y245538D03*
X77724Y235538D03*
X132160Y190500D03*
X142160Y190500D03*
X120570Y152400D03*
X110570Y152400D03*
D11*
X45720Y349250D02*
X45720Y364490D01*
X71120Y364490D02*
X71120Y349250D01*
X96520Y349250D02*
X96520Y364490D01*
X198120Y163830D02*
X213360Y163830D01*
X213360Y138430D02*
X198120Y138430D01*
X198120Y113030D02*
X213360Y113030D01*
D12*
X192720Y314660D03*
X192720Y340660D03*
D13*
X148590Y317500D03*
D14*
X136590Y332250D03*
X140590Y332250D03*
X144590Y332250D03*
X148590Y332250D03*
X152590Y332250D03*
X156590Y332250D03*
X160590Y332250D03*
X160590Y302750D03*
X156590Y302750D03*
X152590Y302750D03*
X148590Y302750D03*
X144590Y302750D03*
X140590Y302750D03*
X136590Y302750D03*
D15*
X91830Y247800D03*
X108830Y247800D03*
X108830Y234800D03*
X91830Y234800D03*
D10*
X157400Y351790D03*
X147400Y351790D03*
D16*
X172720Y273600D03*
X172720Y285200D03*
D10*
X144860Y287020D03*
X154860Y287020D03*
X124380Y306070D03*
X114380Y306070D03*
X134620Y276940D03*
X134620Y286940D03*
X124460Y285830D03*
X124460Y295830D03*
D17*
X60118Y127274D02*
X60118Y109494D01*
X177118Y109494D02*
X177118Y127274D01*
D18*
X53500Y308000D03*
X53500Y327000D03*
X74500Y317500D03*
D10*
X43180Y312500D03*
X43180Y322500D03*
X64850Y294640D03*
X74850Y294640D03*
X111840Y332740D03*
X121840Y332740D03*
D19*
X123800Y164799D03*
X114300Y164799D03*
X104800Y164799D03*
X104800Y190801D03*
X123800Y190801D03*
D20*
X156590Y332250D02*
X156590Y337438D01*
X163068Y343916D01*
X172720Y343916D01*
X174244Y342392D01*
X174498Y342138D01*
D21*
X174244Y342392D03*
D20*
X122238Y153988D02*
X120650Y152400D01*
X122238Y153988D02*
X122238Y163513D01*
X120650Y152400D02*
X120570Y152400D01*
X122238Y163513D02*
X123800Y164799D01*
X123825Y166688D02*
X160338Y166688D01*
X123825Y166688D02*
X123825Y165100D01*
X123800Y164799D01*
X61913Y292100D02*
X63500Y293688D01*
X61913Y292100D02*
X61913Y207963D01*
X104775Y165100D01*
X63500Y293688D02*
X64850Y294640D01*
X104775Y165100D02*
X104800Y164799D01*
X119063Y152400D02*
X115888Y149225D01*
X115888Y147638D01*
X114300Y146050D01*
X104775Y146050D01*
X104775Y163513D01*
X119063Y152400D02*
X120570Y152400D01*
X104775Y163513D02*
X104800Y164799D01*
D22*
X160338Y166688D03*
D20*
X160338Y349250D02*
X158750Y350838D01*
X191834Y349187D02*
X191834Y341249D01*
X191834Y349187D02*
X160338Y349250D01*
X158750Y350838D02*
X157400Y351790D01*
X191834Y341249D02*
X191770Y333756D01*
X162096Y333756D01*
X160590Y332250D01*
X192088Y341313D02*
X191834Y349187D01*
X192088Y341313D02*
X192720Y340660D01*
X114300Y155575D02*
X111125Y152400D01*
X114300Y155575D02*
X114300Y164799D01*
X111125Y152400D02*
X110570Y152400D01*
X138113Y187325D02*
X141288Y190500D01*
X138113Y187325D02*
X138113Y185738D01*
X127000Y174625D01*
X114300Y174625D01*
X114300Y164799D01*
X90488Y234950D02*
X77788Y234950D01*
X77724Y235538D01*
X90488Y234950D02*
X91830Y234800D01*
X109538Y246063D02*
X122238Y246063D01*
X109538Y246063D02*
X109538Y247650D01*
X122238Y246063D02*
X123444Y244776D01*
X109538Y247650D02*
X108830Y247800D01*
X100013Y234950D02*
X92075Y234950D01*
X100013Y234950D02*
X100013Y241300D01*
X107950Y249238D01*
X92075Y234950D02*
X91830Y234800D01*
X108830Y247800D02*
X107950Y249238D01*
X114300Y330200D02*
X112713Y331788D01*
X114300Y317500D02*
X114300Y306388D01*
X114300Y317500D02*
X114300Y330200D01*
X112713Y331788D02*
X111840Y332740D01*
X114300Y306388D02*
X114380Y306070D01*
X149225Y292100D02*
X153988Y287338D01*
X149225Y292100D02*
X149225Y301625D01*
X153988Y287338D02*
X154860Y287020D01*
X149225Y301625D02*
X148590Y302750D01*
X149225Y317500D02*
X149225Y331788D01*
X148590Y332250D01*
X149225Y317500D02*
X149225Y315913D01*
X149225Y303213D01*
X148590Y302750D01*
X148590Y317500D02*
X149225Y317500D01*
X148590Y317500D02*
X114300Y317500D01*
X114300Y254000D02*
X109538Y249238D01*
X114300Y254000D02*
X114300Y304800D01*
X109538Y249238D02*
X108830Y247800D01*
X114300Y304800D02*
X114380Y306070D01*
X138113Y193675D02*
X141288Y190500D01*
X138113Y193675D02*
X138113Y195263D01*
X106363Y227013D01*
X100013Y227013D01*
X100013Y234950D01*
X141288Y190500D02*
X142160Y190500D01*
X188913Y130175D02*
X204788Y114300D01*
X188913Y130175D02*
X188913Y133350D01*
X166688Y155575D01*
X166688Y168275D01*
X144463Y190500D01*
X142160Y190500D01*
X204788Y114300D02*
X205740Y113030D01*
X160338Y327025D02*
X160338Y331788D01*
X160338Y327025D02*
X149225Y315913D01*
X160338Y331788D02*
X160590Y332250D01*
X148590Y317500D02*
X149225Y315913D01*
X134938Y276225D02*
X171450Y276225D01*
X171450Y274638D01*
X134938Y276225D02*
X134620Y276940D01*
X171450Y274638D02*
X172720Y273600D01*
X173038Y274638D02*
X192088Y274638D01*
X192088Y314325D01*
X173038Y274638D02*
X172720Y273600D01*
X192088Y314325D02*
X192720Y314660D01*
X144463Y301625D02*
X144463Y287338D01*
X144463Y301625D02*
X144590Y302750D01*
X144463Y287338D02*
X144860Y287020D01*
X160338Y301625D02*
X171450Y290513D01*
X171450Y285750D01*
X160338Y301625D02*
X160590Y302750D01*
X171450Y285750D02*
X172720Y285200D01*
X136525Y333375D02*
X122238Y333375D01*
X121840Y332740D01*
X136525Y333375D02*
X136590Y332250D01*
X144463Y352425D02*
X146050Y352425D01*
X144463Y352425D02*
X144463Y333375D01*
X147400Y351790D02*
X146050Y352425D01*
X144463Y333375D02*
X144590Y332250D01*
X125413Y303213D02*
X125413Y296863D01*
X125413Y303213D02*
X125413Y304800D01*
X124380Y306070D01*
X125413Y296863D02*
X124460Y295830D01*
X125413Y303213D02*
X136525Y303213D01*
X136590Y302750D01*
X125413Y303213D02*
X124380Y306070D01*
X125413Y285750D02*
X133350Y285750D01*
X125413Y285750D02*
X124460Y285830D01*
X133350Y285750D02*
X134620Y286940D01*
X141288Y293688D02*
X141288Y301625D01*
X141288Y293688D02*
X134938Y287338D01*
X141288Y301625D02*
X140590Y302750D01*
X134938Y287338D02*
X134620Y286940D01*
X53975Y279400D02*
X53975Y307975D01*
X53500Y308000D01*
X53975Y260350D02*
X49213Y255588D01*
X53975Y260350D02*
X53975Y279400D01*
X52388Y311150D02*
X44450Y311150D01*
X52388Y311150D02*
X52388Y309563D01*
X44450Y311150D02*
X43180Y312500D01*
X52388Y309563D02*
X53500Y308000D01*
X123825Y190500D02*
X132160Y190500D01*
X123825Y190500D02*
X123800Y190801D01*
X122238Y201613D02*
X120650Y203200D01*
X122238Y201613D02*
X122238Y192088D01*
X123800Y190801D01*
X141288Y338138D02*
X138113Y341313D01*
X141288Y338138D02*
X141288Y333375D01*
X140590Y332250D01*
X152400Y333375D02*
X152400Y341313D01*
X152400Y333375D02*
X152590Y332250D01*
X120650Y203200D02*
X71438Y203200D01*
X71438Y271463D01*
X73025Y273050D02*
X88900Y288925D01*
X73025Y273050D02*
X71438Y271463D01*
X88900Y288925D02*
X88900Y319088D01*
X111125Y341313D01*
X138113Y341313D01*
X73025Y273050D02*
X68263Y277813D01*
D22*
X53975Y279400D03*
X49213Y255588D03*
X120650Y203200D03*
X138113Y341313D03*
X152400Y341313D03*
X68263Y277813D03*
D20*
X92075Y303213D02*
X99568Y310706D01*
X92075Y303213D02*
X92075Y249238D01*
X91830Y247800D01*
X90488Y246063D02*
X77788Y246063D01*
X90488Y246063D02*
X90488Y247650D01*
X77788Y246063D02*
X77724Y245538D01*
X90488Y247650D02*
X91830Y247800D01*
D22*
X99568Y310706D03*
D20*
X136525Y268288D02*
X130175Y261938D01*
X130175Y241300D01*
X123825Y234950D01*
X123444Y234776D01*
X122238Y234950D02*
X109538Y234950D01*
X108830Y234800D01*
X122238Y234950D02*
X123444Y234776D01*
D22*
X136525Y268288D03*
D20*
X179388Y257175D02*
X204788Y282575D01*
X204788Y344488D01*
X192088Y357188D01*
X107950Y357188D01*
X107950Y342900D01*
X82550Y317500D01*
X82550Y290513D01*
X76200Y284163D01*
D22*
X179388Y257175D03*
X76200Y284163D03*
D20*
X200025Y236538D02*
X215900Y236538D01*
X200025Y236538D02*
X200025Y234950D01*
D22*
X215900Y236538D03*
X200025Y234950D03*
D20*
X55563Y246063D02*
X36513Y246063D01*
X36513Y315913D01*
X42863Y322263D01*
X43180Y322500D01*
X44450Y325438D02*
X52388Y325438D01*
X44450Y325438D02*
X44450Y323850D01*
X52388Y325438D02*
X53500Y327000D01*
X44450Y323850D02*
X43180Y322500D01*
D22*
X55563Y246063D03*
D23*
X28575Y228600D02*
X68263Y188913D01*
X28575Y228600D02*
X28575Y339725D01*
X45720Y356870D01*
D22*
X68263Y188913D03*
D20*
X149225Y220663D02*
X204788Y165100D01*
X205740Y163830D01*
D22*
X149225Y220663D03*
D20*
X136525Y207963D02*
X204788Y139700D01*
X205740Y138430D01*
D22*
X136525Y207963D03*
D20*
X74613Y295275D02*
X74613Y317500D01*
X74613Y295275D02*
X74850Y294640D01*
X74613Y317500D02*
X74500Y317500D01*
X73025Y317500D02*
X71438Y319088D01*
X71438Y355600D01*
X73025Y317500D02*
X74500Y317500D01*
X71438Y355600D02*
X71120Y356870D01*
M02*
