M48
;GenerationSoftware,Autodesk,EAGLE,8.6.0*%
;CreationDate,2022-01-15T23:23:49Z*%
FMAT,2
ICI,OFF
METRIC,TZ,000.000
T6C0.300
T5C0.350
T4C0.600
T3C0.800
T2C1.016
T1C1.100
%
G90
M71
T1
X14112Y11908
X9612Y11908
T2
X9652Y35687
X7112Y35687
X4572Y35687
X20574Y11303
X20574Y13843
X20574Y16383
T3
X6012Y11838
X17712Y11838
X17712Y12238
X17712Y12638
X17712Y11438
X17712Y11038
X6012Y12238
X6012Y12638
X6012Y11438
X6012Y11038
T4
X19272Y31466
X19272Y34066
T5
X17424Y34239
T6
X16034Y16669
X5398Y27940
X4921Y25559
X12065Y20320
X13811Y34131
X15240Y34131
X6826Y27781
X9957Y31071
X13652Y26829
X17939Y25717
X7620Y28416
X14922Y22066
X6826Y18891
X5556Y24606
X20003Y23495
X21590Y23654
X13652Y20796
M30