G04 EAGLE Gerber X2 export*
G75*
%MOMM*%
%FSLAX34Y34*%
%LPD*%
%AMOC8*
5,1,8,0,0,1.08239X$1,22.5*%
G01*
%ADD10C,0.254000*%


D10*
X12700Y88900D02*
X226570Y88900D01*
X226570Y380900D01*
X12700Y380900D01*
X12700Y88900D01*
X96427Y124584D02*
X97041Y124515D01*
X97643Y124377D01*
X98226Y124173D01*
X98783Y123905D01*
X99306Y123577D01*
X99789Y123192D01*
X100226Y122755D01*
X100611Y122272D01*
X100939Y121749D01*
X101207Y121192D01*
X101411Y120609D01*
X101549Y120007D01*
X101618Y119393D01*
X101618Y118775D01*
X101549Y118161D01*
X101411Y117559D01*
X101207Y116976D01*
X100939Y116419D01*
X100611Y115896D01*
X100226Y115413D01*
X99789Y114977D01*
X99306Y114591D01*
X98783Y114263D01*
X98226Y113995D01*
X97643Y113791D01*
X97041Y113653D01*
X96427Y113584D01*
X95809Y113584D01*
X95195Y113653D01*
X94593Y113791D01*
X94010Y113995D01*
X93453Y114263D01*
X92930Y114591D01*
X92447Y114977D01*
X92011Y115413D01*
X91625Y115896D01*
X91297Y116419D01*
X91029Y116976D01*
X90825Y117559D01*
X90687Y118161D01*
X90618Y118775D01*
X90618Y119393D01*
X90687Y120007D01*
X90825Y120609D01*
X91029Y121192D01*
X91297Y121749D01*
X91625Y122272D01*
X92011Y122755D01*
X92447Y123192D01*
X92930Y123577D01*
X93453Y123905D01*
X94010Y124173D01*
X94593Y124377D01*
X95195Y124515D01*
X95809Y124584D01*
X96427Y124584D01*
X141427Y124584D02*
X142041Y124515D01*
X142643Y124377D01*
X143226Y124173D01*
X143783Y123905D01*
X144306Y123577D01*
X144789Y123192D01*
X145226Y122755D01*
X145611Y122272D01*
X145939Y121749D01*
X146207Y121192D01*
X146411Y120609D01*
X146549Y120007D01*
X146618Y119393D01*
X146618Y118775D01*
X146549Y118161D01*
X146411Y117559D01*
X146207Y116976D01*
X145939Y116419D01*
X145611Y115896D01*
X145226Y115413D01*
X144789Y114977D01*
X144306Y114591D01*
X143783Y114263D01*
X143226Y113995D01*
X142643Y113791D01*
X142041Y113653D01*
X141427Y113584D01*
X140809Y113584D01*
X140195Y113653D01*
X139593Y113791D01*
X139010Y113995D01*
X138453Y114263D01*
X137930Y114591D01*
X137447Y114977D01*
X137011Y115413D01*
X136625Y115896D01*
X136297Y116419D01*
X136029Y116976D01*
X135825Y117559D01*
X135687Y118161D01*
X135618Y118775D01*
X135618Y119393D01*
X135687Y120007D01*
X135825Y120609D01*
X136029Y121192D01*
X136297Y121749D01*
X136625Y122272D01*
X137011Y122755D01*
X137447Y123192D01*
X137930Y123577D01*
X138453Y123905D01*
X139010Y124173D01*
X139593Y124377D01*
X140195Y124515D01*
X140809Y124584D01*
X141427Y124584D01*
X177380Y126384D02*
X177900Y126316D01*
X178407Y126180D01*
X178891Y125979D01*
X179345Y125717D01*
X179761Y125398D01*
X180132Y125027D01*
X180451Y124611D01*
X180713Y124157D01*
X180914Y123673D01*
X181050Y123166D01*
X181118Y122646D01*
X181118Y122122D01*
X181050Y121602D01*
X180914Y121095D01*
X180713Y120611D01*
X180451Y120157D01*
X180132Y119741D01*
X179761Y119370D01*
X179345Y119051D01*
X178891Y118789D01*
X178407Y118588D01*
X177900Y118452D01*
X177380Y118384D01*
X176856Y118384D01*
X176336Y118452D01*
X175829Y118588D01*
X175345Y118789D01*
X174891Y119051D01*
X174475Y119370D01*
X174104Y119741D01*
X173785Y120157D01*
X173523Y120611D01*
X173322Y121095D01*
X173186Y121602D01*
X173118Y122122D01*
X173118Y122646D01*
X173186Y123166D01*
X173322Y123673D01*
X173523Y124157D01*
X173785Y124611D01*
X174104Y125027D01*
X174475Y125398D01*
X174891Y125717D01*
X175345Y125979D01*
X175829Y126180D01*
X176336Y126316D01*
X176856Y126384D01*
X177380Y126384D01*
X177380Y130384D02*
X177900Y130316D01*
X178407Y130180D01*
X178891Y129979D01*
X179345Y129717D01*
X179761Y129398D01*
X180132Y129027D01*
X180451Y128611D01*
X180713Y128157D01*
X180914Y127673D01*
X181050Y127166D01*
X181118Y126646D01*
X181118Y126122D01*
X181050Y125602D01*
X180914Y125095D01*
X180713Y124611D01*
X180451Y124157D01*
X180132Y123741D01*
X179761Y123370D01*
X179345Y123051D01*
X178891Y122789D01*
X178407Y122588D01*
X177900Y122452D01*
X177380Y122384D01*
X176856Y122384D01*
X176336Y122452D01*
X175829Y122588D01*
X175345Y122789D01*
X174891Y123051D01*
X174475Y123370D01*
X174104Y123741D01*
X173785Y124157D01*
X173523Y124611D01*
X173322Y125095D01*
X173186Y125602D01*
X173118Y126122D01*
X173118Y126646D01*
X173186Y127166D01*
X173322Y127673D01*
X173523Y128157D01*
X173785Y128611D01*
X174104Y129027D01*
X174475Y129398D01*
X174891Y129717D01*
X175345Y129979D01*
X175829Y130180D01*
X176336Y130316D01*
X176856Y130384D01*
X177380Y130384D01*
X177380Y118384D02*
X177900Y118316D01*
X178407Y118180D01*
X178891Y117979D01*
X179345Y117717D01*
X179761Y117398D01*
X180132Y117027D01*
X180451Y116611D01*
X180713Y116157D01*
X180914Y115673D01*
X181050Y115166D01*
X181118Y114646D01*
X181118Y114122D01*
X181050Y113602D01*
X180914Y113095D01*
X180713Y112611D01*
X180451Y112157D01*
X180132Y111741D01*
X179761Y111370D01*
X179345Y111051D01*
X178891Y110789D01*
X178407Y110588D01*
X177900Y110452D01*
X177380Y110384D01*
X176856Y110384D01*
X176336Y110452D01*
X175829Y110588D01*
X175345Y110789D01*
X174891Y111051D01*
X174475Y111370D01*
X174104Y111741D01*
X173785Y112157D01*
X173523Y112611D01*
X173322Y113095D01*
X173186Y113602D01*
X173118Y114122D01*
X173118Y114646D01*
X173186Y115166D01*
X173322Y115673D01*
X173523Y116157D01*
X173785Y116611D01*
X174104Y117027D01*
X174475Y117398D01*
X174891Y117717D01*
X175345Y117979D01*
X175829Y118180D01*
X176336Y118316D01*
X176856Y118384D01*
X177380Y118384D01*
X177380Y114384D02*
X177900Y114316D01*
X178407Y114180D01*
X178891Y113979D01*
X179345Y113717D01*
X179761Y113398D01*
X180132Y113027D01*
X180451Y112611D01*
X180713Y112157D01*
X180914Y111673D01*
X181050Y111166D01*
X181118Y110646D01*
X181118Y110122D01*
X181050Y109602D01*
X180914Y109095D01*
X180713Y108611D01*
X180451Y108157D01*
X180132Y107741D01*
X179761Y107370D01*
X179345Y107051D01*
X178891Y106789D01*
X178407Y106588D01*
X177900Y106452D01*
X177380Y106384D01*
X176856Y106384D01*
X176336Y106452D01*
X175829Y106588D01*
X175345Y106789D01*
X174891Y107051D01*
X174475Y107370D01*
X174104Y107741D01*
X173785Y108157D01*
X173523Y108611D01*
X173322Y109095D01*
X173186Y109602D01*
X173118Y110122D01*
X173118Y110646D01*
X173186Y111166D01*
X173322Y111673D01*
X173523Y112157D01*
X173785Y112611D01*
X174104Y113027D01*
X174475Y113398D01*
X174891Y113717D01*
X175345Y113979D01*
X175829Y114180D01*
X176336Y114316D01*
X176856Y114384D01*
X177380Y114384D01*
X60380Y126384D02*
X60900Y126316D01*
X61407Y126180D01*
X61891Y125979D01*
X62345Y125717D01*
X62761Y125398D01*
X63132Y125027D01*
X63451Y124611D01*
X63713Y124157D01*
X63914Y123673D01*
X64050Y123166D01*
X64118Y122646D01*
X64118Y122122D01*
X64050Y121602D01*
X63914Y121095D01*
X63713Y120611D01*
X63451Y120157D01*
X63132Y119741D01*
X62761Y119370D01*
X62345Y119051D01*
X61891Y118789D01*
X61407Y118588D01*
X60900Y118452D01*
X60380Y118384D01*
X59856Y118384D01*
X59336Y118452D01*
X58829Y118588D01*
X58345Y118789D01*
X57891Y119051D01*
X57475Y119370D01*
X57104Y119741D01*
X56785Y120157D01*
X56523Y120611D01*
X56322Y121095D01*
X56186Y121602D01*
X56118Y122122D01*
X56118Y122646D01*
X56186Y123166D01*
X56322Y123673D01*
X56523Y124157D01*
X56785Y124611D01*
X57104Y125027D01*
X57475Y125398D01*
X57891Y125717D01*
X58345Y125979D01*
X58829Y126180D01*
X59336Y126316D01*
X59856Y126384D01*
X60380Y126384D01*
X60380Y130384D02*
X60900Y130316D01*
X61407Y130180D01*
X61891Y129979D01*
X62345Y129717D01*
X62761Y129398D01*
X63132Y129027D01*
X63451Y128611D01*
X63713Y128157D01*
X63914Y127673D01*
X64050Y127166D01*
X64118Y126646D01*
X64118Y126122D01*
X64050Y125602D01*
X63914Y125095D01*
X63713Y124611D01*
X63451Y124157D01*
X63132Y123741D01*
X62761Y123370D01*
X62345Y123051D01*
X61891Y122789D01*
X61407Y122588D01*
X60900Y122452D01*
X60380Y122384D01*
X59856Y122384D01*
X59336Y122452D01*
X58829Y122588D01*
X58345Y122789D01*
X57891Y123051D01*
X57475Y123370D01*
X57104Y123741D01*
X56785Y124157D01*
X56523Y124611D01*
X56322Y125095D01*
X56186Y125602D01*
X56118Y126122D01*
X56118Y126646D01*
X56186Y127166D01*
X56322Y127673D01*
X56523Y128157D01*
X56785Y128611D01*
X57104Y129027D01*
X57475Y129398D01*
X57891Y129717D01*
X58345Y129979D01*
X58829Y130180D01*
X59336Y130316D01*
X59856Y130384D01*
X60380Y130384D01*
X60380Y118384D02*
X60900Y118316D01*
X61407Y118180D01*
X61891Y117979D01*
X62345Y117717D01*
X62761Y117398D01*
X63132Y117027D01*
X63451Y116611D01*
X63713Y116157D01*
X63914Y115673D01*
X64050Y115166D01*
X64118Y114646D01*
X64118Y114122D01*
X64050Y113602D01*
X63914Y113095D01*
X63713Y112611D01*
X63451Y112157D01*
X63132Y111741D01*
X62761Y111370D01*
X62345Y111051D01*
X61891Y110789D01*
X61407Y110588D01*
X60900Y110452D01*
X60380Y110384D01*
X59856Y110384D01*
X59336Y110452D01*
X58829Y110588D01*
X58345Y110789D01*
X57891Y111051D01*
X57475Y111370D01*
X57104Y111741D01*
X56785Y112157D01*
X56523Y112611D01*
X56322Y113095D01*
X56186Y113602D01*
X56118Y114122D01*
X56118Y114646D01*
X56186Y115166D01*
X56322Y115673D01*
X56523Y116157D01*
X56785Y116611D01*
X57104Y117027D01*
X57475Y117398D01*
X57891Y117717D01*
X58345Y117979D01*
X58829Y118180D01*
X59336Y118316D01*
X59856Y118384D01*
X60380Y118384D01*
X60380Y114384D02*
X60900Y114316D01*
X61407Y114180D01*
X61891Y113979D01*
X62345Y113717D01*
X62761Y113398D01*
X63132Y113027D01*
X63451Y112611D01*
X63713Y112157D01*
X63914Y111673D01*
X64050Y111166D01*
X64118Y110646D01*
X64118Y110122D01*
X64050Y109602D01*
X63914Y109095D01*
X63713Y108611D01*
X63451Y108157D01*
X63132Y107741D01*
X62761Y107370D01*
X62345Y107051D01*
X61891Y106789D01*
X61407Y106588D01*
X60900Y106452D01*
X60380Y106384D01*
X59856Y106384D01*
X59336Y106452D01*
X58829Y106588D01*
X58345Y106789D01*
X57891Y107051D01*
X57475Y107370D01*
X57104Y107741D01*
X56785Y108157D01*
X56523Y108611D01*
X56322Y109095D01*
X56186Y109602D01*
X56118Y110122D01*
X56118Y110646D01*
X56186Y111166D01*
X56322Y111673D01*
X56523Y112157D01*
X56785Y112611D01*
X57104Y113027D01*
X57475Y113398D01*
X57891Y113717D01*
X58345Y113979D01*
X58829Y114180D01*
X59336Y114316D01*
X59856Y114384D01*
X60380Y114384D01*
M02*
