G04 EAGLE Gerber X2 export*
G75*
%MOMM*%
%FSLAX34Y34*%
%LPD*%
%AMOC8*
5,1,8,0,0,1.08239X$1,22.5*%
G01*
%ADD10C,0.127000*%
%ADD11C,0.203200*%
%ADD12C,0.152400*%
%ADD13C,0.304800*%
%ADD14C,0.050800*%
%ADD15C,0.200000*%
%ADD16C,0.254000*%


D10*
X112363Y235537D02*
X112363Y234464D01*
X112365Y234399D01*
X112371Y234335D01*
X112381Y234271D01*
X112394Y234207D01*
X112412Y234145D01*
X112433Y234084D01*
X112457Y234024D01*
X112486Y233966D01*
X112518Y233909D01*
X112553Y233855D01*
X112591Y233803D01*
X112633Y233753D01*
X112677Y233706D01*
X112724Y233662D01*
X112774Y233620D01*
X112826Y233582D01*
X112880Y233547D01*
X112937Y233515D01*
X112995Y233486D01*
X113055Y233462D01*
X113116Y233441D01*
X113178Y233423D01*
X113242Y233410D01*
X113306Y233400D01*
X113370Y233394D01*
X113435Y233392D01*
X116117Y233392D01*
X116182Y233394D01*
X116246Y233400D01*
X116310Y233410D01*
X116374Y233423D01*
X116436Y233441D01*
X116497Y233462D01*
X116557Y233486D01*
X116615Y233515D01*
X116672Y233547D01*
X116726Y233582D01*
X116778Y233620D01*
X116828Y233662D01*
X116875Y233706D01*
X116919Y233753D01*
X116961Y233803D01*
X116999Y233855D01*
X117034Y233909D01*
X117066Y233966D01*
X117095Y234024D01*
X117119Y234084D01*
X117140Y234145D01*
X117158Y234207D01*
X117171Y234271D01*
X117181Y234335D01*
X117187Y234399D01*
X117189Y234464D01*
X117189Y235537D01*
X112363Y237993D02*
X112363Y239333D01*
X112365Y239404D01*
X112371Y239476D01*
X112380Y239546D01*
X112393Y239616D01*
X112410Y239686D01*
X112431Y239754D01*
X112455Y239821D01*
X112483Y239887D01*
X112514Y239951D01*
X112549Y240014D01*
X112587Y240074D01*
X112628Y240133D01*
X112672Y240189D01*
X112719Y240243D01*
X112768Y240294D01*
X112821Y240342D01*
X112876Y240388D01*
X112933Y240430D01*
X112993Y240470D01*
X113054Y240506D01*
X113118Y240539D01*
X113183Y240568D01*
X113249Y240594D01*
X113317Y240617D01*
X113386Y240636D01*
X113456Y240651D01*
X113526Y240662D01*
X113597Y240670D01*
X113668Y240674D01*
X113740Y240674D01*
X113811Y240670D01*
X113882Y240662D01*
X113952Y240651D01*
X114022Y240636D01*
X114091Y240617D01*
X114159Y240594D01*
X114225Y240568D01*
X114290Y240539D01*
X114354Y240506D01*
X114415Y240470D01*
X114475Y240430D01*
X114532Y240388D01*
X114587Y240342D01*
X114640Y240294D01*
X114689Y240243D01*
X114736Y240189D01*
X114780Y240133D01*
X114821Y240074D01*
X114859Y240014D01*
X114894Y239951D01*
X114925Y239887D01*
X114953Y239821D01*
X114977Y239754D01*
X114998Y239686D01*
X115015Y239616D01*
X115028Y239546D01*
X115037Y239476D01*
X115043Y239404D01*
X115045Y239333D01*
X117189Y239601D02*
X117189Y237993D01*
X117189Y239601D02*
X117187Y239666D01*
X117181Y239730D01*
X117171Y239794D01*
X117158Y239858D01*
X117140Y239920D01*
X117119Y239981D01*
X117095Y240041D01*
X117066Y240099D01*
X117034Y240156D01*
X116999Y240210D01*
X116961Y240262D01*
X116919Y240312D01*
X116875Y240359D01*
X116828Y240403D01*
X116778Y240445D01*
X116726Y240483D01*
X116672Y240518D01*
X116615Y240550D01*
X116557Y240579D01*
X116497Y240603D01*
X116436Y240624D01*
X116374Y240642D01*
X116310Y240655D01*
X116246Y240665D01*
X116182Y240671D01*
X116117Y240673D01*
X116052Y240671D01*
X115988Y240665D01*
X115924Y240655D01*
X115860Y240642D01*
X115798Y240624D01*
X115737Y240603D01*
X115677Y240579D01*
X115619Y240550D01*
X115562Y240518D01*
X115508Y240483D01*
X115456Y240445D01*
X115406Y240403D01*
X115359Y240359D01*
X115315Y240312D01*
X115273Y240262D01*
X115235Y240210D01*
X115200Y240156D01*
X115168Y240099D01*
X115139Y240041D01*
X115115Y239981D01*
X115094Y239920D01*
X115076Y239858D01*
X115063Y239794D01*
X115053Y239730D01*
X115047Y239666D01*
X115045Y239601D01*
X115044Y239601D02*
X115044Y238529D01*
X113435Y243479D02*
X117189Y244551D01*
X113435Y243479D02*
X113435Y246160D01*
X114508Y245356D02*
X112363Y245356D01*
X66643Y236299D02*
X66643Y235226D01*
X66645Y235161D01*
X66651Y235097D01*
X66661Y235033D01*
X66674Y234969D01*
X66692Y234907D01*
X66713Y234846D01*
X66737Y234786D01*
X66766Y234728D01*
X66798Y234671D01*
X66833Y234617D01*
X66871Y234565D01*
X66913Y234515D01*
X66957Y234468D01*
X67004Y234424D01*
X67054Y234382D01*
X67106Y234344D01*
X67160Y234309D01*
X67217Y234277D01*
X67275Y234248D01*
X67335Y234224D01*
X67396Y234203D01*
X67458Y234185D01*
X67522Y234172D01*
X67586Y234162D01*
X67650Y234156D01*
X67715Y234154D01*
X70397Y234154D01*
X70462Y234156D01*
X70526Y234162D01*
X70590Y234172D01*
X70654Y234185D01*
X70716Y234203D01*
X70777Y234224D01*
X70837Y234248D01*
X70895Y234277D01*
X70952Y234309D01*
X71006Y234344D01*
X71058Y234382D01*
X71108Y234424D01*
X71155Y234468D01*
X71199Y234515D01*
X71241Y234565D01*
X71279Y234617D01*
X71314Y234671D01*
X71346Y234728D01*
X71375Y234786D01*
X71399Y234846D01*
X71420Y234907D01*
X71438Y234969D01*
X71451Y235033D01*
X71461Y235097D01*
X71467Y235161D01*
X71469Y235226D01*
X71469Y236299D01*
X66643Y238755D02*
X66643Y240095D01*
X66645Y240166D01*
X66651Y240238D01*
X66660Y240308D01*
X66673Y240378D01*
X66690Y240448D01*
X66711Y240516D01*
X66735Y240583D01*
X66763Y240649D01*
X66794Y240713D01*
X66829Y240776D01*
X66867Y240836D01*
X66908Y240895D01*
X66952Y240951D01*
X66999Y241005D01*
X67048Y241056D01*
X67101Y241104D01*
X67156Y241150D01*
X67213Y241192D01*
X67273Y241232D01*
X67334Y241268D01*
X67398Y241301D01*
X67463Y241330D01*
X67529Y241356D01*
X67597Y241379D01*
X67666Y241398D01*
X67736Y241413D01*
X67806Y241424D01*
X67877Y241432D01*
X67948Y241436D01*
X68020Y241436D01*
X68091Y241432D01*
X68162Y241424D01*
X68232Y241413D01*
X68302Y241398D01*
X68371Y241379D01*
X68439Y241356D01*
X68505Y241330D01*
X68570Y241301D01*
X68634Y241268D01*
X68695Y241232D01*
X68755Y241192D01*
X68812Y241150D01*
X68867Y241104D01*
X68920Y241056D01*
X68969Y241005D01*
X69016Y240951D01*
X69060Y240895D01*
X69101Y240836D01*
X69139Y240776D01*
X69174Y240713D01*
X69205Y240649D01*
X69233Y240583D01*
X69257Y240516D01*
X69278Y240448D01*
X69295Y240378D01*
X69308Y240308D01*
X69317Y240238D01*
X69323Y240166D01*
X69325Y240095D01*
X71469Y240363D02*
X71469Y238755D01*
X71469Y240363D02*
X71467Y240428D01*
X71461Y240492D01*
X71451Y240556D01*
X71438Y240620D01*
X71420Y240682D01*
X71399Y240743D01*
X71375Y240803D01*
X71346Y240861D01*
X71314Y240918D01*
X71279Y240972D01*
X71241Y241024D01*
X71199Y241074D01*
X71155Y241121D01*
X71108Y241165D01*
X71058Y241207D01*
X71006Y241245D01*
X70952Y241280D01*
X70895Y241312D01*
X70837Y241341D01*
X70777Y241365D01*
X70716Y241386D01*
X70654Y241404D01*
X70590Y241417D01*
X70526Y241427D01*
X70462Y241433D01*
X70397Y241435D01*
X70332Y241433D01*
X70268Y241427D01*
X70204Y241417D01*
X70140Y241404D01*
X70078Y241386D01*
X70017Y241365D01*
X69957Y241341D01*
X69899Y241312D01*
X69842Y241280D01*
X69788Y241245D01*
X69736Y241207D01*
X69686Y241165D01*
X69639Y241121D01*
X69595Y241074D01*
X69553Y241024D01*
X69515Y240972D01*
X69480Y240918D01*
X69448Y240861D01*
X69419Y240803D01*
X69395Y240743D01*
X69374Y240682D01*
X69356Y240620D01*
X69343Y240556D01*
X69333Y240492D01*
X69327Y240428D01*
X69325Y240363D01*
X69324Y240363D02*
X69324Y239291D01*
X66643Y244241D02*
X66643Y245850D01*
X66645Y245915D01*
X66651Y245979D01*
X66661Y246043D01*
X66674Y246107D01*
X66692Y246169D01*
X66713Y246230D01*
X66737Y246290D01*
X66766Y246348D01*
X66798Y246405D01*
X66833Y246459D01*
X66871Y246511D01*
X66913Y246561D01*
X66957Y246608D01*
X67004Y246652D01*
X67054Y246694D01*
X67106Y246732D01*
X67160Y246767D01*
X67217Y246799D01*
X67275Y246828D01*
X67335Y246852D01*
X67396Y246873D01*
X67458Y246891D01*
X67522Y246904D01*
X67586Y246914D01*
X67650Y246920D01*
X67715Y246922D01*
X68252Y246922D01*
X68317Y246920D01*
X68381Y246914D01*
X68445Y246904D01*
X68509Y246891D01*
X68571Y246873D01*
X68632Y246852D01*
X68692Y246828D01*
X68750Y246799D01*
X68807Y246767D01*
X68861Y246732D01*
X68913Y246694D01*
X68963Y246652D01*
X69010Y246608D01*
X69054Y246561D01*
X69096Y246511D01*
X69134Y246459D01*
X69169Y246405D01*
X69201Y246348D01*
X69230Y246290D01*
X69254Y246230D01*
X69275Y246169D01*
X69293Y246107D01*
X69306Y246043D01*
X69316Y245979D01*
X69322Y245915D01*
X69324Y245850D01*
X69324Y244241D01*
X71469Y244241D01*
X71469Y246922D01*
X141399Y179419D02*
X142472Y179419D01*
X142537Y179421D01*
X142601Y179427D01*
X142665Y179437D01*
X142729Y179450D01*
X142791Y179468D01*
X142852Y179489D01*
X142912Y179513D01*
X142970Y179542D01*
X143027Y179574D01*
X143081Y179609D01*
X143133Y179647D01*
X143183Y179689D01*
X143230Y179733D01*
X143274Y179780D01*
X143316Y179830D01*
X143354Y179882D01*
X143389Y179936D01*
X143421Y179993D01*
X143450Y180051D01*
X143474Y180111D01*
X143495Y180172D01*
X143513Y180234D01*
X143526Y180298D01*
X143536Y180362D01*
X143542Y180426D01*
X143544Y180491D01*
X143544Y183173D01*
X143542Y183238D01*
X143536Y183302D01*
X143526Y183366D01*
X143513Y183430D01*
X143495Y183492D01*
X143474Y183553D01*
X143450Y183613D01*
X143421Y183671D01*
X143389Y183728D01*
X143354Y183782D01*
X143316Y183834D01*
X143274Y183884D01*
X143230Y183931D01*
X143183Y183975D01*
X143133Y184017D01*
X143081Y184055D01*
X143027Y184090D01*
X142970Y184122D01*
X142912Y184151D01*
X142852Y184175D01*
X142791Y184196D01*
X142729Y184214D01*
X142665Y184227D01*
X142601Y184237D01*
X142537Y184243D01*
X142472Y184245D01*
X141399Y184245D01*
X137871Y184245D02*
X138943Y180491D01*
X136262Y180491D01*
X137067Y179419D02*
X137067Y181564D01*
X133457Y180760D02*
X133455Y180831D01*
X133449Y180903D01*
X133440Y180973D01*
X133427Y181043D01*
X133410Y181113D01*
X133389Y181181D01*
X133365Y181248D01*
X133337Y181314D01*
X133306Y181378D01*
X133271Y181441D01*
X133233Y181501D01*
X133192Y181560D01*
X133148Y181616D01*
X133101Y181670D01*
X133052Y181721D01*
X132999Y181769D01*
X132944Y181815D01*
X132887Y181857D01*
X132827Y181897D01*
X132766Y181933D01*
X132702Y181966D01*
X132637Y181995D01*
X132571Y182021D01*
X132503Y182044D01*
X132434Y182063D01*
X132364Y182078D01*
X132294Y182089D01*
X132223Y182097D01*
X132152Y182101D01*
X132080Y182101D01*
X132009Y182097D01*
X131938Y182089D01*
X131868Y182078D01*
X131798Y182063D01*
X131729Y182044D01*
X131661Y182021D01*
X131595Y181995D01*
X131530Y181966D01*
X131466Y181933D01*
X131405Y181897D01*
X131345Y181857D01*
X131288Y181815D01*
X131233Y181769D01*
X131180Y181721D01*
X131131Y181670D01*
X131084Y181616D01*
X131040Y181560D01*
X130999Y181501D01*
X130961Y181441D01*
X130926Y181378D01*
X130895Y181314D01*
X130867Y181248D01*
X130843Y181181D01*
X130822Y181113D01*
X130805Y181043D01*
X130792Y180973D01*
X130783Y180903D01*
X130777Y180831D01*
X130775Y180760D01*
X130777Y180689D01*
X130783Y180617D01*
X130792Y180547D01*
X130805Y180477D01*
X130822Y180407D01*
X130843Y180339D01*
X130867Y180272D01*
X130895Y180206D01*
X130926Y180142D01*
X130961Y180079D01*
X130999Y180019D01*
X131040Y179960D01*
X131084Y179904D01*
X131131Y179850D01*
X131180Y179799D01*
X131233Y179751D01*
X131288Y179705D01*
X131345Y179663D01*
X131405Y179623D01*
X131466Y179587D01*
X131530Y179554D01*
X131595Y179525D01*
X131661Y179499D01*
X131729Y179476D01*
X131798Y179457D01*
X131868Y179442D01*
X131938Y179431D01*
X132009Y179423D01*
X132080Y179419D01*
X132152Y179419D01*
X132223Y179423D01*
X132294Y179431D01*
X132364Y179442D01*
X132434Y179457D01*
X132503Y179476D01*
X132571Y179499D01*
X132637Y179525D01*
X132702Y179554D01*
X132766Y179587D01*
X132827Y179623D01*
X132887Y179663D01*
X132944Y179705D01*
X132999Y179751D01*
X133052Y179799D01*
X133101Y179850D01*
X133148Y179904D01*
X133192Y179960D01*
X133233Y180019D01*
X133271Y180079D01*
X133306Y180142D01*
X133337Y180206D01*
X133365Y180272D01*
X133389Y180339D01*
X133410Y180407D01*
X133427Y180477D01*
X133440Y180547D01*
X133449Y180617D01*
X133455Y180689D01*
X133457Y180760D01*
X133188Y183173D02*
X133186Y183238D01*
X133180Y183302D01*
X133170Y183366D01*
X133157Y183430D01*
X133139Y183492D01*
X133118Y183553D01*
X133094Y183613D01*
X133065Y183671D01*
X133033Y183728D01*
X132998Y183782D01*
X132960Y183834D01*
X132918Y183884D01*
X132874Y183931D01*
X132827Y183975D01*
X132777Y184017D01*
X132725Y184055D01*
X132671Y184090D01*
X132614Y184122D01*
X132556Y184151D01*
X132496Y184175D01*
X132435Y184196D01*
X132373Y184214D01*
X132309Y184227D01*
X132245Y184237D01*
X132181Y184243D01*
X132116Y184245D01*
X132051Y184243D01*
X131987Y184237D01*
X131923Y184227D01*
X131859Y184214D01*
X131797Y184196D01*
X131736Y184175D01*
X131676Y184151D01*
X131618Y184122D01*
X131561Y184090D01*
X131507Y184055D01*
X131455Y184017D01*
X131405Y183975D01*
X131358Y183931D01*
X131314Y183884D01*
X131272Y183834D01*
X131234Y183782D01*
X131199Y183728D01*
X131167Y183671D01*
X131138Y183613D01*
X131114Y183553D01*
X131093Y183492D01*
X131075Y183430D01*
X131062Y183366D01*
X131052Y183302D01*
X131046Y183238D01*
X131044Y183173D01*
X131046Y183108D01*
X131052Y183044D01*
X131062Y182980D01*
X131075Y182916D01*
X131093Y182854D01*
X131114Y182793D01*
X131138Y182733D01*
X131167Y182675D01*
X131199Y182618D01*
X131234Y182564D01*
X131272Y182512D01*
X131314Y182462D01*
X131358Y182415D01*
X131405Y182371D01*
X131455Y182329D01*
X131507Y182291D01*
X131561Y182256D01*
X131618Y182224D01*
X131676Y182195D01*
X131736Y182171D01*
X131797Y182150D01*
X131859Y182132D01*
X131923Y182119D01*
X131987Y182109D01*
X132051Y182103D01*
X132116Y182101D01*
X132181Y182103D01*
X132245Y182109D01*
X132309Y182119D01*
X132373Y182132D01*
X132435Y182150D01*
X132496Y182171D01*
X132556Y182195D01*
X132614Y182224D01*
X132671Y182256D01*
X132725Y182291D01*
X132777Y182329D01*
X132827Y182371D01*
X132874Y182415D01*
X132918Y182462D01*
X132960Y182512D01*
X132998Y182564D01*
X133033Y182618D01*
X133065Y182675D01*
X133094Y182733D01*
X133118Y182793D01*
X133139Y182854D01*
X133157Y182916D01*
X133170Y182980D01*
X133180Y183044D01*
X133186Y183108D01*
X133188Y183173D01*
X120882Y158655D02*
X119809Y158655D01*
X120882Y158655D02*
X120947Y158657D01*
X121011Y158663D01*
X121075Y158673D01*
X121139Y158686D01*
X121201Y158704D01*
X121262Y158725D01*
X121322Y158749D01*
X121380Y158778D01*
X121437Y158810D01*
X121491Y158845D01*
X121543Y158883D01*
X121593Y158925D01*
X121640Y158969D01*
X121684Y159016D01*
X121726Y159066D01*
X121764Y159118D01*
X121799Y159172D01*
X121831Y159229D01*
X121860Y159287D01*
X121884Y159347D01*
X121905Y159408D01*
X121923Y159470D01*
X121936Y159534D01*
X121946Y159598D01*
X121952Y159662D01*
X121954Y159727D01*
X121954Y162409D01*
X121952Y162474D01*
X121946Y162538D01*
X121936Y162602D01*
X121923Y162666D01*
X121905Y162728D01*
X121884Y162789D01*
X121860Y162849D01*
X121831Y162907D01*
X121799Y162964D01*
X121764Y163018D01*
X121726Y163070D01*
X121684Y163120D01*
X121640Y163167D01*
X121593Y163211D01*
X121543Y163253D01*
X121491Y163291D01*
X121437Y163326D01*
X121380Y163358D01*
X121322Y163387D01*
X121262Y163411D01*
X121201Y163432D01*
X121139Y163450D01*
X121075Y163463D01*
X121011Y163473D01*
X120947Y163479D01*
X120882Y163481D01*
X119809Y163481D01*
X116281Y163481D02*
X117353Y159727D01*
X114672Y159727D01*
X115477Y158655D02*
X115477Y160800D01*
X110795Y160800D02*
X109186Y160800D01*
X110795Y160800D02*
X110860Y160802D01*
X110924Y160808D01*
X110988Y160818D01*
X111052Y160831D01*
X111114Y160849D01*
X111175Y160870D01*
X111235Y160894D01*
X111293Y160923D01*
X111350Y160955D01*
X111404Y160990D01*
X111456Y161028D01*
X111506Y161070D01*
X111553Y161114D01*
X111597Y161161D01*
X111639Y161211D01*
X111677Y161263D01*
X111712Y161317D01*
X111744Y161374D01*
X111773Y161432D01*
X111797Y161492D01*
X111818Y161553D01*
X111836Y161615D01*
X111849Y161679D01*
X111859Y161743D01*
X111865Y161807D01*
X111867Y161872D01*
X111867Y162140D01*
X111865Y162211D01*
X111859Y162283D01*
X111850Y162353D01*
X111837Y162423D01*
X111820Y162493D01*
X111799Y162561D01*
X111775Y162628D01*
X111747Y162694D01*
X111716Y162758D01*
X111681Y162821D01*
X111643Y162881D01*
X111602Y162940D01*
X111558Y162996D01*
X111511Y163050D01*
X111462Y163101D01*
X111409Y163149D01*
X111354Y163195D01*
X111297Y163237D01*
X111237Y163277D01*
X111176Y163313D01*
X111112Y163346D01*
X111047Y163375D01*
X110981Y163401D01*
X110913Y163424D01*
X110844Y163443D01*
X110774Y163458D01*
X110704Y163469D01*
X110633Y163477D01*
X110562Y163481D01*
X110490Y163481D01*
X110419Y163477D01*
X110348Y163469D01*
X110278Y163458D01*
X110208Y163443D01*
X110139Y163424D01*
X110071Y163401D01*
X110005Y163375D01*
X109940Y163346D01*
X109876Y163313D01*
X109815Y163277D01*
X109755Y163237D01*
X109698Y163195D01*
X109643Y163149D01*
X109590Y163101D01*
X109541Y163050D01*
X109494Y162996D01*
X109450Y162940D01*
X109409Y162881D01*
X109371Y162821D01*
X109336Y162758D01*
X109305Y162694D01*
X109277Y162628D01*
X109253Y162561D01*
X109232Y162493D01*
X109215Y162423D01*
X109202Y162353D01*
X109193Y162283D01*
X109187Y162211D01*
X109185Y162140D01*
X109186Y162140D02*
X109186Y160800D01*
X109188Y160709D01*
X109194Y160618D01*
X109203Y160528D01*
X109217Y160437D01*
X109234Y160348D01*
X109255Y160260D01*
X109280Y160172D01*
X109309Y160085D01*
X109341Y160000D01*
X109376Y159916D01*
X109416Y159834D01*
X109458Y159754D01*
X109504Y159675D01*
X109554Y159599D01*
X109606Y159525D01*
X109662Y159452D01*
X109721Y159383D01*
X109782Y159316D01*
X109847Y159251D01*
X109914Y159190D01*
X109983Y159131D01*
X110056Y159075D01*
X110130Y159023D01*
X110206Y158973D01*
X110285Y158927D01*
X110365Y158885D01*
X110447Y158845D01*
X110531Y158810D01*
X110616Y158778D01*
X110703Y158749D01*
X110791Y158724D01*
X110879Y158703D01*
X110968Y158686D01*
X111059Y158672D01*
X111149Y158663D01*
X111240Y158657D01*
X111331Y158655D01*
D11*
X131840Y301500D02*
X131840Y333500D01*
X165340Y333250D02*
X165340Y301500D01*
D12*
X130048Y314410D02*
X125278Y314410D01*
X125278Y314411D02*
X125193Y314413D01*
X125109Y314419D01*
X125025Y314429D01*
X124941Y314442D01*
X124858Y314460D01*
X124776Y314481D01*
X124695Y314506D01*
X124615Y314535D01*
X124537Y314567D01*
X124461Y314603D01*
X124386Y314643D01*
X124313Y314686D01*
X124242Y314732D01*
X124173Y314781D01*
X124106Y314834D01*
X124042Y314890D01*
X123981Y314948D01*
X123923Y315009D01*
X123867Y315073D01*
X123814Y315140D01*
X123765Y315209D01*
X123719Y315280D01*
X123676Y315353D01*
X123636Y315428D01*
X123600Y315504D01*
X123568Y315582D01*
X123539Y315662D01*
X123514Y315743D01*
X123493Y315825D01*
X123475Y315908D01*
X123462Y315992D01*
X123452Y316076D01*
X123446Y316160D01*
X123444Y316245D01*
X123446Y316330D01*
X123452Y316414D01*
X123462Y316498D01*
X123475Y316582D01*
X123493Y316665D01*
X123514Y316747D01*
X123539Y316828D01*
X123568Y316908D01*
X123600Y316986D01*
X123636Y317062D01*
X123676Y317137D01*
X123719Y317210D01*
X123765Y317281D01*
X123814Y317350D01*
X123867Y317417D01*
X123923Y317481D01*
X123981Y317542D01*
X124042Y317600D01*
X124106Y317656D01*
X124173Y317709D01*
X124242Y317758D01*
X124313Y317804D01*
X124386Y317847D01*
X124461Y317887D01*
X124537Y317923D01*
X124615Y317955D01*
X124695Y317984D01*
X124776Y318009D01*
X124858Y318030D01*
X124941Y318048D01*
X125025Y318061D01*
X125109Y318071D01*
X125193Y318077D01*
X125278Y318079D01*
X130048Y318079D01*
X130048Y323316D02*
X123444Y323316D01*
X126746Y323316D02*
X127296Y322399D01*
X127331Y322345D01*
X127369Y322292D01*
X127410Y322242D01*
X127454Y322195D01*
X127501Y322150D01*
X127550Y322108D01*
X127602Y322069D01*
X127656Y322033D01*
X127711Y322001D01*
X127769Y321971D01*
X127828Y321946D01*
X127889Y321923D01*
X127951Y321905D01*
X128014Y321890D01*
X128078Y321878D01*
X128142Y321871D01*
X128207Y321867D01*
X128271Y321868D01*
X128336Y321872D01*
X128400Y321879D01*
X128464Y321891D01*
X128527Y321906D01*
X128589Y321925D01*
X128649Y321948D01*
X128708Y321974D01*
X128766Y322004D01*
X128822Y322037D01*
X128875Y322073D01*
X128927Y322112D01*
X128976Y322154D01*
X129022Y322199D01*
X129066Y322247D01*
X129107Y322297D01*
X129144Y322350D01*
X129179Y322404D01*
X129210Y322461D01*
X129238Y322519D01*
X129263Y322579D01*
X129283Y322640D01*
X129301Y322703D01*
X129314Y322766D01*
X129315Y322766D02*
X129332Y322869D01*
X129345Y322973D01*
X129354Y323077D01*
X129360Y323182D01*
X129362Y323287D01*
X129360Y323392D01*
X129355Y323496D01*
X129345Y323601D01*
X129332Y323705D01*
X129315Y323808D01*
X129295Y323911D01*
X129270Y324013D01*
X129242Y324114D01*
X129211Y324214D01*
X129176Y324312D01*
X129137Y324410D01*
X129095Y324506D01*
X129049Y324600D01*
X129000Y324693D01*
X128948Y324784D01*
X126746Y323316D02*
X126196Y324233D01*
X126161Y324287D01*
X126123Y324340D01*
X126082Y324390D01*
X126038Y324437D01*
X125991Y324482D01*
X125942Y324524D01*
X125890Y324563D01*
X125836Y324599D01*
X125781Y324631D01*
X125723Y324661D01*
X125664Y324686D01*
X125603Y324709D01*
X125541Y324727D01*
X125478Y324742D01*
X125414Y324754D01*
X125350Y324761D01*
X125285Y324765D01*
X125221Y324764D01*
X125156Y324760D01*
X125092Y324753D01*
X125028Y324741D01*
X124965Y324726D01*
X124904Y324707D01*
X124843Y324684D01*
X124784Y324658D01*
X124726Y324628D01*
X124671Y324596D01*
X124617Y324559D01*
X124565Y324520D01*
X124516Y324478D01*
X124470Y324433D01*
X124426Y324385D01*
X124386Y324335D01*
X124348Y324282D01*
X124313Y324228D01*
X124282Y324171D01*
X124254Y324113D01*
X124229Y324053D01*
X124209Y323992D01*
X124191Y323929D01*
X124178Y323866D01*
X124161Y323763D01*
X124148Y323659D01*
X124139Y323555D01*
X124133Y323450D01*
X124131Y323345D01*
X124133Y323241D01*
X124138Y323136D01*
X124148Y323032D01*
X124161Y322928D01*
X124178Y322824D01*
X124198Y322721D01*
X124223Y322619D01*
X124251Y322518D01*
X124282Y322419D01*
X124317Y322320D01*
X124356Y322222D01*
X124398Y322126D01*
X124444Y322032D01*
X124493Y321940D01*
X124545Y321849D01*
X128580Y328309D02*
X130048Y330144D01*
X123444Y330144D01*
X123444Y331978D02*
X123444Y328309D01*
D13*
X130242Y338074D02*
X130244Y338122D01*
X130250Y338169D01*
X130260Y338215D01*
X130274Y338261D01*
X130291Y338305D01*
X130312Y338348D01*
X130337Y338388D01*
X130365Y338427D01*
X130396Y338463D01*
X130430Y338496D01*
X130467Y338526D01*
X130506Y338554D01*
X130547Y338577D01*
X130590Y338598D01*
X130634Y338614D01*
X130680Y338627D01*
X130727Y338636D01*
X130774Y338641D01*
X130822Y338642D01*
X130869Y338639D01*
X130916Y338632D01*
X130963Y338621D01*
X131008Y338606D01*
X131052Y338588D01*
X131094Y338566D01*
X131134Y338540D01*
X131172Y338512D01*
X131207Y338480D01*
X131240Y338445D01*
X131270Y338408D01*
X131296Y338368D01*
X131319Y338327D01*
X131338Y338283D01*
X131354Y338238D01*
X131366Y338192D01*
X131374Y338145D01*
X131378Y338098D01*
X131378Y338050D01*
X131374Y338003D01*
X131366Y337956D01*
X131354Y337910D01*
X131338Y337865D01*
X131319Y337821D01*
X131296Y337780D01*
X131270Y337740D01*
X131240Y337703D01*
X131207Y337668D01*
X131172Y337636D01*
X131134Y337608D01*
X131094Y337582D01*
X131052Y337560D01*
X131008Y337542D01*
X130963Y337527D01*
X130916Y337516D01*
X130869Y337509D01*
X130822Y337506D01*
X130774Y337507D01*
X130727Y337512D01*
X130680Y337521D01*
X130634Y337534D01*
X130590Y337550D01*
X130547Y337571D01*
X130506Y337594D01*
X130467Y337622D01*
X130430Y337652D01*
X130396Y337685D01*
X130365Y337721D01*
X130337Y337760D01*
X130312Y337800D01*
X130291Y337843D01*
X130274Y337887D01*
X130260Y337933D01*
X130250Y337979D01*
X130244Y338026D01*
X130242Y338074D01*
D14*
X91972Y224519D02*
X90105Y221875D01*
X88239Y224519D01*
X90105Y221875D02*
X90105Y218920D01*
X86165Y218920D02*
X84610Y218920D01*
X84532Y218922D01*
X84455Y218928D01*
X84378Y218937D01*
X84302Y218951D01*
X84226Y218968D01*
X84152Y218989D01*
X84078Y219014D01*
X84006Y219042D01*
X83935Y219074D01*
X83866Y219109D01*
X83799Y219148D01*
X83734Y219190D01*
X83671Y219235D01*
X83610Y219284D01*
X83552Y219335D01*
X83497Y219389D01*
X83444Y219446D01*
X83394Y219505D01*
X83347Y219567D01*
X83304Y219631D01*
X83263Y219698D01*
X83226Y219766D01*
X83193Y219835D01*
X83162Y219907D01*
X83136Y219980D01*
X83113Y220054D01*
X83094Y220129D01*
X83079Y220205D01*
X83067Y220282D01*
X83059Y220359D01*
X83055Y220436D01*
X83055Y220514D01*
X83059Y220591D01*
X83067Y220668D01*
X83079Y220745D01*
X83094Y220821D01*
X83113Y220896D01*
X83136Y220970D01*
X83162Y221043D01*
X83193Y221115D01*
X83226Y221184D01*
X83263Y221253D01*
X83304Y221319D01*
X83347Y221383D01*
X83394Y221445D01*
X83444Y221504D01*
X83497Y221561D01*
X83552Y221615D01*
X83610Y221666D01*
X83671Y221715D01*
X83734Y221760D01*
X83799Y221802D01*
X83866Y221841D01*
X83935Y221876D01*
X84006Y221908D01*
X84078Y221936D01*
X84152Y221961D01*
X84226Y221982D01*
X84302Y221999D01*
X84378Y222013D01*
X84455Y222022D01*
X84532Y222028D01*
X84610Y222030D01*
X84299Y224519D02*
X86165Y224519D01*
X84299Y224518D02*
X84229Y224516D01*
X84160Y224510D01*
X84091Y224500D01*
X84022Y224487D01*
X83955Y224469D01*
X83888Y224448D01*
X83823Y224423D01*
X83759Y224395D01*
X83697Y224363D01*
X83637Y224327D01*
X83579Y224289D01*
X83523Y224247D01*
X83470Y224202D01*
X83419Y224154D01*
X83371Y224103D01*
X83326Y224050D01*
X83284Y223994D01*
X83246Y223936D01*
X83210Y223876D01*
X83178Y223814D01*
X83150Y223750D01*
X83125Y223685D01*
X83104Y223618D01*
X83086Y223551D01*
X83073Y223482D01*
X83063Y223413D01*
X83057Y223344D01*
X83055Y223274D01*
X83057Y223204D01*
X83063Y223135D01*
X83073Y223066D01*
X83086Y222997D01*
X83104Y222930D01*
X83125Y222863D01*
X83150Y222798D01*
X83178Y222734D01*
X83210Y222672D01*
X83246Y222612D01*
X83284Y222554D01*
X83326Y222498D01*
X83371Y222445D01*
X83419Y222394D01*
X83470Y222346D01*
X83523Y222301D01*
X83579Y222259D01*
X83637Y222221D01*
X83697Y222185D01*
X83759Y222153D01*
X83823Y222125D01*
X83888Y222100D01*
X83955Y222079D01*
X84022Y222061D01*
X84091Y222048D01*
X84160Y222038D01*
X84229Y222032D01*
X84299Y222030D01*
X85543Y222030D01*
D15*
X78830Y248300D02*
X78832Y248363D01*
X78838Y248425D01*
X78848Y248487D01*
X78861Y248549D01*
X78879Y248609D01*
X78900Y248668D01*
X78925Y248726D01*
X78954Y248782D01*
X78986Y248836D01*
X79021Y248888D01*
X79059Y248937D01*
X79101Y248985D01*
X79145Y249029D01*
X79193Y249071D01*
X79242Y249109D01*
X79294Y249144D01*
X79348Y249176D01*
X79404Y249205D01*
X79462Y249230D01*
X79521Y249251D01*
X79581Y249269D01*
X79643Y249282D01*
X79705Y249292D01*
X79767Y249298D01*
X79830Y249300D01*
X79893Y249298D01*
X79955Y249292D01*
X80017Y249282D01*
X80079Y249269D01*
X80139Y249251D01*
X80198Y249230D01*
X80256Y249205D01*
X80312Y249176D01*
X80366Y249144D01*
X80418Y249109D01*
X80467Y249071D01*
X80515Y249029D01*
X80559Y248985D01*
X80601Y248937D01*
X80639Y248888D01*
X80674Y248836D01*
X80706Y248782D01*
X80735Y248726D01*
X80760Y248668D01*
X80781Y248609D01*
X80799Y248549D01*
X80812Y248487D01*
X80822Y248425D01*
X80828Y248363D01*
X80830Y248300D01*
X80828Y248237D01*
X80822Y248175D01*
X80812Y248113D01*
X80799Y248051D01*
X80781Y247991D01*
X80760Y247932D01*
X80735Y247874D01*
X80706Y247818D01*
X80674Y247764D01*
X80639Y247712D01*
X80601Y247663D01*
X80559Y247615D01*
X80515Y247571D01*
X80467Y247529D01*
X80418Y247491D01*
X80366Y247456D01*
X80312Y247424D01*
X80256Y247395D01*
X80198Y247370D01*
X80139Y247349D01*
X80079Y247331D01*
X80017Y247318D01*
X79955Y247308D01*
X79893Y247302D01*
X79830Y247300D01*
X79767Y247302D01*
X79705Y247308D01*
X79643Y247318D01*
X79581Y247331D01*
X79521Y247349D01*
X79462Y247370D01*
X79404Y247395D01*
X79348Y247424D01*
X79294Y247456D01*
X79242Y247491D01*
X79193Y247529D01*
X79145Y247571D01*
X79101Y247615D01*
X79059Y247663D01*
X79021Y247712D01*
X78986Y247764D01*
X78954Y247818D01*
X78925Y247874D01*
X78900Y247932D01*
X78879Y247991D01*
X78861Y248051D01*
X78848Y248113D01*
X78838Y248175D01*
X78832Y248237D01*
X78830Y248300D01*
D10*
X156639Y358045D02*
X157712Y358045D01*
X157777Y358047D01*
X157841Y358053D01*
X157905Y358063D01*
X157969Y358076D01*
X158031Y358094D01*
X158092Y358115D01*
X158152Y358139D01*
X158210Y358168D01*
X158267Y358200D01*
X158321Y358235D01*
X158373Y358273D01*
X158423Y358315D01*
X158470Y358359D01*
X158514Y358406D01*
X158556Y358456D01*
X158594Y358508D01*
X158629Y358562D01*
X158661Y358619D01*
X158690Y358677D01*
X158714Y358737D01*
X158735Y358798D01*
X158753Y358860D01*
X158766Y358924D01*
X158776Y358988D01*
X158782Y359052D01*
X158784Y359117D01*
X158784Y361799D01*
X158782Y361864D01*
X158776Y361928D01*
X158766Y361992D01*
X158753Y362056D01*
X158735Y362118D01*
X158714Y362179D01*
X158690Y362239D01*
X158661Y362297D01*
X158629Y362354D01*
X158594Y362408D01*
X158556Y362460D01*
X158514Y362510D01*
X158470Y362557D01*
X158423Y362601D01*
X158373Y362643D01*
X158321Y362681D01*
X158267Y362716D01*
X158210Y362748D01*
X158152Y362777D01*
X158092Y362801D01*
X158031Y362822D01*
X157969Y362840D01*
X157905Y362853D01*
X157841Y362863D01*
X157777Y362869D01*
X157712Y362871D01*
X156639Y362871D01*
X152709Y362871D02*
X152641Y362869D01*
X152574Y362863D01*
X152507Y362854D01*
X152440Y362841D01*
X152375Y362824D01*
X152310Y362803D01*
X152247Y362779D01*
X152185Y362751D01*
X152125Y362720D01*
X152067Y362686D01*
X152011Y362648D01*
X151956Y362608D01*
X151905Y362564D01*
X151856Y362517D01*
X151809Y362468D01*
X151765Y362417D01*
X151725Y362362D01*
X151687Y362306D01*
X151653Y362248D01*
X151622Y362188D01*
X151594Y362126D01*
X151570Y362063D01*
X151549Y361998D01*
X151532Y361933D01*
X151519Y361866D01*
X151510Y361799D01*
X151504Y361732D01*
X151502Y361664D01*
X152709Y362871D02*
X152787Y362869D01*
X152865Y362863D01*
X152942Y362853D01*
X153019Y362840D01*
X153095Y362822D01*
X153170Y362801D01*
X153244Y362776D01*
X153316Y362747D01*
X153387Y362715D01*
X153456Y362679D01*
X153524Y362640D01*
X153589Y362597D01*
X153652Y362551D01*
X153713Y362502D01*
X153771Y362450D01*
X153826Y362395D01*
X153879Y362338D01*
X153928Y362278D01*
X153975Y362215D01*
X154018Y362150D01*
X154058Y362084D01*
X154095Y362015D01*
X154128Y361944D01*
X154158Y361872D01*
X154184Y361798D01*
X151904Y360726D02*
X151855Y360775D01*
X151808Y360827D01*
X151765Y360882D01*
X151724Y360939D01*
X151686Y360998D01*
X151652Y361059D01*
X151621Y361122D01*
X151593Y361186D01*
X151569Y361252D01*
X151549Y361318D01*
X151532Y361386D01*
X151519Y361455D01*
X151510Y361524D01*
X151504Y361594D01*
X151502Y361664D01*
X151904Y360726D02*
X154183Y358045D01*
X151502Y358045D01*
X148697Y360726D02*
X147088Y360726D01*
X147023Y360724D01*
X146959Y360718D01*
X146895Y360708D01*
X146831Y360695D01*
X146769Y360677D01*
X146708Y360656D01*
X146648Y360632D01*
X146590Y360603D01*
X146533Y360571D01*
X146479Y360536D01*
X146427Y360498D01*
X146377Y360456D01*
X146330Y360412D01*
X146286Y360365D01*
X146244Y360315D01*
X146206Y360263D01*
X146171Y360209D01*
X146139Y360152D01*
X146110Y360094D01*
X146086Y360034D01*
X146065Y359973D01*
X146047Y359911D01*
X146034Y359847D01*
X146024Y359783D01*
X146018Y359719D01*
X146016Y359654D01*
X146016Y359386D01*
X146015Y359386D02*
X146017Y359315D01*
X146023Y359243D01*
X146032Y359173D01*
X146045Y359103D01*
X146062Y359033D01*
X146083Y358965D01*
X146107Y358898D01*
X146135Y358832D01*
X146166Y358768D01*
X146201Y358705D01*
X146239Y358645D01*
X146280Y358586D01*
X146324Y358530D01*
X146371Y358476D01*
X146420Y358425D01*
X146473Y358377D01*
X146528Y358331D01*
X146585Y358289D01*
X146645Y358249D01*
X146706Y358213D01*
X146770Y358180D01*
X146835Y358151D01*
X146901Y358125D01*
X146969Y358102D01*
X147038Y358083D01*
X147108Y358068D01*
X147178Y358057D01*
X147249Y358049D01*
X147320Y358045D01*
X147392Y358045D01*
X147463Y358049D01*
X147534Y358057D01*
X147604Y358068D01*
X147674Y358083D01*
X147743Y358102D01*
X147811Y358125D01*
X147877Y358151D01*
X147942Y358180D01*
X148006Y358213D01*
X148067Y358249D01*
X148127Y358289D01*
X148184Y358331D01*
X148239Y358377D01*
X148292Y358425D01*
X148341Y358476D01*
X148388Y358530D01*
X148432Y358586D01*
X148473Y358645D01*
X148511Y358705D01*
X148546Y358768D01*
X148577Y358832D01*
X148605Y358898D01*
X148629Y358965D01*
X148650Y359033D01*
X148667Y359103D01*
X148680Y359173D01*
X148689Y359243D01*
X148695Y359315D01*
X148697Y359386D01*
X148697Y360726D01*
X148695Y360817D01*
X148689Y360908D01*
X148680Y360998D01*
X148666Y361089D01*
X148649Y361178D01*
X148628Y361266D01*
X148603Y361354D01*
X148574Y361441D01*
X148542Y361526D01*
X148507Y361610D01*
X148467Y361692D01*
X148425Y361772D01*
X148379Y361851D01*
X148329Y361927D01*
X148277Y362001D01*
X148221Y362074D01*
X148162Y362143D01*
X148101Y362210D01*
X148036Y362275D01*
X147969Y362336D01*
X147900Y362395D01*
X147827Y362451D01*
X147753Y362503D01*
X147677Y362553D01*
X147598Y362599D01*
X147518Y362641D01*
X147436Y362681D01*
X147352Y362716D01*
X147267Y362748D01*
X147180Y362777D01*
X147092Y362802D01*
X147004Y362823D01*
X146915Y362840D01*
X146824Y362854D01*
X146734Y362863D01*
X146643Y362869D01*
X146552Y362871D01*
X180975Y275161D02*
X180975Y274088D01*
X180977Y274023D01*
X180983Y273959D01*
X180993Y273895D01*
X181006Y273831D01*
X181024Y273769D01*
X181045Y273708D01*
X181069Y273648D01*
X181098Y273590D01*
X181130Y273533D01*
X181165Y273479D01*
X181203Y273427D01*
X181245Y273377D01*
X181289Y273330D01*
X181336Y273286D01*
X181386Y273244D01*
X181438Y273206D01*
X181492Y273171D01*
X181549Y273139D01*
X181607Y273110D01*
X181667Y273086D01*
X181728Y273065D01*
X181790Y273047D01*
X181854Y273034D01*
X181918Y273024D01*
X181982Y273018D01*
X182047Y273016D01*
X184729Y273016D01*
X184794Y273018D01*
X184858Y273024D01*
X184922Y273034D01*
X184986Y273047D01*
X185048Y273065D01*
X185109Y273086D01*
X185169Y273110D01*
X185227Y273139D01*
X185284Y273171D01*
X185338Y273206D01*
X185390Y273244D01*
X185440Y273286D01*
X185487Y273330D01*
X185531Y273377D01*
X185573Y273427D01*
X185611Y273479D01*
X185646Y273533D01*
X185678Y273590D01*
X185707Y273648D01*
X185731Y273708D01*
X185752Y273769D01*
X185770Y273831D01*
X185783Y273895D01*
X185793Y273959D01*
X185799Y274023D01*
X185801Y274088D01*
X185801Y275161D01*
X185801Y279091D02*
X185799Y279159D01*
X185793Y279226D01*
X185784Y279293D01*
X185771Y279360D01*
X185754Y279425D01*
X185733Y279490D01*
X185709Y279553D01*
X185681Y279615D01*
X185650Y279675D01*
X185616Y279733D01*
X185578Y279789D01*
X185538Y279844D01*
X185494Y279895D01*
X185447Y279944D01*
X185398Y279991D01*
X185347Y280035D01*
X185292Y280075D01*
X185236Y280113D01*
X185178Y280147D01*
X185118Y280178D01*
X185056Y280206D01*
X184993Y280230D01*
X184928Y280251D01*
X184863Y280268D01*
X184796Y280281D01*
X184729Y280290D01*
X184662Y280296D01*
X184594Y280298D01*
X185801Y279091D02*
X185799Y279013D01*
X185793Y278935D01*
X185783Y278858D01*
X185770Y278781D01*
X185752Y278705D01*
X185731Y278630D01*
X185706Y278556D01*
X185677Y278484D01*
X185645Y278413D01*
X185609Y278344D01*
X185570Y278276D01*
X185527Y278211D01*
X185481Y278148D01*
X185432Y278087D01*
X185380Y278029D01*
X185325Y277974D01*
X185268Y277921D01*
X185208Y277872D01*
X185145Y277825D01*
X185080Y277782D01*
X185014Y277742D01*
X184945Y277705D01*
X184874Y277672D01*
X184802Y277642D01*
X184729Y277616D01*
X183656Y279896D02*
X183705Y279945D01*
X183757Y279992D01*
X183812Y280035D01*
X183869Y280076D01*
X183928Y280114D01*
X183989Y280148D01*
X184052Y280179D01*
X184116Y280207D01*
X184182Y280231D01*
X184248Y280251D01*
X184316Y280268D01*
X184385Y280281D01*
X184454Y280290D01*
X184524Y280296D01*
X184594Y280298D01*
X183656Y279896D02*
X180975Y277617D01*
X180975Y280298D01*
X182047Y283103D02*
X185801Y284175D01*
X182047Y283103D02*
X182047Y285784D01*
X183120Y284980D02*
X180975Y284980D01*
X155172Y275939D02*
X154099Y275939D01*
X155172Y275939D02*
X155237Y275941D01*
X155301Y275947D01*
X155365Y275957D01*
X155429Y275970D01*
X155491Y275988D01*
X155552Y276009D01*
X155612Y276033D01*
X155670Y276062D01*
X155727Y276094D01*
X155781Y276129D01*
X155833Y276167D01*
X155883Y276209D01*
X155930Y276253D01*
X155974Y276300D01*
X156016Y276350D01*
X156054Y276402D01*
X156089Y276456D01*
X156121Y276513D01*
X156150Y276571D01*
X156174Y276631D01*
X156195Y276692D01*
X156213Y276754D01*
X156226Y276818D01*
X156236Y276882D01*
X156242Y276946D01*
X156244Y277011D01*
X156244Y279693D01*
X156242Y279758D01*
X156236Y279822D01*
X156226Y279886D01*
X156213Y279950D01*
X156195Y280012D01*
X156174Y280073D01*
X156150Y280133D01*
X156121Y280191D01*
X156089Y280248D01*
X156054Y280302D01*
X156016Y280354D01*
X155974Y280404D01*
X155930Y280451D01*
X155883Y280495D01*
X155833Y280537D01*
X155781Y280575D01*
X155727Y280610D01*
X155670Y280642D01*
X155612Y280671D01*
X155552Y280695D01*
X155491Y280716D01*
X155429Y280734D01*
X155365Y280747D01*
X155301Y280757D01*
X155237Y280763D01*
X155172Y280765D01*
X154099Y280765D01*
X150169Y280765D02*
X150101Y280763D01*
X150034Y280757D01*
X149967Y280748D01*
X149900Y280735D01*
X149835Y280718D01*
X149770Y280697D01*
X149707Y280673D01*
X149645Y280645D01*
X149585Y280614D01*
X149527Y280580D01*
X149471Y280542D01*
X149416Y280502D01*
X149365Y280458D01*
X149316Y280411D01*
X149269Y280362D01*
X149225Y280311D01*
X149185Y280256D01*
X149147Y280200D01*
X149113Y280142D01*
X149082Y280082D01*
X149054Y280020D01*
X149030Y279957D01*
X149009Y279892D01*
X148992Y279827D01*
X148979Y279760D01*
X148970Y279693D01*
X148964Y279626D01*
X148962Y279558D01*
X150169Y280765D02*
X150247Y280763D01*
X150325Y280757D01*
X150402Y280747D01*
X150479Y280734D01*
X150555Y280716D01*
X150630Y280695D01*
X150704Y280670D01*
X150776Y280641D01*
X150847Y280609D01*
X150916Y280573D01*
X150984Y280534D01*
X151049Y280491D01*
X151112Y280445D01*
X151173Y280396D01*
X151231Y280344D01*
X151286Y280289D01*
X151339Y280232D01*
X151388Y280172D01*
X151435Y280109D01*
X151478Y280044D01*
X151518Y279978D01*
X151555Y279909D01*
X151588Y279838D01*
X151618Y279766D01*
X151644Y279692D01*
X149364Y278620D02*
X149315Y278669D01*
X149268Y278721D01*
X149225Y278776D01*
X149184Y278833D01*
X149146Y278892D01*
X149112Y278953D01*
X149081Y279016D01*
X149053Y279080D01*
X149029Y279146D01*
X149009Y279212D01*
X148992Y279280D01*
X148979Y279349D01*
X148970Y279418D01*
X148964Y279488D01*
X148962Y279558D01*
X149364Y278620D02*
X151643Y275939D01*
X148962Y275939D01*
X146157Y275939D02*
X144548Y275939D01*
X144483Y275941D01*
X144419Y275947D01*
X144355Y275957D01*
X144291Y275970D01*
X144229Y275988D01*
X144168Y276009D01*
X144108Y276033D01*
X144050Y276062D01*
X143993Y276094D01*
X143939Y276129D01*
X143887Y276167D01*
X143837Y276209D01*
X143790Y276253D01*
X143746Y276300D01*
X143704Y276350D01*
X143666Y276402D01*
X143631Y276456D01*
X143599Y276513D01*
X143570Y276571D01*
X143546Y276631D01*
X143525Y276692D01*
X143507Y276754D01*
X143494Y276818D01*
X143484Y276882D01*
X143478Y276946D01*
X143476Y277011D01*
X143476Y277548D01*
X143478Y277613D01*
X143484Y277677D01*
X143494Y277741D01*
X143507Y277805D01*
X143525Y277867D01*
X143546Y277928D01*
X143570Y277988D01*
X143599Y278046D01*
X143631Y278103D01*
X143666Y278157D01*
X143704Y278209D01*
X143746Y278259D01*
X143790Y278306D01*
X143837Y278350D01*
X143887Y278392D01*
X143939Y278430D01*
X143993Y278465D01*
X144050Y278497D01*
X144108Y278526D01*
X144168Y278550D01*
X144229Y278571D01*
X144291Y278589D01*
X144355Y278602D01*
X144419Y278612D01*
X144483Y278618D01*
X144548Y278620D01*
X146157Y278620D01*
X146157Y280765D01*
X143476Y280765D01*
X126175Y312325D02*
X126175Y317151D01*
X124835Y317151D01*
X124764Y317149D01*
X124692Y317143D01*
X124622Y317134D01*
X124552Y317121D01*
X124482Y317104D01*
X124414Y317083D01*
X124347Y317059D01*
X124281Y317031D01*
X124217Y317000D01*
X124154Y316965D01*
X124094Y316927D01*
X124035Y316886D01*
X123979Y316842D01*
X123925Y316795D01*
X123874Y316746D01*
X123826Y316693D01*
X123780Y316638D01*
X123738Y316581D01*
X123698Y316521D01*
X123662Y316460D01*
X123629Y316396D01*
X123600Y316331D01*
X123574Y316265D01*
X123551Y316197D01*
X123532Y316128D01*
X123517Y316058D01*
X123506Y315988D01*
X123498Y315917D01*
X123494Y315846D01*
X123494Y315774D01*
X123498Y315703D01*
X123506Y315632D01*
X123517Y315562D01*
X123532Y315492D01*
X123551Y315423D01*
X123574Y315355D01*
X123600Y315289D01*
X123629Y315224D01*
X123662Y315160D01*
X123698Y315099D01*
X123738Y315039D01*
X123780Y314982D01*
X123826Y314927D01*
X123874Y314874D01*
X123925Y314825D01*
X123979Y314778D01*
X124035Y314734D01*
X124094Y314693D01*
X124154Y314655D01*
X124217Y314620D01*
X124281Y314589D01*
X124347Y314561D01*
X124414Y314537D01*
X124482Y314516D01*
X124552Y314499D01*
X124622Y314486D01*
X124692Y314477D01*
X124764Y314471D01*
X124835Y314469D01*
X124835Y314470D02*
X126175Y314470D01*
X124566Y314470D02*
X123494Y312325D01*
X120752Y313397D02*
X119680Y317151D01*
X120752Y313397D02*
X118071Y313397D01*
X118876Y312325D02*
X118876Y314470D01*
X115266Y312325D02*
X113926Y312325D01*
X113855Y312327D01*
X113783Y312333D01*
X113713Y312342D01*
X113643Y312355D01*
X113573Y312372D01*
X113505Y312393D01*
X113438Y312417D01*
X113372Y312445D01*
X113308Y312476D01*
X113245Y312511D01*
X113185Y312549D01*
X113126Y312590D01*
X113070Y312634D01*
X113016Y312681D01*
X112965Y312730D01*
X112917Y312783D01*
X112871Y312838D01*
X112829Y312895D01*
X112789Y312955D01*
X112753Y313016D01*
X112720Y313080D01*
X112691Y313145D01*
X112665Y313211D01*
X112642Y313279D01*
X112623Y313348D01*
X112608Y313418D01*
X112597Y313488D01*
X112589Y313559D01*
X112585Y313630D01*
X112585Y313702D01*
X112589Y313773D01*
X112597Y313844D01*
X112608Y313914D01*
X112623Y313984D01*
X112642Y314053D01*
X112665Y314121D01*
X112691Y314187D01*
X112720Y314252D01*
X112753Y314316D01*
X112789Y314377D01*
X112829Y314437D01*
X112871Y314494D01*
X112917Y314549D01*
X112965Y314602D01*
X113016Y314651D01*
X113070Y314698D01*
X113126Y314742D01*
X113185Y314783D01*
X113245Y314821D01*
X113308Y314856D01*
X113372Y314887D01*
X113438Y314915D01*
X113505Y314939D01*
X113573Y314960D01*
X113643Y314977D01*
X113713Y314990D01*
X113783Y314999D01*
X113855Y315005D01*
X113926Y315007D01*
X113657Y317151D02*
X115266Y317151D01*
X113657Y317151D02*
X113592Y317149D01*
X113528Y317143D01*
X113464Y317133D01*
X113400Y317120D01*
X113338Y317102D01*
X113277Y317081D01*
X113217Y317057D01*
X113159Y317028D01*
X113102Y316996D01*
X113048Y316961D01*
X112996Y316923D01*
X112946Y316881D01*
X112899Y316837D01*
X112855Y316790D01*
X112813Y316740D01*
X112775Y316688D01*
X112740Y316634D01*
X112708Y316577D01*
X112679Y316519D01*
X112655Y316459D01*
X112634Y316398D01*
X112616Y316336D01*
X112603Y316272D01*
X112593Y316208D01*
X112587Y316144D01*
X112585Y316079D01*
X112587Y316014D01*
X112593Y315950D01*
X112603Y315886D01*
X112616Y315822D01*
X112634Y315760D01*
X112655Y315699D01*
X112679Y315639D01*
X112708Y315581D01*
X112740Y315524D01*
X112775Y315470D01*
X112813Y315418D01*
X112855Y315368D01*
X112899Y315321D01*
X112946Y315277D01*
X112996Y315235D01*
X113048Y315197D01*
X113102Y315162D01*
X113159Y315130D01*
X113217Y315101D01*
X113277Y315077D01*
X113338Y315056D01*
X113400Y315038D01*
X113464Y315025D01*
X113528Y315015D01*
X113592Y315009D01*
X113657Y315007D01*
X113657Y315006D02*
X114730Y315006D01*
X140875Y275145D02*
X145701Y275145D01*
X145701Y276486D01*
X145699Y276557D01*
X145693Y276629D01*
X145684Y276699D01*
X145671Y276769D01*
X145654Y276839D01*
X145633Y276907D01*
X145609Y276974D01*
X145581Y277040D01*
X145550Y277104D01*
X145515Y277167D01*
X145477Y277227D01*
X145436Y277286D01*
X145392Y277342D01*
X145345Y277396D01*
X145296Y277447D01*
X145243Y277495D01*
X145188Y277541D01*
X145131Y277583D01*
X145071Y277623D01*
X145010Y277659D01*
X144946Y277692D01*
X144881Y277721D01*
X144815Y277747D01*
X144747Y277770D01*
X144678Y277789D01*
X144608Y277804D01*
X144538Y277815D01*
X144467Y277823D01*
X144396Y277827D01*
X144324Y277827D01*
X144253Y277823D01*
X144182Y277815D01*
X144112Y277804D01*
X144042Y277789D01*
X143973Y277770D01*
X143905Y277747D01*
X143839Y277721D01*
X143774Y277692D01*
X143710Y277659D01*
X143649Y277623D01*
X143589Y277583D01*
X143532Y277541D01*
X143477Y277495D01*
X143424Y277447D01*
X143375Y277396D01*
X143328Y277342D01*
X143284Y277286D01*
X143243Y277227D01*
X143205Y277167D01*
X143170Y277104D01*
X143139Y277040D01*
X143111Y276974D01*
X143087Y276907D01*
X143066Y276839D01*
X143049Y276769D01*
X143036Y276699D01*
X143027Y276629D01*
X143021Y276557D01*
X143019Y276486D01*
X143020Y276486D02*
X143020Y275145D01*
X143020Y276754D02*
X140875Y277826D01*
X140875Y280568D02*
X140875Y281908D01*
X140877Y281979D01*
X140883Y282051D01*
X140892Y282121D01*
X140905Y282191D01*
X140922Y282261D01*
X140943Y282329D01*
X140967Y282396D01*
X140995Y282462D01*
X141026Y282526D01*
X141061Y282589D01*
X141099Y282649D01*
X141140Y282708D01*
X141184Y282764D01*
X141231Y282818D01*
X141280Y282869D01*
X141333Y282917D01*
X141388Y282963D01*
X141445Y283005D01*
X141505Y283045D01*
X141566Y283081D01*
X141630Y283114D01*
X141695Y283143D01*
X141761Y283169D01*
X141829Y283192D01*
X141898Y283211D01*
X141968Y283226D01*
X142038Y283237D01*
X142109Y283245D01*
X142180Y283249D01*
X142252Y283249D01*
X142323Y283245D01*
X142394Y283237D01*
X142464Y283226D01*
X142534Y283211D01*
X142603Y283192D01*
X142671Y283169D01*
X142737Y283143D01*
X142802Y283114D01*
X142866Y283081D01*
X142927Y283045D01*
X142987Y283005D01*
X143044Y282963D01*
X143099Y282917D01*
X143152Y282869D01*
X143201Y282818D01*
X143248Y282764D01*
X143292Y282708D01*
X143333Y282649D01*
X143371Y282589D01*
X143406Y282526D01*
X143437Y282462D01*
X143465Y282396D01*
X143489Y282329D01*
X143510Y282261D01*
X143527Y282191D01*
X143540Y282121D01*
X143549Y282051D01*
X143555Y281979D01*
X143557Y281908D01*
X145701Y282176D02*
X145701Y280568D01*
X145701Y282176D02*
X145699Y282241D01*
X145693Y282305D01*
X145683Y282369D01*
X145670Y282433D01*
X145652Y282495D01*
X145631Y282556D01*
X145607Y282616D01*
X145578Y282674D01*
X145546Y282731D01*
X145511Y282785D01*
X145473Y282837D01*
X145431Y282887D01*
X145387Y282934D01*
X145340Y282978D01*
X145290Y283020D01*
X145238Y283058D01*
X145184Y283093D01*
X145127Y283125D01*
X145069Y283154D01*
X145009Y283178D01*
X144948Y283199D01*
X144886Y283217D01*
X144822Y283230D01*
X144758Y283240D01*
X144694Y283246D01*
X144629Y283248D01*
X144564Y283246D01*
X144500Y283240D01*
X144436Y283230D01*
X144372Y283217D01*
X144310Y283199D01*
X144249Y283178D01*
X144189Y283154D01*
X144131Y283125D01*
X144074Y283093D01*
X144020Y283058D01*
X143968Y283020D01*
X143918Y282978D01*
X143871Y282934D01*
X143827Y282887D01*
X143785Y282837D01*
X143747Y282785D01*
X143712Y282731D01*
X143680Y282674D01*
X143651Y282616D01*
X143627Y282556D01*
X143606Y282495D01*
X143588Y282433D01*
X143575Y282369D01*
X143565Y282305D01*
X143559Y282241D01*
X143557Y282176D01*
X143556Y282176D02*
X143556Y281104D01*
X142216Y286054D02*
X142287Y286056D01*
X142359Y286062D01*
X142429Y286071D01*
X142499Y286084D01*
X142569Y286101D01*
X142637Y286122D01*
X142704Y286146D01*
X142770Y286174D01*
X142834Y286205D01*
X142897Y286240D01*
X142957Y286278D01*
X143016Y286319D01*
X143072Y286363D01*
X143126Y286410D01*
X143177Y286459D01*
X143225Y286512D01*
X143271Y286567D01*
X143313Y286624D01*
X143353Y286684D01*
X143389Y286745D01*
X143422Y286809D01*
X143451Y286874D01*
X143477Y286940D01*
X143500Y287008D01*
X143519Y287077D01*
X143534Y287147D01*
X143545Y287217D01*
X143553Y287288D01*
X143557Y287359D01*
X143557Y287431D01*
X143553Y287502D01*
X143545Y287573D01*
X143534Y287643D01*
X143519Y287713D01*
X143500Y287782D01*
X143477Y287850D01*
X143451Y287916D01*
X143422Y287981D01*
X143389Y288045D01*
X143353Y288106D01*
X143313Y288166D01*
X143271Y288223D01*
X143225Y288278D01*
X143177Y288331D01*
X143126Y288380D01*
X143072Y288427D01*
X143016Y288471D01*
X142957Y288512D01*
X142897Y288550D01*
X142834Y288585D01*
X142770Y288616D01*
X142704Y288644D01*
X142637Y288668D01*
X142569Y288689D01*
X142499Y288706D01*
X142429Y288719D01*
X142359Y288728D01*
X142287Y288734D01*
X142216Y288736D01*
X142145Y288734D01*
X142073Y288728D01*
X142003Y288719D01*
X141933Y288706D01*
X141863Y288689D01*
X141795Y288668D01*
X141728Y288644D01*
X141662Y288616D01*
X141598Y288585D01*
X141535Y288550D01*
X141475Y288512D01*
X141416Y288471D01*
X141360Y288427D01*
X141306Y288380D01*
X141255Y288331D01*
X141207Y288278D01*
X141161Y288223D01*
X141119Y288166D01*
X141079Y288106D01*
X141043Y288045D01*
X141010Y287981D01*
X140981Y287916D01*
X140955Y287850D01*
X140932Y287782D01*
X140913Y287713D01*
X140898Y287643D01*
X140887Y287573D01*
X140879Y287502D01*
X140875Y287431D01*
X140875Y287359D01*
X140879Y287288D01*
X140887Y287217D01*
X140898Y287147D01*
X140913Y287077D01*
X140932Y287008D01*
X140955Y286940D01*
X140981Y286874D01*
X141010Y286809D01*
X141043Y286745D01*
X141079Y286684D01*
X141119Y286624D01*
X141161Y286567D01*
X141207Y286512D01*
X141255Y286459D01*
X141306Y286410D01*
X141360Y286363D01*
X141416Y286319D01*
X141475Y286278D01*
X141535Y286240D01*
X141598Y286205D01*
X141662Y286174D01*
X141728Y286146D01*
X141795Y286122D01*
X141863Y286101D01*
X141933Y286084D01*
X142003Y286071D01*
X142073Y286062D01*
X142145Y286056D01*
X142216Y286054D01*
X144629Y286323D02*
X144694Y286325D01*
X144758Y286331D01*
X144822Y286341D01*
X144886Y286354D01*
X144948Y286372D01*
X145009Y286393D01*
X145069Y286417D01*
X145127Y286446D01*
X145184Y286478D01*
X145238Y286513D01*
X145290Y286551D01*
X145340Y286593D01*
X145387Y286637D01*
X145431Y286684D01*
X145473Y286734D01*
X145511Y286786D01*
X145546Y286840D01*
X145578Y286897D01*
X145607Y286955D01*
X145631Y287015D01*
X145652Y287076D01*
X145670Y287138D01*
X145683Y287202D01*
X145693Y287266D01*
X145699Y287330D01*
X145701Y287395D01*
X145699Y287460D01*
X145693Y287524D01*
X145683Y287588D01*
X145670Y287652D01*
X145652Y287714D01*
X145631Y287775D01*
X145607Y287835D01*
X145578Y287893D01*
X145546Y287950D01*
X145511Y288004D01*
X145473Y288056D01*
X145431Y288106D01*
X145387Y288153D01*
X145340Y288197D01*
X145290Y288239D01*
X145238Y288277D01*
X145184Y288312D01*
X145127Y288344D01*
X145069Y288373D01*
X145009Y288397D01*
X144948Y288418D01*
X144886Y288436D01*
X144822Y288449D01*
X144758Y288459D01*
X144694Y288465D01*
X144629Y288467D01*
X144564Y288465D01*
X144500Y288459D01*
X144436Y288449D01*
X144372Y288436D01*
X144310Y288418D01*
X144249Y288397D01*
X144189Y288373D01*
X144131Y288344D01*
X144074Y288312D01*
X144020Y288277D01*
X143968Y288239D01*
X143918Y288197D01*
X143871Y288153D01*
X143827Y288106D01*
X143785Y288056D01*
X143747Y288004D01*
X143712Y287950D01*
X143680Y287893D01*
X143651Y287835D01*
X143627Y287775D01*
X143606Y287714D01*
X143588Y287652D01*
X143575Y287588D01*
X143565Y287524D01*
X143559Y287460D01*
X143557Y287395D01*
X143559Y287330D01*
X143565Y287266D01*
X143575Y287202D01*
X143588Y287138D01*
X143606Y287076D01*
X143627Y287015D01*
X143651Y286955D01*
X143680Y286897D01*
X143712Y286840D01*
X143747Y286786D01*
X143785Y286734D01*
X143827Y286684D01*
X143871Y286637D01*
X143918Y286593D01*
X143968Y286551D01*
X144020Y286513D01*
X144074Y286478D01*
X144131Y286446D01*
X144189Y286417D01*
X144249Y286393D01*
X144310Y286372D01*
X144372Y286354D01*
X144436Y286341D01*
X144500Y286331D01*
X144564Y286325D01*
X144629Y286323D01*
X135541Y284035D02*
X130715Y284035D01*
X135541Y284035D02*
X135541Y285376D01*
X135539Y285447D01*
X135533Y285519D01*
X135524Y285589D01*
X135511Y285659D01*
X135494Y285729D01*
X135473Y285797D01*
X135449Y285864D01*
X135421Y285930D01*
X135390Y285994D01*
X135355Y286057D01*
X135317Y286117D01*
X135276Y286176D01*
X135232Y286232D01*
X135185Y286286D01*
X135136Y286337D01*
X135083Y286385D01*
X135028Y286431D01*
X134971Y286473D01*
X134911Y286513D01*
X134850Y286549D01*
X134786Y286582D01*
X134721Y286611D01*
X134655Y286637D01*
X134587Y286660D01*
X134518Y286679D01*
X134448Y286694D01*
X134378Y286705D01*
X134307Y286713D01*
X134236Y286717D01*
X134164Y286717D01*
X134093Y286713D01*
X134022Y286705D01*
X133952Y286694D01*
X133882Y286679D01*
X133813Y286660D01*
X133745Y286637D01*
X133679Y286611D01*
X133614Y286582D01*
X133550Y286549D01*
X133489Y286513D01*
X133429Y286473D01*
X133372Y286431D01*
X133317Y286385D01*
X133264Y286337D01*
X133215Y286286D01*
X133168Y286232D01*
X133124Y286176D01*
X133083Y286117D01*
X133045Y286057D01*
X133010Y285994D01*
X132979Y285930D01*
X132951Y285864D01*
X132927Y285797D01*
X132906Y285729D01*
X132889Y285659D01*
X132876Y285589D01*
X132867Y285519D01*
X132861Y285447D01*
X132859Y285376D01*
X132860Y285376D02*
X132860Y284035D01*
X132860Y285644D02*
X130715Y286716D01*
X131787Y289458D02*
X135541Y290530D01*
X131787Y289458D02*
X131787Y292139D01*
X130715Y291334D02*
X132860Y291334D01*
X131787Y294944D02*
X135541Y296016D01*
X131787Y294944D02*
X131787Y297625D01*
X132860Y296821D02*
X130715Y296821D01*
D11*
X70500Y303500D02*
X70500Y309500D01*
X70500Y303500D02*
X62500Y303500D01*
X70500Y325500D02*
X70500Y331500D01*
X62500Y331500D01*
D10*
X67387Y299014D02*
X67387Y296870D01*
X67387Y299014D02*
X67385Y299085D01*
X67379Y299157D01*
X67370Y299227D01*
X67357Y299297D01*
X67340Y299367D01*
X67319Y299435D01*
X67295Y299502D01*
X67267Y299568D01*
X67236Y299632D01*
X67201Y299695D01*
X67163Y299755D01*
X67122Y299814D01*
X67078Y299870D01*
X67031Y299924D01*
X66982Y299975D01*
X66929Y300023D01*
X66874Y300069D01*
X66817Y300111D01*
X66757Y300151D01*
X66696Y300187D01*
X66632Y300220D01*
X66567Y300249D01*
X66501Y300275D01*
X66433Y300298D01*
X66364Y300317D01*
X66294Y300332D01*
X66224Y300343D01*
X66153Y300351D01*
X66082Y300355D01*
X66010Y300355D01*
X65939Y300351D01*
X65868Y300343D01*
X65798Y300332D01*
X65728Y300317D01*
X65659Y300298D01*
X65591Y300275D01*
X65525Y300249D01*
X65460Y300220D01*
X65396Y300187D01*
X65335Y300151D01*
X65275Y300111D01*
X65218Y300069D01*
X65163Y300023D01*
X65110Y299975D01*
X65061Y299924D01*
X65014Y299870D01*
X64970Y299814D01*
X64929Y299755D01*
X64891Y299695D01*
X64856Y299632D01*
X64825Y299568D01*
X64797Y299502D01*
X64773Y299435D01*
X64752Y299367D01*
X64735Y299297D01*
X64722Y299227D01*
X64713Y299157D01*
X64707Y299085D01*
X64705Y299014D01*
X64706Y299014D02*
X64706Y296870D01*
X64705Y296870D02*
X64707Y296799D01*
X64713Y296727D01*
X64722Y296657D01*
X64735Y296587D01*
X64752Y296517D01*
X64773Y296449D01*
X64797Y296382D01*
X64825Y296316D01*
X64856Y296252D01*
X64891Y296189D01*
X64929Y296129D01*
X64970Y296070D01*
X65014Y296014D01*
X65061Y295960D01*
X65110Y295909D01*
X65163Y295861D01*
X65218Y295815D01*
X65275Y295773D01*
X65335Y295733D01*
X65396Y295697D01*
X65460Y295664D01*
X65525Y295635D01*
X65591Y295609D01*
X65659Y295586D01*
X65728Y295567D01*
X65798Y295552D01*
X65868Y295541D01*
X65939Y295533D01*
X66010Y295529D01*
X66082Y295529D01*
X66153Y295533D01*
X66224Y295541D01*
X66294Y295552D01*
X66364Y295567D01*
X66433Y295586D01*
X66501Y295609D01*
X66567Y295635D01*
X66632Y295664D01*
X66696Y295697D01*
X66757Y295733D01*
X66817Y295773D01*
X66874Y295815D01*
X66929Y295861D01*
X66982Y295909D01*
X67031Y295960D01*
X67078Y296014D01*
X67122Y296070D01*
X67163Y296129D01*
X67201Y296189D01*
X67236Y296252D01*
X67267Y296316D01*
X67295Y296382D01*
X67319Y296449D01*
X67340Y296517D01*
X67357Y296587D01*
X67370Y296657D01*
X67379Y296727D01*
X67385Y296799D01*
X67387Y296870D01*
X65242Y296601D02*
X64169Y295529D01*
X59613Y299148D02*
X59615Y299216D01*
X59621Y299283D01*
X59630Y299350D01*
X59643Y299417D01*
X59660Y299482D01*
X59681Y299547D01*
X59705Y299610D01*
X59733Y299672D01*
X59764Y299732D01*
X59798Y299790D01*
X59836Y299846D01*
X59876Y299901D01*
X59920Y299952D01*
X59967Y300001D01*
X60016Y300048D01*
X60067Y300092D01*
X60122Y300132D01*
X60178Y300170D01*
X60236Y300204D01*
X60296Y300235D01*
X60358Y300263D01*
X60421Y300287D01*
X60486Y300308D01*
X60551Y300325D01*
X60618Y300338D01*
X60685Y300347D01*
X60752Y300353D01*
X60820Y300355D01*
X60898Y300353D01*
X60976Y300347D01*
X61053Y300337D01*
X61130Y300324D01*
X61206Y300306D01*
X61281Y300285D01*
X61355Y300260D01*
X61427Y300231D01*
X61498Y300199D01*
X61567Y300163D01*
X61635Y300124D01*
X61700Y300081D01*
X61763Y300035D01*
X61824Y299986D01*
X61882Y299934D01*
X61937Y299879D01*
X61990Y299822D01*
X62039Y299762D01*
X62086Y299699D01*
X62129Y299634D01*
X62169Y299568D01*
X62206Y299499D01*
X62239Y299428D01*
X62269Y299356D01*
X62295Y299282D01*
X60015Y298210D02*
X59966Y298259D01*
X59919Y298311D01*
X59876Y298366D01*
X59835Y298423D01*
X59797Y298482D01*
X59763Y298543D01*
X59732Y298606D01*
X59704Y298670D01*
X59680Y298736D01*
X59660Y298802D01*
X59643Y298870D01*
X59630Y298939D01*
X59621Y299008D01*
X59615Y299078D01*
X59613Y299148D01*
X60016Y298210D02*
X62294Y295529D01*
X59613Y295529D01*
X54261Y310705D02*
X49435Y310705D01*
X54261Y310705D02*
X54261Y312046D01*
X54259Y312117D01*
X54253Y312189D01*
X54244Y312259D01*
X54231Y312329D01*
X54214Y312399D01*
X54193Y312467D01*
X54169Y312534D01*
X54141Y312600D01*
X54110Y312664D01*
X54075Y312727D01*
X54037Y312787D01*
X53996Y312846D01*
X53952Y312902D01*
X53905Y312956D01*
X53856Y313007D01*
X53803Y313055D01*
X53748Y313101D01*
X53691Y313143D01*
X53631Y313183D01*
X53570Y313219D01*
X53506Y313252D01*
X53441Y313281D01*
X53375Y313307D01*
X53307Y313330D01*
X53238Y313349D01*
X53168Y313364D01*
X53098Y313375D01*
X53027Y313383D01*
X52956Y313387D01*
X52884Y313387D01*
X52813Y313383D01*
X52742Y313375D01*
X52672Y313364D01*
X52602Y313349D01*
X52533Y313330D01*
X52465Y313307D01*
X52399Y313281D01*
X52334Y313252D01*
X52270Y313219D01*
X52209Y313183D01*
X52149Y313143D01*
X52092Y313101D01*
X52037Y313055D01*
X51984Y313007D01*
X51935Y312956D01*
X51888Y312902D01*
X51844Y312846D01*
X51803Y312787D01*
X51765Y312727D01*
X51730Y312664D01*
X51699Y312600D01*
X51671Y312534D01*
X51647Y312467D01*
X51626Y312399D01*
X51609Y312329D01*
X51596Y312259D01*
X51587Y312189D01*
X51581Y312117D01*
X51579Y312046D01*
X51580Y312046D02*
X51580Y310705D01*
X51580Y312314D02*
X49435Y313386D01*
X50507Y316128D02*
X54261Y317200D01*
X50507Y316128D02*
X50507Y318809D01*
X49435Y318004D02*
X51580Y318004D01*
X53725Y321614D02*
X54261Y321614D01*
X54261Y324295D01*
X49435Y322955D01*
X76645Y288385D02*
X76645Y283559D01*
X76645Y288385D02*
X75305Y288385D01*
X75234Y288383D01*
X75162Y288377D01*
X75092Y288368D01*
X75022Y288355D01*
X74952Y288338D01*
X74884Y288317D01*
X74817Y288293D01*
X74751Y288265D01*
X74687Y288234D01*
X74624Y288199D01*
X74564Y288161D01*
X74505Y288120D01*
X74449Y288076D01*
X74395Y288029D01*
X74344Y287980D01*
X74296Y287927D01*
X74250Y287872D01*
X74208Y287815D01*
X74168Y287755D01*
X74132Y287694D01*
X74099Y287630D01*
X74070Y287565D01*
X74044Y287499D01*
X74021Y287431D01*
X74002Y287362D01*
X73987Y287292D01*
X73976Y287222D01*
X73968Y287151D01*
X73964Y287080D01*
X73964Y287008D01*
X73968Y286937D01*
X73976Y286866D01*
X73987Y286796D01*
X74002Y286726D01*
X74021Y286657D01*
X74044Y286589D01*
X74070Y286523D01*
X74099Y286458D01*
X74132Y286394D01*
X74168Y286333D01*
X74208Y286273D01*
X74250Y286216D01*
X74296Y286161D01*
X74344Y286108D01*
X74395Y286059D01*
X74449Y286012D01*
X74505Y285968D01*
X74564Y285927D01*
X74624Y285889D01*
X74687Y285854D01*
X74751Y285823D01*
X74817Y285795D01*
X74884Y285771D01*
X74952Y285750D01*
X75022Y285733D01*
X75092Y285720D01*
X75162Y285711D01*
X75234Y285705D01*
X75305Y285703D01*
X75305Y285704D02*
X76645Y285704D01*
X75036Y285704D02*
X73964Y283559D01*
X71222Y284631D02*
X70150Y288385D01*
X71222Y284631D02*
X68541Y284631D01*
X69346Y283559D02*
X69346Y285704D01*
X65737Y284900D02*
X65735Y284971D01*
X65729Y285043D01*
X65720Y285113D01*
X65707Y285183D01*
X65690Y285253D01*
X65669Y285321D01*
X65645Y285388D01*
X65617Y285454D01*
X65586Y285518D01*
X65551Y285581D01*
X65513Y285641D01*
X65472Y285700D01*
X65428Y285756D01*
X65381Y285810D01*
X65332Y285861D01*
X65279Y285909D01*
X65224Y285955D01*
X65167Y285997D01*
X65107Y286037D01*
X65046Y286073D01*
X64982Y286106D01*
X64917Y286135D01*
X64851Y286161D01*
X64783Y286184D01*
X64714Y286203D01*
X64644Y286218D01*
X64574Y286229D01*
X64503Y286237D01*
X64432Y286241D01*
X64360Y286241D01*
X64289Y286237D01*
X64218Y286229D01*
X64148Y286218D01*
X64078Y286203D01*
X64009Y286184D01*
X63941Y286161D01*
X63875Y286135D01*
X63810Y286106D01*
X63746Y286073D01*
X63685Y286037D01*
X63625Y285997D01*
X63568Y285955D01*
X63513Y285909D01*
X63460Y285861D01*
X63411Y285810D01*
X63364Y285756D01*
X63320Y285700D01*
X63279Y285641D01*
X63241Y285581D01*
X63206Y285518D01*
X63175Y285454D01*
X63147Y285388D01*
X63123Y285321D01*
X63102Y285253D01*
X63085Y285183D01*
X63072Y285113D01*
X63063Y285043D01*
X63057Y284971D01*
X63055Y284900D01*
X63057Y284829D01*
X63063Y284757D01*
X63072Y284687D01*
X63085Y284617D01*
X63102Y284547D01*
X63123Y284479D01*
X63147Y284412D01*
X63175Y284346D01*
X63206Y284282D01*
X63241Y284219D01*
X63279Y284159D01*
X63320Y284100D01*
X63364Y284044D01*
X63411Y283990D01*
X63460Y283939D01*
X63513Y283891D01*
X63568Y283845D01*
X63625Y283803D01*
X63685Y283763D01*
X63746Y283727D01*
X63810Y283694D01*
X63875Y283665D01*
X63941Y283639D01*
X64009Y283616D01*
X64078Y283597D01*
X64148Y283582D01*
X64218Y283571D01*
X64289Y283563D01*
X64360Y283559D01*
X64432Y283559D01*
X64503Y283563D01*
X64574Y283571D01*
X64644Y283582D01*
X64714Y283597D01*
X64783Y283616D01*
X64851Y283639D01*
X64917Y283665D01*
X64982Y283694D01*
X65046Y283727D01*
X65107Y283763D01*
X65167Y283803D01*
X65224Y283845D01*
X65279Y283891D01*
X65332Y283939D01*
X65381Y283990D01*
X65428Y284044D01*
X65472Y284100D01*
X65513Y284159D01*
X65551Y284219D01*
X65586Y284282D01*
X65617Y284346D01*
X65645Y284412D01*
X65669Y284479D01*
X65690Y284547D01*
X65707Y284617D01*
X65720Y284687D01*
X65729Y284757D01*
X65735Y284829D01*
X65737Y284900D01*
X65468Y287313D02*
X65466Y287378D01*
X65460Y287442D01*
X65450Y287506D01*
X65437Y287570D01*
X65419Y287632D01*
X65398Y287693D01*
X65374Y287753D01*
X65345Y287811D01*
X65313Y287868D01*
X65278Y287922D01*
X65240Y287974D01*
X65198Y288024D01*
X65154Y288071D01*
X65107Y288115D01*
X65057Y288157D01*
X65005Y288195D01*
X64951Y288230D01*
X64894Y288262D01*
X64836Y288291D01*
X64776Y288315D01*
X64715Y288336D01*
X64653Y288354D01*
X64589Y288367D01*
X64525Y288377D01*
X64461Y288383D01*
X64396Y288385D01*
X64331Y288383D01*
X64267Y288377D01*
X64203Y288367D01*
X64139Y288354D01*
X64077Y288336D01*
X64016Y288315D01*
X63956Y288291D01*
X63898Y288262D01*
X63841Y288230D01*
X63787Y288195D01*
X63735Y288157D01*
X63685Y288115D01*
X63638Y288071D01*
X63594Y288024D01*
X63552Y287974D01*
X63514Y287922D01*
X63479Y287868D01*
X63447Y287811D01*
X63418Y287753D01*
X63394Y287693D01*
X63373Y287632D01*
X63355Y287570D01*
X63342Y287506D01*
X63332Y287442D01*
X63326Y287378D01*
X63324Y287313D01*
X63326Y287248D01*
X63332Y287184D01*
X63342Y287120D01*
X63355Y287056D01*
X63373Y286994D01*
X63394Y286933D01*
X63418Y286873D01*
X63447Y286815D01*
X63479Y286758D01*
X63514Y286704D01*
X63552Y286652D01*
X63594Y286602D01*
X63638Y286555D01*
X63685Y286511D01*
X63735Y286469D01*
X63787Y286431D01*
X63841Y286396D01*
X63898Y286364D01*
X63956Y286335D01*
X64016Y286311D01*
X64077Y286290D01*
X64139Y286272D01*
X64203Y286259D01*
X64267Y286249D01*
X64331Y286243D01*
X64396Y286241D01*
X64461Y286243D01*
X64525Y286249D01*
X64589Y286259D01*
X64653Y286272D01*
X64715Y286290D01*
X64776Y286311D01*
X64836Y286335D01*
X64894Y286364D01*
X64951Y286396D01*
X65005Y286431D01*
X65057Y286469D01*
X65107Y286511D01*
X65154Y286555D01*
X65198Y286602D01*
X65240Y286652D01*
X65278Y286704D01*
X65313Y286758D01*
X65345Y286815D01*
X65374Y286873D01*
X65398Y286933D01*
X65419Y286994D01*
X65437Y287056D01*
X65450Y287120D01*
X65460Y287184D01*
X65466Y287248D01*
X65468Y287313D01*
X121079Y321659D02*
X122152Y321659D01*
X122217Y321661D01*
X122281Y321667D01*
X122345Y321677D01*
X122409Y321690D01*
X122471Y321708D01*
X122532Y321729D01*
X122592Y321753D01*
X122650Y321782D01*
X122707Y321814D01*
X122761Y321849D01*
X122813Y321887D01*
X122863Y321929D01*
X122910Y321973D01*
X122954Y322020D01*
X122996Y322070D01*
X123034Y322122D01*
X123069Y322176D01*
X123101Y322233D01*
X123130Y322291D01*
X123154Y322351D01*
X123175Y322412D01*
X123193Y322474D01*
X123206Y322538D01*
X123216Y322602D01*
X123222Y322666D01*
X123224Y322731D01*
X123224Y325413D01*
X123222Y325478D01*
X123216Y325542D01*
X123206Y325606D01*
X123193Y325670D01*
X123175Y325732D01*
X123154Y325793D01*
X123130Y325853D01*
X123101Y325911D01*
X123069Y325968D01*
X123034Y326022D01*
X122996Y326074D01*
X122954Y326124D01*
X122910Y326171D01*
X122863Y326215D01*
X122813Y326257D01*
X122761Y326295D01*
X122707Y326330D01*
X122650Y326362D01*
X122592Y326391D01*
X122532Y326415D01*
X122471Y326436D01*
X122409Y326454D01*
X122345Y326467D01*
X122281Y326477D01*
X122217Y326483D01*
X122152Y326485D01*
X121079Y326485D01*
X118623Y325413D02*
X117283Y326485D01*
X117283Y321659D01*
X118623Y321659D02*
X115942Y321659D01*
X113137Y325413D02*
X111797Y326485D01*
X111797Y321659D01*
X113137Y321659D02*
X110456Y321659D01*
D16*
X130302Y167640D03*
D11*
X101600Y173506D02*
X101600Y182094D01*
X127000Y182094D02*
X127000Y173506D01*
X116984Y184888D02*
X111616Y184888D01*
D10*
X131445Y201366D02*
X131445Y204851D01*
X131445Y201366D02*
X131443Y201295D01*
X131437Y201223D01*
X131428Y201153D01*
X131415Y201083D01*
X131398Y201013D01*
X131377Y200945D01*
X131353Y200878D01*
X131325Y200812D01*
X131294Y200748D01*
X131259Y200685D01*
X131221Y200625D01*
X131180Y200566D01*
X131136Y200510D01*
X131089Y200456D01*
X131040Y200405D01*
X130987Y200357D01*
X130932Y200311D01*
X130875Y200269D01*
X130815Y200229D01*
X130754Y200193D01*
X130690Y200160D01*
X130625Y200131D01*
X130559Y200105D01*
X130491Y200082D01*
X130422Y200063D01*
X130352Y200048D01*
X130282Y200037D01*
X130211Y200029D01*
X130140Y200025D01*
X130068Y200025D01*
X129997Y200029D01*
X129926Y200037D01*
X129856Y200048D01*
X129786Y200063D01*
X129717Y200082D01*
X129649Y200105D01*
X129583Y200131D01*
X129518Y200160D01*
X129454Y200193D01*
X129393Y200229D01*
X129333Y200269D01*
X129276Y200311D01*
X129221Y200357D01*
X129168Y200405D01*
X129119Y200456D01*
X129072Y200510D01*
X129028Y200566D01*
X128987Y200625D01*
X128949Y200685D01*
X128914Y200748D01*
X128883Y200812D01*
X128855Y200878D01*
X128831Y200945D01*
X128810Y201013D01*
X128793Y201083D01*
X128780Y201153D01*
X128771Y201223D01*
X128765Y201295D01*
X128763Y201366D01*
X128764Y201366D02*
X128764Y204851D01*
X125776Y204851D02*
X125776Y204315D01*
X125776Y204851D02*
X123095Y204851D01*
X124435Y200025D01*
M02*
