G04 EAGLE Gerber X2 export*
G75*
%MOMM*%
%FSLAX34Y34*%
%LPD*%
%AMOC8*
5,1,8,0,0,1.08239X$1,22.5*%
G01*
%ADD10C,0.127000*%
%ADD11C,0.152400*%
%ADD12C,0.101600*%
%ADD13C,0.100000*%
%ADD14C,0.300000*%
%ADD15C,0.076200*%
%ADD16C,0.203200*%
%ADD17C,0.200000*%


D10*
X39703Y201009D02*
X38630Y201009D01*
X38565Y201011D01*
X38501Y201017D01*
X38437Y201027D01*
X38373Y201040D01*
X38311Y201058D01*
X38250Y201079D01*
X38190Y201103D01*
X38132Y201132D01*
X38075Y201164D01*
X38021Y201199D01*
X37969Y201237D01*
X37919Y201279D01*
X37872Y201323D01*
X37828Y201370D01*
X37786Y201420D01*
X37748Y201472D01*
X37713Y201526D01*
X37681Y201583D01*
X37652Y201641D01*
X37628Y201701D01*
X37607Y201762D01*
X37589Y201824D01*
X37576Y201888D01*
X37566Y201952D01*
X37560Y202016D01*
X37558Y202081D01*
X37558Y204763D01*
X37560Y204828D01*
X37566Y204892D01*
X37576Y204956D01*
X37589Y205020D01*
X37607Y205082D01*
X37628Y205143D01*
X37652Y205203D01*
X37681Y205261D01*
X37713Y205318D01*
X37748Y205372D01*
X37786Y205424D01*
X37828Y205474D01*
X37872Y205521D01*
X37919Y205565D01*
X37969Y205607D01*
X38021Y205645D01*
X38075Y205680D01*
X38132Y205712D01*
X38190Y205741D01*
X38250Y205765D01*
X38311Y205786D01*
X38373Y205804D01*
X38437Y205817D01*
X38501Y205827D01*
X38565Y205833D01*
X38630Y205835D01*
X39703Y205835D01*
X42159Y201009D02*
X43499Y201009D01*
X43570Y201011D01*
X43642Y201017D01*
X43712Y201026D01*
X43782Y201039D01*
X43852Y201056D01*
X43920Y201077D01*
X43987Y201101D01*
X44053Y201129D01*
X44117Y201160D01*
X44180Y201195D01*
X44240Y201233D01*
X44299Y201274D01*
X44355Y201318D01*
X44409Y201365D01*
X44460Y201414D01*
X44508Y201467D01*
X44554Y201522D01*
X44596Y201579D01*
X44636Y201639D01*
X44672Y201700D01*
X44705Y201764D01*
X44734Y201829D01*
X44760Y201895D01*
X44783Y201963D01*
X44802Y202032D01*
X44817Y202102D01*
X44828Y202172D01*
X44836Y202243D01*
X44840Y202314D01*
X44840Y202386D01*
X44836Y202457D01*
X44828Y202528D01*
X44817Y202598D01*
X44802Y202668D01*
X44783Y202737D01*
X44760Y202805D01*
X44734Y202871D01*
X44705Y202936D01*
X44672Y203000D01*
X44636Y203061D01*
X44596Y203121D01*
X44554Y203178D01*
X44508Y203233D01*
X44460Y203286D01*
X44409Y203335D01*
X44355Y203382D01*
X44299Y203426D01*
X44240Y203467D01*
X44180Y203505D01*
X44117Y203540D01*
X44053Y203571D01*
X43987Y203599D01*
X43920Y203623D01*
X43852Y203644D01*
X43782Y203661D01*
X43712Y203674D01*
X43642Y203683D01*
X43570Y203689D01*
X43499Y203691D01*
X43767Y205835D02*
X42159Y205835D01*
X43767Y205835D02*
X43832Y205833D01*
X43896Y205827D01*
X43960Y205817D01*
X44024Y205804D01*
X44086Y205786D01*
X44147Y205765D01*
X44207Y205741D01*
X44265Y205712D01*
X44322Y205680D01*
X44376Y205645D01*
X44428Y205607D01*
X44478Y205565D01*
X44525Y205521D01*
X44569Y205474D01*
X44611Y205424D01*
X44649Y205372D01*
X44684Y205318D01*
X44716Y205261D01*
X44745Y205203D01*
X44769Y205143D01*
X44790Y205082D01*
X44808Y205020D01*
X44821Y204956D01*
X44831Y204892D01*
X44837Y204828D01*
X44839Y204763D01*
X44837Y204698D01*
X44831Y204634D01*
X44821Y204570D01*
X44808Y204506D01*
X44790Y204444D01*
X44769Y204383D01*
X44745Y204323D01*
X44716Y204265D01*
X44684Y204208D01*
X44649Y204154D01*
X44611Y204102D01*
X44569Y204052D01*
X44525Y204005D01*
X44478Y203961D01*
X44428Y203919D01*
X44376Y203881D01*
X44322Y203846D01*
X44265Y203814D01*
X44207Y203785D01*
X44147Y203761D01*
X44086Y203740D01*
X44024Y203722D01*
X43960Y203709D01*
X43896Y203699D01*
X43832Y203693D01*
X43767Y203691D01*
X43767Y203690D02*
X42695Y203690D01*
X47645Y203690D02*
X49254Y203690D01*
X49319Y203688D01*
X49383Y203682D01*
X49447Y203672D01*
X49511Y203659D01*
X49573Y203641D01*
X49634Y203620D01*
X49694Y203596D01*
X49752Y203567D01*
X49809Y203535D01*
X49863Y203500D01*
X49915Y203462D01*
X49965Y203420D01*
X50012Y203376D01*
X50056Y203329D01*
X50098Y203279D01*
X50136Y203227D01*
X50171Y203173D01*
X50203Y203116D01*
X50232Y203058D01*
X50256Y202998D01*
X50277Y202937D01*
X50295Y202875D01*
X50308Y202811D01*
X50318Y202747D01*
X50324Y202683D01*
X50326Y202618D01*
X50326Y202350D01*
X50327Y202350D02*
X50325Y202279D01*
X50319Y202207D01*
X50310Y202137D01*
X50297Y202067D01*
X50280Y201997D01*
X50259Y201929D01*
X50235Y201862D01*
X50207Y201796D01*
X50176Y201732D01*
X50141Y201669D01*
X50103Y201609D01*
X50062Y201550D01*
X50018Y201494D01*
X49971Y201440D01*
X49922Y201389D01*
X49869Y201341D01*
X49814Y201295D01*
X49757Y201253D01*
X49697Y201213D01*
X49636Y201177D01*
X49572Y201144D01*
X49507Y201115D01*
X49441Y201089D01*
X49373Y201066D01*
X49304Y201047D01*
X49234Y201032D01*
X49164Y201021D01*
X49093Y201013D01*
X49022Y201009D01*
X48950Y201009D01*
X48879Y201013D01*
X48808Y201021D01*
X48738Y201032D01*
X48668Y201047D01*
X48599Y201066D01*
X48531Y201089D01*
X48465Y201115D01*
X48400Y201144D01*
X48336Y201177D01*
X48275Y201213D01*
X48215Y201253D01*
X48158Y201295D01*
X48103Y201341D01*
X48050Y201389D01*
X48001Y201440D01*
X47954Y201494D01*
X47910Y201550D01*
X47869Y201609D01*
X47831Y201669D01*
X47796Y201732D01*
X47765Y201796D01*
X47737Y201862D01*
X47713Y201929D01*
X47692Y201997D01*
X47675Y202067D01*
X47662Y202137D01*
X47653Y202207D01*
X47647Y202279D01*
X47645Y202350D01*
X47645Y203690D01*
X47647Y203781D01*
X47653Y203872D01*
X47662Y203962D01*
X47676Y204053D01*
X47693Y204142D01*
X47714Y204230D01*
X47739Y204318D01*
X47768Y204405D01*
X47800Y204490D01*
X47835Y204574D01*
X47875Y204656D01*
X47917Y204736D01*
X47963Y204815D01*
X48013Y204891D01*
X48065Y204965D01*
X48121Y205038D01*
X48180Y205107D01*
X48241Y205174D01*
X48306Y205239D01*
X48373Y205300D01*
X48442Y205359D01*
X48514Y205415D01*
X48589Y205467D01*
X48665Y205517D01*
X48744Y205563D01*
X48824Y205605D01*
X48906Y205645D01*
X48990Y205680D01*
X49075Y205712D01*
X49162Y205741D01*
X49249Y205766D01*
X49338Y205787D01*
X49427Y205804D01*
X49518Y205818D01*
X49608Y205827D01*
X49699Y205833D01*
X49790Y205835D01*
X40211Y252349D02*
X39138Y252349D01*
X39073Y252351D01*
X39009Y252357D01*
X38945Y252367D01*
X38881Y252380D01*
X38819Y252398D01*
X38758Y252419D01*
X38698Y252443D01*
X38640Y252472D01*
X38583Y252504D01*
X38529Y252539D01*
X38477Y252577D01*
X38427Y252619D01*
X38380Y252663D01*
X38336Y252710D01*
X38294Y252760D01*
X38256Y252812D01*
X38221Y252866D01*
X38189Y252923D01*
X38160Y252981D01*
X38136Y253041D01*
X38115Y253102D01*
X38097Y253164D01*
X38084Y253228D01*
X38074Y253292D01*
X38068Y253356D01*
X38066Y253421D01*
X38066Y256103D01*
X38068Y256168D01*
X38074Y256232D01*
X38084Y256296D01*
X38097Y256360D01*
X38115Y256422D01*
X38136Y256483D01*
X38160Y256543D01*
X38189Y256601D01*
X38221Y256658D01*
X38256Y256712D01*
X38294Y256764D01*
X38336Y256814D01*
X38380Y256861D01*
X38427Y256905D01*
X38477Y256947D01*
X38529Y256985D01*
X38583Y257020D01*
X38640Y257052D01*
X38698Y257081D01*
X38758Y257105D01*
X38819Y257126D01*
X38881Y257144D01*
X38945Y257157D01*
X39009Y257167D01*
X39073Y257173D01*
X39138Y257175D01*
X40211Y257175D01*
X42667Y252349D02*
X44007Y252349D01*
X44078Y252351D01*
X44150Y252357D01*
X44220Y252366D01*
X44290Y252379D01*
X44360Y252396D01*
X44428Y252417D01*
X44495Y252441D01*
X44561Y252469D01*
X44625Y252500D01*
X44688Y252535D01*
X44748Y252573D01*
X44807Y252614D01*
X44863Y252658D01*
X44917Y252705D01*
X44968Y252754D01*
X45016Y252807D01*
X45062Y252862D01*
X45104Y252919D01*
X45144Y252979D01*
X45180Y253040D01*
X45213Y253104D01*
X45242Y253169D01*
X45268Y253235D01*
X45291Y253303D01*
X45310Y253372D01*
X45325Y253442D01*
X45336Y253512D01*
X45344Y253583D01*
X45348Y253654D01*
X45348Y253726D01*
X45344Y253797D01*
X45336Y253868D01*
X45325Y253938D01*
X45310Y254008D01*
X45291Y254077D01*
X45268Y254145D01*
X45242Y254211D01*
X45213Y254276D01*
X45180Y254340D01*
X45144Y254401D01*
X45104Y254461D01*
X45062Y254518D01*
X45016Y254573D01*
X44968Y254626D01*
X44917Y254675D01*
X44863Y254722D01*
X44807Y254766D01*
X44748Y254807D01*
X44688Y254845D01*
X44625Y254880D01*
X44561Y254911D01*
X44495Y254939D01*
X44428Y254963D01*
X44360Y254984D01*
X44290Y255001D01*
X44220Y255014D01*
X44150Y255023D01*
X44078Y255029D01*
X44007Y255031D01*
X44275Y257175D02*
X42667Y257175D01*
X44275Y257175D02*
X44340Y257173D01*
X44404Y257167D01*
X44468Y257157D01*
X44532Y257144D01*
X44594Y257126D01*
X44655Y257105D01*
X44715Y257081D01*
X44773Y257052D01*
X44830Y257020D01*
X44884Y256985D01*
X44936Y256947D01*
X44986Y256905D01*
X45033Y256861D01*
X45077Y256814D01*
X45119Y256764D01*
X45157Y256712D01*
X45192Y256658D01*
X45224Y256601D01*
X45253Y256543D01*
X45277Y256483D01*
X45298Y256422D01*
X45316Y256360D01*
X45329Y256296D01*
X45339Y256232D01*
X45345Y256168D01*
X45347Y256103D01*
X45345Y256038D01*
X45339Y255974D01*
X45329Y255910D01*
X45316Y255846D01*
X45298Y255784D01*
X45277Y255723D01*
X45253Y255663D01*
X45224Y255605D01*
X45192Y255548D01*
X45157Y255494D01*
X45119Y255442D01*
X45077Y255392D01*
X45033Y255345D01*
X44986Y255301D01*
X44936Y255259D01*
X44884Y255221D01*
X44830Y255186D01*
X44773Y255154D01*
X44715Y255125D01*
X44655Y255101D01*
X44594Y255080D01*
X44532Y255062D01*
X44468Y255049D01*
X44404Y255039D01*
X44340Y255033D01*
X44275Y255031D01*
X44275Y255030D02*
X43203Y255030D01*
X48153Y256639D02*
X48153Y257175D01*
X50834Y257175D01*
X49494Y252349D01*
X144548Y240665D02*
X145621Y240665D01*
X144548Y240665D02*
X144483Y240667D01*
X144419Y240673D01*
X144355Y240683D01*
X144291Y240696D01*
X144229Y240714D01*
X144168Y240735D01*
X144108Y240759D01*
X144050Y240788D01*
X143993Y240820D01*
X143939Y240855D01*
X143887Y240893D01*
X143837Y240935D01*
X143790Y240979D01*
X143746Y241026D01*
X143704Y241076D01*
X143666Y241128D01*
X143631Y241182D01*
X143599Y241239D01*
X143570Y241297D01*
X143546Y241357D01*
X143525Y241418D01*
X143507Y241480D01*
X143494Y241544D01*
X143484Y241608D01*
X143478Y241672D01*
X143476Y241737D01*
X143476Y244419D01*
X143478Y244484D01*
X143484Y244548D01*
X143494Y244612D01*
X143507Y244676D01*
X143525Y244738D01*
X143546Y244799D01*
X143570Y244859D01*
X143599Y244917D01*
X143631Y244974D01*
X143666Y245028D01*
X143704Y245080D01*
X143746Y245130D01*
X143790Y245177D01*
X143837Y245221D01*
X143887Y245263D01*
X143939Y245301D01*
X143993Y245336D01*
X144050Y245368D01*
X144108Y245397D01*
X144168Y245421D01*
X144229Y245442D01*
X144291Y245460D01*
X144355Y245473D01*
X144419Y245483D01*
X144483Y245489D01*
X144548Y245491D01*
X145621Y245491D01*
X149149Y245491D02*
X148077Y241737D01*
X150758Y241737D01*
X149953Y240665D02*
X149953Y242810D01*
X153563Y243078D02*
X153565Y243198D01*
X153570Y243318D01*
X153579Y243438D01*
X153592Y243558D01*
X153608Y243677D01*
X153628Y243796D01*
X153652Y243914D01*
X153679Y244031D01*
X153709Y244147D01*
X153743Y244262D01*
X153781Y244377D01*
X153822Y244490D01*
X153866Y244601D01*
X153914Y244712D01*
X153965Y244821D01*
X153966Y244821D02*
X153987Y244878D01*
X154013Y244934D01*
X154041Y244989D01*
X154073Y245041D01*
X154109Y245092D01*
X154147Y245140D01*
X154188Y245186D01*
X154232Y245229D01*
X154278Y245269D01*
X154327Y245306D01*
X154379Y245340D01*
X154432Y245371D01*
X154487Y245399D01*
X154543Y245423D01*
X154601Y245444D01*
X154660Y245461D01*
X154720Y245474D01*
X154781Y245483D01*
X154843Y245489D01*
X154904Y245491D01*
X154965Y245489D01*
X155027Y245483D01*
X155088Y245474D01*
X155148Y245461D01*
X155207Y245444D01*
X155265Y245423D01*
X155321Y245399D01*
X155376Y245371D01*
X155429Y245340D01*
X155481Y245306D01*
X155530Y245269D01*
X155576Y245229D01*
X155620Y245186D01*
X155661Y245140D01*
X155699Y245092D01*
X155735Y245041D01*
X155767Y244989D01*
X155795Y244934D01*
X155821Y244878D01*
X155842Y244821D01*
X155893Y244712D01*
X155941Y244601D01*
X155985Y244490D01*
X156026Y244377D01*
X156064Y244262D01*
X156098Y244147D01*
X156128Y244031D01*
X156155Y243914D01*
X156179Y243796D01*
X156199Y243677D01*
X156215Y243558D01*
X156228Y243438D01*
X156237Y243318D01*
X156242Y243198D01*
X156244Y243078D01*
X153563Y243078D02*
X153565Y242958D01*
X153570Y242838D01*
X153579Y242718D01*
X153592Y242598D01*
X153608Y242479D01*
X153628Y242360D01*
X153652Y242242D01*
X153679Y242125D01*
X153709Y242009D01*
X153743Y241894D01*
X153781Y241779D01*
X153822Y241666D01*
X153866Y241555D01*
X153914Y241444D01*
X153965Y241335D01*
X153966Y241335D02*
X153987Y241278D01*
X154013Y241222D01*
X154041Y241167D01*
X154073Y241115D01*
X154109Y241064D01*
X154147Y241016D01*
X154188Y240970D01*
X154232Y240927D01*
X154278Y240887D01*
X154327Y240850D01*
X154379Y240816D01*
X154432Y240785D01*
X154487Y240757D01*
X154543Y240733D01*
X154601Y240712D01*
X154660Y240695D01*
X154720Y240682D01*
X154781Y240673D01*
X154843Y240667D01*
X154904Y240665D01*
X155842Y241335D02*
X155893Y241444D01*
X155941Y241555D01*
X155985Y241666D01*
X156026Y241779D01*
X156064Y241894D01*
X156098Y242009D01*
X156128Y242125D01*
X156155Y242242D01*
X156179Y242360D01*
X156199Y242479D01*
X156215Y242598D01*
X156228Y242718D01*
X156237Y242838D01*
X156242Y242958D01*
X156244Y243078D01*
X155842Y241335D02*
X155821Y241278D01*
X155795Y241222D01*
X155767Y241167D01*
X155735Y241115D01*
X155699Y241064D01*
X155661Y241016D01*
X155620Y240970D01*
X155576Y240927D01*
X155529Y240887D01*
X155481Y240850D01*
X155429Y240816D01*
X155376Y240785D01*
X155321Y240757D01*
X155265Y240733D01*
X155207Y240712D01*
X155148Y240695D01*
X155088Y240682D01*
X155027Y240673D01*
X154965Y240667D01*
X154904Y240665D01*
X153831Y241737D02*
X155976Y244419D01*
X146891Y253619D02*
X145818Y253619D01*
X145753Y253621D01*
X145689Y253627D01*
X145625Y253637D01*
X145561Y253650D01*
X145499Y253668D01*
X145438Y253689D01*
X145378Y253713D01*
X145320Y253742D01*
X145263Y253774D01*
X145209Y253809D01*
X145157Y253847D01*
X145107Y253889D01*
X145060Y253933D01*
X145016Y253980D01*
X144974Y254030D01*
X144936Y254082D01*
X144901Y254136D01*
X144869Y254193D01*
X144840Y254251D01*
X144816Y254311D01*
X144795Y254372D01*
X144777Y254434D01*
X144764Y254498D01*
X144754Y254562D01*
X144748Y254626D01*
X144746Y254691D01*
X144746Y257373D01*
X144748Y257438D01*
X144754Y257502D01*
X144764Y257566D01*
X144777Y257630D01*
X144795Y257692D01*
X144816Y257753D01*
X144840Y257813D01*
X144869Y257871D01*
X144901Y257928D01*
X144936Y257982D01*
X144974Y258034D01*
X145016Y258084D01*
X145060Y258131D01*
X145107Y258175D01*
X145157Y258217D01*
X145209Y258255D01*
X145263Y258290D01*
X145320Y258322D01*
X145378Y258351D01*
X145438Y258375D01*
X145499Y258396D01*
X145561Y258414D01*
X145625Y258427D01*
X145689Y258437D01*
X145753Y258443D01*
X145818Y258445D01*
X146891Y258445D01*
X150419Y258445D02*
X149347Y254691D01*
X152028Y254691D01*
X151223Y253619D02*
X151223Y255764D01*
X156308Y258445D02*
X156376Y258443D01*
X156443Y258437D01*
X156510Y258428D01*
X156577Y258415D01*
X156642Y258398D01*
X156707Y258377D01*
X156770Y258353D01*
X156832Y258325D01*
X156892Y258294D01*
X156950Y258260D01*
X157006Y258222D01*
X157061Y258182D01*
X157112Y258138D01*
X157161Y258091D01*
X157208Y258042D01*
X157252Y257991D01*
X157292Y257936D01*
X157330Y257880D01*
X157364Y257822D01*
X157395Y257762D01*
X157423Y257700D01*
X157447Y257637D01*
X157468Y257572D01*
X157485Y257507D01*
X157498Y257440D01*
X157507Y257373D01*
X157513Y257306D01*
X157515Y257238D01*
X156308Y258445D02*
X156230Y258443D01*
X156152Y258437D01*
X156075Y258427D01*
X155998Y258414D01*
X155922Y258396D01*
X155847Y258375D01*
X155773Y258350D01*
X155701Y258321D01*
X155630Y258289D01*
X155561Y258253D01*
X155493Y258214D01*
X155428Y258171D01*
X155365Y258125D01*
X155304Y258076D01*
X155246Y258024D01*
X155191Y257969D01*
X155138Y257912D01*
X155089Y257852D01*
X155042Y257789D01*
X154999Y257725D01*
X154959Y257658D01*
X154922Y257589D01*
X154889Y257518D01*
X154859Y257446D01*
X154833Y257373D01*
X157112Y256300D02*
X157161Y256349D01*
X157208Y256401D01*
X157251Y256456D01*
X157292Y256513D01*
X157330Y256572D01*
X157364Y256633D01*
X157395Y256696D01*
X157423Y256760D01*
X157447Y256826D01*
X157467Y256892D01*
X157484Y256960D01*
X157497Y257029D01*
X157506Y257098D01*
X157512Y257168D01*
X157514Y257238D01*
X157112Y256300D02*
X154833Y253619D01*
X157514Y253619D01*
X71961Y302895D02*
X70888Y302895D01*
X70823Y302897D01*
X70759Y302903D01*
X70695Y302913D01*
X70631Y302926D01*
X70569Y302944D01*
X70508Y302965D01*
X70448Y302989D01*
X70390Y303018D01*
X70333Y303050D01*
X70279Y303085D01*
X70227Y303123D01*
X70177Y303165D01*
X70130Y303209D01*
X70086Y303256D01*
X70044Y303306D01*
X70006Y303358D01*
X69971Y303412D01*
X69939Y303469D01*
X69910Y303527D01*
X69886Y303587D01*
X69865Y303648D01*
X69847Y303710D01*
X69834Y303774D01*
X69824Y303838D01*
X69818Y303902D01*
X69816Y303967D01*
X69816Y306649D01*
X69818Y306714D01*
X69824Y306778D01*
X69834Y306842D01*
X69847Y306906D01*
X69865Y306968D01*
X69886Y307029D01*
X69910Y307089D01*
X69939Y307147D01*
X69971Y307204D01*
X70006Y307258D01*
X70044Y307310D01*
X70086Y307360D01*
X70130Y307407D01*
X70177Y307451D01*
X70227Y307493D01*
X70279Y307531D01*
X70333Y307566D01*
X70390Y307598D01*
X70448Y307627D01*
X70508Y307651D01*
X70569Y307672D01*
X70631Y307690D01*
X70695Y307703D01*
X70759Y307713D01*
X70823Y307719D01*
X70888Y307721D01*
X71961Y307721D01*
X75489Y307721D02*
X74417Y303967D01*
X77098Y303967D01*
X76293Y302895D02*
X76293Y305040D01*
X79903Y307185D02*
X79903Y307721D01*
X82584Y307721D01*
X81244Y302895D01*
D11*
X52070Y369570D02*
X39370Y369570D01*
X52070Y369570D02*
X58420Y363220D01*
X58420Y350520D01*
X52070Y344170D01*
X58420Y363220D02*
X64770Y369570D01*
X77470Y369570D01*
X83820Y363220D01*
X83820Y350520D01*
X77470Y344170D01*
X64770Y344170D01*
X58420Y350520D01*
X33020Y350520D02*
X33020Y363220D01*
X39370Y369570D01*
X33020Y350520D02*
X39370Y344170D01*
X52070Y344170D01*
X83820Y363220D02*
X90170Y369570D01*
X102870Y369570D01*
X109220Y363220D01*
X109220Y350520D01*
X102870Y344170D01*
X90170Y344170D01*
X83820Y350520D01*
D10*
X32893Y375793D02*
X32893Y387223D01*
X32893Y375793D02*
X37973Y375793D01*
X42799Y375793D02*
X47879Y375793D01*
X42799Y375793D02*
X42799Y387223D01*
X47879Y387223D01*
X46609Y382143D02*
X42799Y382143D01*
X52680Y387223D02*
X52680Y375793D01*
X52680Y387223D02*
X55855Y387223D01*
X55966Y387221D01*
X56076Y387215D01*
X56187Y387206D01*
X56297Y387192D01*
X56406Y387175D01*
X56515Y387154D01*
X56623Y387129D01*
X56730Y387100D01*
X56836Y387068D01*
X56941Y387032D01*
X57044Y386992D01*
X57146Y386949D01*
X57247Y386902D01*
X57346Y386851D01*
X57443Y386798D01*
X57537Y386741D01*
X57630Y386680D01*
X57721Y386617D01*
X57810Y386550D01*
X57896Y386480D01*
X57979Y386407D01*
X58061Y386332D01*
X58139Y386254D01*
X58214Y386172D01*
X58287Y386089D01*
X58357Y386003D01*
X58424Y385914D01*
X58487Y385823D01*
X58548Y385730D01*
X58605Y385636D01*
X58658Y385539D01*
X58709Y385440D01*
X58756Y385339D01*
X58799Y385237D01*
X58839Y385134D01*
X58875Y385029D01*
X58907Y384923D01*
X58936Y384816D01*
X58961Y384708D01*
X58982Y384599D01*
X58999Y384490D01*
X59013Y384380D01*
X59022Y384269D01*
X59028Y384159D01*
X59030Y384048D01*
X59030Y378968D01*
X59028Y378857D01*
X59022Y378747D01*
X59013Y378636D01*
X58999Y378526D01*
X58982Y378417D01*
X58961Y378308D01*
X58936Y378200D01*
X58907Y378093D01*
X58875Y377987D01*
X58839Y377882D01*
X58799Y377779D01*
X58756Y377677D01*
X58709Y377576D01*
X58658Y377477D01*
X58605Y377380D01*
X58548Y377286D01*
X58487Y377193D01*
X58424Y377102D01*
X58357Y377013D01*
X58287Y376927D01*
X58214Y376844D01*
X58139Y376762D01*
X58061Y376684D01*
X57979Y376609D01*
X57896Y376536D01*
X57810Y376466D01*
X57721Y376399D01*
X57630Y376336D01*
X57537Y376275D01*
X57442Y376218D01*
X57346Y376165D01*
X57247Y376114D01*
X57146Y376067D01*
X57044Y376024D01*
X56941Y375984D01*
X56836Y375948D01*
X56730Y375916D01*
X56623Y375887D01*
X56515Y375862D01*
X56406Y375841D01*
X56297Y375824D01*
X56187Y375810D01*
X56076Y375801D01*
X55966Y375795D01*
X55855Y375793D01*
X52680Y375793D01*
X63983Y374523D02*
X69063Y374523D01*
X77064Y375793D02*
X77164Y375795D01*
X77263Y375801D01*
X77363Y375811D01*
X77461Y375824D01*
X77560Y375842D01*
X77657Y375863D01*
X77753Y375888D01*
X77849Y375917D01*
X77943Y375950D01*
X78036Y375986D01*
X78127Y376026D01*
X78217Y376070D01*
X78305Y376117D01*
X78391Y376167D01*
X78475Y376221D01*
X78557Y376278D01*
X78636Y376338D01*
X78714Y376402D01*
X78788Y376468D01*
X78860Y376537D01*
X78929Y376609D01*
X78995Y376683D01*
X79059Y376761D01*
X79119Y376840D01*
X79176Y376922D01*
X79230Y377006D01*
X79280Y377092D01*
X79327Y377180D01*
X79371Y377270D01*
X79411Y377361D01*
X79447Y377454D01*
X79480Y377548D01*
X79509Y377644D01*
X79534Y377740D01*
X79555Y377837D01*
X79573Y377936D01*
X79586Y378034D01*
X79596Y378134D01*
X79602Y378233D01*
X79604Y378333D01*
X77064Y375793D02*
X76923Y375795D01*
X76782Y375800D01*
X76641Y375810D01*
X76500Y375823D01*
X76360Y375839D01*
X76220Y375860D01*
X76081Y375884D01*
X75942Y375912D01*
X75805Y375943D01*
X75668Y375978D01*
X75532Y376016D01*
X75397Y376058D01*
X75264Y376104D01*
X75131Y376153D01*
X75000Y376206D01*
X74871Y376262D01*
X74742Y376321D01*
X74616Y376384D01*
X74491Y376450D01*
X74368Y376519D01*
X74247Y376592D01*
X74128Y376668D01*
X74010Y376747D01*
X73895Y376828D01*
X73783Y376913D01*
X73672Y377001D01*
X73564Y377092D01*
X73458Y377185D01*
X73355Y377282D01*
X73254Y377381D01*
X73571Y384683D02*
X73573Y384783D01*
X73579Y384882D01*
X73589Y384982D01*
X73602Y385080D01*
X73620Y385179D01*
X73641Y385276D01*
X73666Y385372D01*
X73695Y385468D01*
X73728Y385562D01*
X73764Y385655D01*
X73804Y385746D01*
X73848Y385836D01*
X73895Y385924D01*
X73945Y386010D01*
X73999Y386094D01*
X74056Y386176D01*
X74116Y386255D01*
X74180Y386333D01*
X74246Y386407D01*
X74315Y386479D01*
X74387Y386548D01*
X74461Y386614D01*
X74539Y386678D01*
X74618Y386738D01*
X74700Y386795D01*
X74784Y386849D01*
X74870Y386899D01*
X74958Y386946D01*
X75048Y386990D01*
X75139Y387030D01*
X75232Y387066D01*
X75326Y387099D01*
X75422Y387128D01*
X75518Y387153D01*
X75615Y387174D01*
X75714Y387192D01*
X75812Y387205D01*
X75912Y387215D01*
X76011Y387221D01*
X76111Y387223D01*
X76111Y387224D02*
X76244Y387222D01*
X76377Y387217D01*
X76510Y387207D01*
X76643Y387194D01*
X76775Y387177D01*
X76907Y387157D01*
X77038Y387133D01*
X77168Y387105D01*
X77298Y387074D01*
X77426Y387039D01*
X77554Y387000D01*
X77680Y386958D01*
X77805Y386912D01*
X77929Y386863D01*
X78052Y386811D01*
X78173Y386755D01*
X78292Y386695D01*
X78410Y386633D01*
X78525Y386567D01*
X78639Y386498D01*
X78751Y386425D01*
X78861Y386350D01*
X78969Y386271D01*
X74841Y382460D02*
X74757Y382512D01*
X74674Y382567D01*
X74594Y382626D01*
X74516Y382687D01*
X74441Y382751D01*
X74368Y382819D01*
X74297Y382889D01*
X74230Y382961D01*
X74165Y383036D01*
X74103Y383114D01*
X74044Y383194D01*
X73988Y383276D01*
X73936Y383360D01*
X73887Y383446D01*
X73841Y383534D01*
X73798Y383624D01*
X73759Y383715D01*
X73724Y383808D01*
X73692Y383902D01*
X73664Y383997D01*
X73639Y384093D01*
X73619Y384190D01*
X73601Y384288D01*
X73588Y384386D01*
X73579Y384485D01*
X73573Y384584D01*
X73571Y384683D01*
X78334Y380556D02*
X78418Y380504D01*
X78501Y380449D01*
X78581Y380390D01*
X78659Y380329D01*
X78734Y380265D01*
X78807Y380197D01*
X78878Y380127D01*
X78945Y380055D01*
X79010Y379980D01*
X79072Y379902D01*
X79131Y379822D01*
X79187Y379740D01*
X79239Y379656D01*
X79288Y379570D01*
X79334Y379482D01*
X79377Y379392D01*
X79416Y379301D01*
X79451Y379208D01*
X79483Y379114D01*
X79511Y379019D01*
X79536Y378923D01*
X79556Y378826D01*
X79574Y378728D01*
X79587Y378630D01*
X79596Y378531D01*
X79602Y378432D01*
X79604Y378333D01*
X78334Y380556D02*
X74841Y382461D01*
X86716Y387223D02*
X86716Y375793D01*
X83541Y387223D02*
X89891Y387223D01*
X94672Y387223D02*
X94672Y375793D01*
X94672Y387223D02*
X97847Y387223D01*
X97958Y387221D01*
X98068Y387215D01*
X98179Y387206D01*
X98289Y387192D01*
X98398Y387175D01*
X98507Y387154D01*
X98615Y387129D01*
X98722Y387100D01*
X98828Y387068D01*
X98933Y387032D01*
X99036Y386992D01*
X99138Y386949D01*
X99239Y386902D01*
X99338Y386851D01*
X99435Y386798D01*
X99529Y386741D01*
X99622Y386680D01*
X99713Y386617D01*
X99802Y386550D01*
X99888Y386480D01*
X99971Y386407D01*
X100053Y386332D01*
X100131Y386254D01*
X100206Y386172D01*
X100279Y386089D01*
X100349Y386003D01*
X100416Y385914D01*
X100479Y385823D01*
X100540Y385730D01*
X100597Y385635D01*
X100650Y385539D01*
X100701Y385440D01*
X100748Y385339D01*
X100791Y385237D01*
X100831Y385134D01*
X100867Y385029D01*
X100899Y384923D01*
X100928Y384816D01*
X100953Y384708D01*
X100974Y384599D01*
X100991Y384490D01*
X101005Y384380D01*
X101014Y384269D01*
X101020Y384159D01*
X101022Y384048D01*
X101020Y383937D01*
X101014Y383827D01*
X101005Y383716D01*
X100991Y383606D01*
X100974Y383497D01*
X100953Y383388D01*
X100928Y383280D01*
X100899Y383173D01*
X100867Y383067D01*
X100831Y382962D01*
X100791Y382859D01*
X100748Y382757D01*
X100701Y382656D01*
X100650Y382557D01*
X100597Y382460D01*
X100540Y382366D01*
X100479Y382273D01*
X100416Y382182D01*
X100349Y382093D01*
X100279Y382007D01*
X100206Y381924D01*
X100131Y381842D01*
X100053Y381764D01*
X99971Y381689D01*
X99888Y381616D01*
X99802Y381546D01*
X99713Y381479D01*
X99622Y381416D01*
X99529Y381355D01*
X99434Y381298D01*
X99338Y381245D01*
X99239Y381194D01*
X99138Y381147D01*
X99036Y381104D01*
X98933Y381064D01*
X98828Y381028D01*
X98722Y380996D01*
X98615Y380967D01*
X98507Y380942D01*
X98398Y380921D01*
X98289Y380904D01*
X98179Y380890D01*
X98068Y380881D01*
X97958Y380875D01*
X97847Y380873D01*
X94672Y380873D01*
X98482Y380873D02*
X101022Y375793D01*
X106909Y375793D02*
X106909Y387223D01*
X105639Y375793D02*
X108179Y375793D01*
X108179Y387223D02*
X105639Y387223D01*
X113449Y387223D02*
X113449Y375793D01*
X113449Y387223D02*
X116624Y387223D01*
X116735Y387221D01*
X116845Y387215D01*
X116956Y387206D01*
X117066Y387192D01*
X117175Y387175D01*
X117284Y387154D01*
X117392Y387129D01*
X117499Y387100D01*
X117605Y387068D01*
X117710Y387032D01*
X117813Y386992D01*
X117915Y386949D01*
X118016Y386902D01*
X118115Y386851D01*
X118212Y386798D01*
X118306Y386741D01*
X118399Y386680D01*
X118490Y386617D01*
X118579Y386550D01*
X118665Y386480D01*
X118748Y386407D01*
X118830Y386332D01*
X118908Y386254D01*
X118983Y386172D01*
X119056Y386089D01*
X119126Y386003D01*
X119193Y385914D01*
X119256Y385823D01*
X119317Y385730D01*
X119374Y385635D01*
X119427Y385539D01*
X119478Y385440D01*
X119525Y385339D01*
X119568Y385237D01*
X119608Y385134D01*
X119644Y385029D01*
X119676Y384923D01*
X119705Y384816D01*
X119730Y384708D01*
X119751Y384599D01*
X119768Y384490D01*
X119782Y384380D01*
X119791Y384269D01*
X119797Y384159D01*
X119799Y384048D01*
X119797Y383937D01*
X119791Y383827D01*
X119782Y383716D01*
X119768Y383606D01*
X119751Y383497D01*
X119730Y383388D01*
X119705Y383280D01*
X119676Y383173D01*
X119644Y383067D01*
X119608Y382962D01*
X119568Y382859D01*
X119525Y382757D01*
X119478Y382656D01*
X119427Y382557D01*
X119374Y382460D01*
X119317Y382366D01*
X119256Y382273D01*
X119193Y382182D01*
X119126Y382093D01*
X119056Y382007D01*
X118983Y381924D01*
X118908Y381842D01*
X118830Y381764D01*
X118748Y381689D01*
X118665Y381616D01*
X118579Y381546D01*
X118490Y381479D01*
X118399Y381416D01*
X118306Y381355D01*
X118211Y381298D01*
X118115Y381245D01*
X118016Y381194D01*
X117915Y381147D01*
X117813Y381104D01*
X117710Y381064D01*
X117605Y381028D01*
X117499Y380996D01*
X117392Y380967D01*
X117284Y380942D01*
X117175Y380921D01*
X117066Y380904D01*
X116956Y380890D01*
X116845Y380881D01*
X116735Y380875D01*
X116624Y380873D01*
X113449Y380873D01*
D11*
X218440Y170180D02*
X218440Y157480D01*
X212090Y151130D01*
X199390Y151130D01*
X193040Y157480D01*
X212090Y151130D02*
X218440Y144780D01*
X218440Y132080D01*
X212090Y125730D01*
X199390Y125730D01*
X193040Y132080D01*
X193040Y144780D01*
X199390Y151130D01*
X199390Y176530D02*
X212090Y176530D01*
X218440Y170180D01*
X199390Y176530D02*
X193040Y170180D01*
X193040Y157480D01*
X212090Y125730D02*
X218440Y119380D01*
X218440Y106680D01*
X212090Y100330D01*
X199390Y100330D01*
X193040Y106680D01*
X193040Y119380D01*
X199390Y125730D01*
D10*
X224663Y135827D02*
X236093Y135827D01*
X224663Y135827D02*
X224663Y139002D01*
X224665Y139113D01*
X224671Y139223D01*
X224680Y139334D01*
X224694Y139444D01*
X224711Y139553D01*
X224732Y139662D01*
X224757Y139770D01*
X224786Y139877D01*
X224818Y139983D01*
X224854Y140088D01*
X224894Y140191D01*
X224937Y140293D01*
X224984Y140394D01*
X225035Y140493D01*
X225088Y140590D01*
X225145Y140684D01*
X225206Y140777D01*
X225269Y140868D01*
X225336Y140957D01*
X225406Y141043D01*
X225479Y141126D01*
X225554Y141208D01*
X225632Y141286D01*
X225714Y141361D01*
X225797Y141434D01*
X225883Y141504D01*
X225972Y141571D01*
X226063Y141634D01*
X226156Y141695D01*
X226251Y141752D01*
X226347Y141805D01*
X226446Y141856D01*
X226547Y141903D01*
X226649Y141946D01*
X226752Y141986D01*
X226857Y142022D01*
X226963Y142054D01*
X227070Y142083D01*
X227178Y142108D01*
X227287Y142129D01*
X227396Y142146D01*
X227506Y142160D01*
X227617Y142169D01*
X227727Y142175D01*
X227838Y142177D01*
X227949Y142175D01*
X228059Y142169D01*
X228170Y142160D01*
X228280Y142146D01*
X228389Y142129D01*
X228498Y142108D01*
X228606Y142083D01*
X228713Y142054D01*
X228819Y142022D01*
X228924Y141986D01*
X229027Y141946D01*
X229129Y141903D01*
X229230Y141856D01*
X229329Y141805D01*
X229426Y141752D01*
X229520Y141695D01*
X229613Y141634D01*
X229704Y141571D01*
X229793Y141504D01*
X229879Y141434D01*
X229962Y141361D01*
X230044Y141286D01*
X230122Y141208D01*
X230197Y141126D01*
X230270Y141043D01*
X230340Y140957D01*
X230407Y140868D01*
X230470Y140777D01*
X230531Y140684D01*
X230588Y140590D01*
X230641Y140493D01*
X230692Y140394D01*
X230739Y140293D01*
X230782Y140191D01*
X230822Y140088D01*
X230858Y139983D01*
X230890Y139877D01*
X230919Y139770D01*
X230944Y139662D01*
X230965Y139553D01*
X230982Y139444D01*
X230996Y139334D01*
X231005Y139223D01*
X231011Y139113D01*
X231013Y139002D01*
X231013Y135827D01*
X236093Y147149D02*
X224663Y147149D01*
X224663Y150324D01*
X224665Y150435D01*
X224671Y150545D01*
X224680Y150656D01*
X224694Y150766D01*
X224711Y150875D01*
X224732Y150984D01*
X224757Y151092D01*
X224786Y151199D01*
X224818Y151305D01*
X224854Y151410D01*
X224894Y151513D01*
X224937Y151615D01*
X224984Y151716D01*
X225035Y151815D01*
X225088Y151912D01*
X225145Y152006D01*
X225206Y152099D01*
X225269Y152190D01*
X225336Y152279D01*
X225406Y152365D01*
X225479Y152448D01*
X225554Y152530D01*
X225632Y152608D01*
X225714Y152683D01*
X225797Y152756D01*
X225883Y152826D01*
X225972Y152893D01*
X226063Y152956D01*
X226156Y153017D01*
X226251Y153074D01*
X226347Y153127D01*
X226446Y153178D01*
X226547Y153225D01*
X226649Y153268D01*
X226752Y153308D01*
X226857Y153344D01*
X226963Y153376D01*
X227070Y153405D01*
X227178Y153430D01*
X227287Y153451D01*
X227396Y153468D01*
X227506Y153482D01*
X227617Y153491D01*
X227727Y153497D01*
X227838Y153499D01*
X227949Y153497D01*
X228059Y153491D01*
X228170Y153482D01*
X228280Y153468D01*
X228389Y153451D01*
X228498Y153430D01*
X228606Y153405D01*
X228713Y153376D01*
X228819Y153344D01*
X228924Y153308D01*
X229027Y153268D01*
X229129Y153225D01*
X229230Y153178D01*
X229329Y153127D01*
X229426Y153074D01*
X229520Y153017D01*
X229613Y152956D01*
X229704Y152893D01*
X229793Y152826D01*
X229879Y152756D01*
X229962Y152683D01*
X230044Y152608D01*
X230122Y152530D01*
X230197Y152448D01*
X230270Y152365D01*
X230340Y152279D01*
X230407Y152190D01*
X230470Y152099D01*
X230531Y152006D01*
X230588Y151912D01*
X230641Y151815D01*
X230692Y151716D01*
X230739Y151615D01*
X230782Y151513D01*
X230822Y151410D01*
X230858Y151305D01*
X230890Y151199D01*
X230919Y151092D01*
X230944Y150984D01*
X230965Y150875D01*
X230982Y150766D01*
X230996Y150656D01*
X231005Y150545D01*
X231011Y150435D01*
X231013Y150324D01*
X231013Y147149D01*
X231013Y150959D02*
X236093Y153499D01*
X232918Y158496D02*
X227838Y158496D01*
X227727Y158498D01*
X227617Y158504D01*
X227506Y158513D01*
X227396Y158527D01*
X227287Y158544D01*
X227178Y158565D01*
X227070Y158590D01*
X226963Y158619D01*
X226857Y158651D01*
X226752Y158687D01*
X226649Y158727D01*
X226547Y158770D01*
X226446Y158817D01*
X226347Y158868D01*
X226251Y158921D01*
X226156Y158978D01*
X226063Y159039D01*
X225972Y159102D01*
X225883Y159169D01*
X225797Y159239D01*
X225714Y159312D01*
X225632Y159387D01*
X225554Y159465D01*
X225479Y159547D01*
X225406Y159630D01*
X225336Y159716D01*
X225269Y159805D01*
X225206Y159896D01*
X225145Y159989D01*
X225088Y160084D01*
X225035Y160180D01*
X224984Y160279D01*
X224937Y160380D01*
X224894Y160482D01*
X224854Y160585D01*
X224818Y160690D01*
X224786Y160796D01*
X224757Y160903D01*
X224732Y161011D01*
X224711Y161120D01*
X224694Y161229D01*
X224680Y161339D01*
X224671Y161450D01*
X224665Y161560D01*
X224663Y161671D01*
X224665Y161782D01*
X224671Y161892D01*
X224680Y162003D01*
X224694Y162113D01*
X224711Y162222D01*
X224732Y162331D01*
X224757Y162439D01*
X224786Y162546D01*
X224818Y162652D01*
X224854Y162757D01*
X224894Y162860D01*
X224937Y162962D01*
X224984Y163063D01*
X225035Y163162D01*
X225088Y163259D01*
X225145Y163353D01*
X225206Y163446D01*
X225269Y163537D01*
X225336Y163626D01*
X225406Y163712D01*
X225479Y163795D01*
X225554Y163877D01*
X225632Y163955D01*
X225714Y164030D01*
X225797Y164103D01*
X225883Y164173D01*
X225972Y164240D01*
X226063Y164303D01*
X226156Y164364D01*
X226251Y164421D01*
X226347Y164474D01*
X226446Y164525D01*
X226547Y164572D01*
X226649Y164615D01*
X226752Y164655D01*
X226857Y164691D01*
X226963Y164723D01*
X227070Y164752D01*
X227178Y164777D01*
X227287Y164798D01*
X227396Y164815D01*
X227506Y164829D01*
X227617Y164838D01*
X227727Y164844D01*
X227838Y164846D01*
X232918Y164846D01*
X233029Y164844D01*
X233139Y164838D01*
X233250Y164829D01*
X233360Y164815D01*
X233469Y164798D01*
X233578Y164777D01*
X233686Y164752D01*
X233793Y164723D01*
X233899Y164691D01*
X234004Y164655D01*
X234107Y164615D01*
X234209Y164572D01*
X234310Y164525D01*
X234409Y164474D01*
X234506Y164421D01*
X234600Y164364D01*
X234693Y164303D01*
X234784Y164240D01*
X234873Y164173D01*
X234959Y164103D01*
X235042Y164030D01*
X235124Y163955D01*
X235202Y163877D01*
X235277Y163795D01*
X235350Y163712D01*
X235420Y163626D01*
X235487Y163537D01*
X235550Y163446D01*
X235611Y163353D01*
X235668Y163258D01*
X235721Y163162D01*
X235772Y163063D01*
X235819Y162962D01*
X235862Y162860D01*
X235902Y162757D01*
X235938Y162652D01*
X235970Y162546D01*
X235999Y162439D01*
X236024Y162331D01*
X236045Y162222D01*
X236062Y162113D01*
X236076Y162003D01*
X236085Y161892D01*
X236091Y161782D01*
X236093Y161671D01*
X236091Y161560D01*
X236085Y161450D01*
X236076Y161339D01*
X236062Y161229D01*
X236045Y161120D01*
X236024Y161011D01*
X235999Y160903D01*
X235970Y160796D01*
X235938Y160690D01*
X235902Y160585D01*
X235862Y160482D01*
X235819Y160380D01*
X235772Y160279D01*
X235721Y160180D01*
X235668Y160083D01*
X235611Y159989D01*
X235550Y159896D01*
X235487Y159805D01*
X235420Y159716D01*
X235350Y159630D01*
X235277Y159547D01*
X235202Y159465D01*
X235124Y159387D01*
X235042Y159312D01*
X234959Y159239D01*
X234873Y159169D01*
X234784Y159102D01*
X234693Y159039D01*
X234600Y158978D01*
X234505Y158921D01*
X234409Y158868D01*
X234310Y158817D01*
X234209Y158770D01*
X234107Y158727D01*
X234004Y158687D01*
X233899Y158651D01*
X233793Y158619D01*
X233686Y158590D01*
X233578Y158565D01*
X233469Y158544D01*
X233360Y158527D01*
X233250Y158513D01*
X233139Y158504D01*
X233029Y158498D01*
X232918Y158496D01*
X229743Y174752D02*
X229743Y176657D01*
X236093Y176657D01*
X236093Y172847D01*
X236091Y172747D01*
X236085Y172648D01*
X236075Y172548D01*
X236062Y172450D01*
X236044Y172351D01*
X236023Y172254D01*
X235998Y172158D01*
X235969Y172062D01*
X235936Y171968D01*
X235900Y171875D01*
X235860Y171784D01*
X235816Y171694D01*
X235769Y171606D01*
X235719Y171520D01*
X235665Y171436D01*
X235608Y171354D01*
X235548Y171275D01*
X235484Y171197D01*
X235418Y171123D01*
X235349Y171051D01*
X235277Y170982D01*
X235203Y170916D01*
X235125Y170852D01*
X235046Y170792D01*
X234964Y170735D01*
X234880Y170681D01*
X234794Y170631D01*
X234706Y170584D01*
X234616Y170540D01*
X234525Y170500D01*
X234432Y170464D01*
X234338Y170431D01*
X234242Y170402D01*
X234146Y170377D01*
X234049Y170356D01*
X233950Y170338D01*
X233852Y170325D01*
X233752Y170315D01*
X233653Y170309D01*
X233553Y170307D01*
X227203Y170307D01*
X227103Y170309D01*
X227004Y170315D01*
X226904Y170325D01*
X226806Y170338D01*
X226707Y170356D01*
X226610Y170377D01*
X226514Y170402D01*
X226418Y170431D01*
X226324Y170464D01*
X226231Y170500D01*
X226140Y170540D01*
X226050Y170584D01*
X225962Y170631D01*
X225876Y170681D01*
X225792Y170735D01*
X225710Y170792D01*
X225631Y170852D01*
X225553Y170916D01*
X225479Y170982D01*
X225407Y171051D01*
X225338Y171123D01*
X225272Y171197D01*
X225208Y171275D01*
X225148Y171354D01*
X225091Y171436D01*
X225037Y171520D01*
X224987Y171606D01*
X224940Y171694D01*
X224896Y171784D01*
X224856Y171875D01*
X224820Y171968D01*
X224787Y172062D01*
X224758Y172158D01*
X224733Y172254D01*
X224712Y172351D01*
X224694Y172450D01*
X224681Y172548D01*
X224671Y172648D01*
X224665Y172747D01*
X224663Y172847D01*
X224663Y176657D01*
X124710Y327660D02*
X124724Y328838D01*
X124768Y330016D01*
X124840Y331192D01*
X124941Y332366D01*
X125071Y333537D01*
X125230Y334705D01*
X125417Y335868D01*
X125632Y337026D01*
X125877Y338179D01*
X126149Y339325D01*
X126449Y340465D01*
X126777Y341597D01*
X127133Y342720D01*
X127516Y343834D01*
X127927Y344939D01*
X128365Y346033D01*
X128829Y347116D01*
X129319Y348187D01*
X129836Y349246D01*
X130379Y350292D01*
X130947Y351324D01*
X131540Y352342D01*
X132159Y353345D01*
X132801Y354333D01*
X133468Y355305D01*
X134158Y356260D01*
X134871Y357197D01*
X135608Y358117D01*
X136366Y359019D01*
X137147Y359902D01*
X137949Y360765D01*
X138772Y361608D01*
X139615Y362431D01*
X140478Y363233D01*
X141361Y364014D01*
X142263Y364772D01*
X143183Y365509D01*
X144120Y366222D01*
X145075Y366912D01*
X146047Y367579D01*
X147035Y368221D01*
X148038Y368840D01*
X149056Y369433D01*
X150088Y370001D01*
X151134Y370544D01*
X152193Y371061D01*
X153264Y371551D01*
X154347Y372015D01*
X155441Y372453D01*
X156546Y372864D01*
X157660Y373247D01*
X158783Y373603D01*
X159915Y373931D01*
X161055Y374231D01*
X162201Y374503D01*
X163354Y374748D01*
X164512Y374963D01*
X165675Y375150D01*
X166843Y375309D01*
X168014Y375439D01*
X169188Y375540D01*
X170364Y375612D01*
X171542Y375656D01*
X172720Y375670D01*
X173898Y375656D01*
X175076Y375612D01*
X176252Y375540D01*
X177426Y375439D01*
X178597Y375309D01*
X179765Y375150D01*
X180928Y374963D01*
X182086Y374748D01*
X183239Y374503D01*
X184385Y374231D01*
X185525Y373931D01*
X186657Y373603D01*
X187780Y373247D01*
X188894Y372864D01*
X189999Y372453D01*
X191093Y372015D01*
X192176Y371551D01*
X193247Y371061D01*
X194306Y370544D01*
X195352Y370001D01*
X196384Y369433D01*
X197402Y368840D01*
X198405Y368221D01*
X199393Y367579D01*
X200365Y366912D01*
X201320Y366222D01*
X202257Y365509D01*
X203177Y364772D01*
X204079Y364014D01*
X204962Y363233D01*
X205825Y362431D01*
X206668Y361608D01*
X207491Y360765D01*
X208293Y359902D01*
X209074Y359019D01*
X209832Y358117D01*
X210569Y357197D01*
X211282Y356260D01*
X211972Y355305D01*
X212639Y354333D01*
X213281Y353345D01*
X213900Y352342D01*
X214493Y351324D01*
X215061Y350292D01*
X215604Y349246D01*
X216121Y348187D01*
X216611Y347116D01*
X217075Y346033D01*
X217513Y344939D01*
X217924Y343834D01*
X218307Y342720D01*
X218663Y341597D01*
X218991Y340465D01*
X219291Y339325D01*
X219563Y338179D01*
X219808Y337026D01*
X220023Y335868D01*
X220210Y334705D01*
X220369Y333537D01*
X220499Y332366D01*
X220600Y331192D01*
X220672Y330016D01*
X220716Y328838D01*
X220730Y327660D01*
X220716Y326482D01*
X220672Y325304D01*
X220600Y324128D01*
X220499Y322954D01*
X220369Y321783D01*
X220210Y320615D01*
X220023Y319452D01*
X219808Y318294D01*
X219563Y317141D01*
X219291Y315995D01*
X218991Y314855D01*
X218663Y313723D01*
X218307Y312600D01*
X217924Y311486D01*
X217513Y310381D01*
X217075Y309287D01*
X216611Y308204D01*
X216121Y307133D01*
X215604Y306074D01*
X215061Y305028D01*
X214493Y303996D01*
X213900Y302978D01*
X213281Y301975D01*
X212639Y300987D01*
X211972Y300015D01*
X211282Y299060D01*
X210569Y298123D01*
X209832Y297203D01*
X209074Y296301D01*
X208293Y295418D01*
X207491Y294555D01*
X206668Y293712D01*
X205825Y292889D01*
X204962Y292087D01*
X204079Y291306D01*
X203177Y290548D01*
X202257Y289811D01*
X201320Y289098D01*
X200365Y288408D01*
X199393Y287741D01*
X198405Y287099D01*
X197402Y286480D01*
X196384Y285887D01*
X195352Y285319D01*
X194306Y284776D01*
X193247Y284259D01*
X192176Y283769D01*
X191093Y283305D01*
X189999Y282867D01*
X188894Y282456D01*
X187780Y282073D01*
X186657Y281717D01*
X185525Y281389D01*
X184385Y281089D01*
X183239Y280817D01*
X182086Y280572D01*
X180928Y280357D01*
X179765Y280170D01*
X178597Y280011D01*
X177426Y279881D01*
X176252Y279780D01*
X175076Y279708D01*
X173898Y279664D01*
X172720Y279650D01*
X171542Y279664D01*
X170364Y279708D01*
X169188Y279780D01*
X168014Y279881D01*
X166843Y280011D01*
X165675Y280170D01*
X164512Y280357D01*
X163354Y280572D01*
X162201Y280817D01*
X161055Y281089D01*
X159915Y281389D01*
X158783Y281717D01*
X157660Y282073D01*
X156546Y282456D01*
X155441Y282867D01*
X154347Y283305D01*
X153264Y283769D01*
X152193Y284259D01*
X151134Y284776D01*
X150088Y285319D01*
X149056Y285887D01*
X148038Y286480D01*
X147035Y287099D01*
X146047Y287741D01*
X145075Y288408D01*
X144120Y289098D01*
X143183Y289811D01*
X142263Y290548D01*
X141361Y291306D01*
X140478Y292087D01*
X139615Y292889D01*
X138772Y293712D01*
X137949Y294555D01*
X137147Y295418D01*
X136366Y296301D01*
X135608Y297203D01*
X134871Y298123D01*
X134158Y299060D01*
X133468Y300015D01*
X132801Y300987D01*
X132159Y301975D01*
X131540Y302978D01*
X130947Y303996D01*
X130379Y305028D01*
X129836Y306074D01*
X129319Y307133D01*
X128829Y308204D01*
X128365Y309287D01*
X127927Y310381D01*
X127516Y311486D01*
X127133Y312600D01*
X126777Y313723D01*
X126449Y314855D01*
X126149Y315995D01*
X125877Y317141D01*
X125632Y318294D01*
X125417Y319452D01*
X125230Y320615D01*
X125071Y321783D01*
X124941Y322954D01*
X124840Y324128D01*
X124768Y325304D01*
X124724Y326482D01*
X124710Y327660D01*
X129720Y327660D02*
X129733Y328715D01*
X129772Y329770D01*
X129837Y330823D01*
X129927Y331875D01*
X130043Y332924D01*
X130185Y333969D01*
X130353Y335011D01*
X130546Y336049D01*
X130765Y337081D01*
X131009Y338108D01*
X131278Y339129D01*
X131572Y340142D01*
X131890Y341148D01*
X132234Y342146D01*
X132601Y343135D01*
X132993Y344115D01*
X133409Y345085D01*
X133848Y346045D01*
X134311Y346993D01*
X134797Y347930D01*
X135306Y348855D01*
X135838Y349766D01*
X136391Y350665D01*
X136967Y351550D01*
X137564Y352420D01*
X138182Y353275D01*
X138821Y354115D01*
X139481Y354939D01*
X140160Y355746D01*
X140859Y356537D01*
X141577Y357310D01*
X142314Y358066D01*
X143070Y358803D01*
X143843Y359521D01*
X144634Y360220D01*
X145441Y360899D01*
X146265Y361559D01*
X147105Y362198D01*
X147960Y362816D01*
X148830Y363413D01*
X149715Y363989D01*
X150614Y364542D01*
X151525Y365074D01*
X152450Y365583D01*
X153387Y366069D01*
X154335Y366532D01*
X155295Y366971D01*
X156265Y367387D01*
X157245Y367779D01*
X158234Y368146D01*
X159232Y368490D01*
X160238Y368808D01*
X161251Y369102D01*
X162272Y369371D01*
X163299Y369615D01*
X164331Y369834D01*
X165369Y370027D01*
X166411Y370195D01*
X167456Y370337D01*
X168505Y370453D01*
X169557Y370543D01*
X170610Y370608D01*
X171665Y370647D01*
X172720Y370660D01*
X173775Y370647D01*
X174830Y370608D01*
X175883Y370543D01*
X176935Y370453D01*
X177984Y370337D01*
X179029Y370195D01*
X180071Y370027D01*
X181109Y369834D01*
X182141Y369615D01*
X183168Y369371D01*
X184189Y369102D01*
X185202Y368808D01*
X186208Y368490D01*
X187206Y368146D01*
X188195Y367779D01*
X189175Y367387D01*
X190145Y366971D01*
X191105Y366532D01*
X192053Y366069D01*
X192990Y365583D01*
X193915Y365074D01*
X194826Y364542D01*
X195725Y363989D01*
X196610Y363413D01*
X197480Y362816D01*
X198335Y362198D01*
X199175Y361559D01*
X199999Y360899D01*
X200806Y360220D01*
X201597Y359521D01*
X202370Y358803D01*
X203126Y358066D01*
X203863Y357310D01*
X204581Y356537D01*
X205280Y355746D01*
X205959Y354939D01*
X206619Y354115D01*
X207258Y353275D01*
X207876Y352420D01*
X208473Y351550D01*
X209049Y350665D01*
X209602Y349766D01*
X210134Y348855D01*
X210643Y347930D01*
X211129Y346993D01*
X211592Y346045D01*
X212031Y345085D01*
X212447Y344115D01*
X212839Y343135D01*
X213206Y342146D01*
X213550Y341148D01*
X213868Y340142D01*
X214162Y339129D01*
X214431Y338108D01*
X214675Y337081D01*
X214894Y336049D01*
X215087Y335011D01*
X215255Y333969D01*
X215397Y332924D01*
X215513Y331875D01*
X215603Y330823D01*
X215668Y329770D01*
X215707Y328715D01*
X215720Y327660D01*
X215707Y326605D01*
X215668Y325550D01*
X215603Y324497D01*
X215513Y323445D01*
X215397Y322396D01*
X215255Y321351D01*
X215087Y320309D01*
X214894Y319271D01*
X214675Y318239D01*
X214431Y317212D01*
X214162Y316191D01*
X213868Y315178D01*
X213550Y314172D01*
X213206Y313174D01*
X212839Y312185D01*
X212447Y311205D01*
X212031Y310235D01*
X211592Y309275D01*
X211129Y308327D01*
X210643Y307390D01*
X210134Y306465D01*
X209602Y305554D01*
X209049Y304655D01*
X208473Y303770D01*
X207876Y302900D01*
X207258Y302045D01*
X206619Y301205D01*
X205959Y300381D01*
X205280Y299574D01*
X204581Y298783D01*
X203863Y298010D01*
X203126Y297254D01*
X202370Y296517D01*
X201597Y295799D01*
X200806Y295100D01*
X199999Y294421D01*
X199175Y293761D01*
X198335Y293122D01*
X197480Y292504D01*
X196610Y291907D01*
X195725Y291331D01*
X194826Y290778D01*
X193915Y290246D01*
X192990Y289737D01*
X192053Y289251D01*
X191105Y288788D01*
X190145Y288349D01*
X189175Y287933D01*
X188195Y287541D01*
X187206Y287174D01*
X186208Y286830D01*
X185202Y286512D01*
X184189Y286218D01*
X183168Y285949D01*
X182141Y285705D01*
X181109Y285486D01*
X180071Y285293D01*
X179029Y285125D01*
X177984Y284983D01*
X176935Y284867D01*
X175883Y284777D01*
X174830Y284712D01*
X173775Y284673D01*
X172720Y284660D01*
X171665Y284673D01*
X170610Y284712D01*
X169557Y284777D01*
X168505Y284867D01*
X167456Y284983D01*
X166411Y285125D01*
X165369Y285293D01*
X164331Y285486D01*
X163299Y285705D01*
X162272Y285949D01*
X161251Y286218D01*
X160238Y286512D01*
X159232Y286830D01*
X158234Y287174D01*
X157245Y287541D01*
X156265Y287933D01*
X155295Y288349D01*
X154335Y288788D01*
X153387Y289251D01*
X152450Y289737D01*
X151525Y290246D01*
X150614Y290778D01*
X149715Y291331D01*
X148830Y291907D01*
X147960Y292504D01*
X147105Y293122D01*
X146265Y293761D01*
X145441Y294421D01*
X144634Y295100D01*
X143843Y295799D01*
X143070Y296517D01*
X142314Y297254D01*
X141577Y298010D01*
X140859Y298783D01*
X140160Y299574D01*
X139481Y300381D01*
X138821Y301205D01*
X138182Y302045D01*
X137564Y302900D01*
X136967Y303770D01*
X136391Y304655D01*
X135838Y305554D01*
X135306Y306465D01*
X134797Y307390D01*
X134311Y308327D01*
X133848Y309275D01*
X133409Y310235D01*
X132993Y311205D01*
X132601Y312185D01*
X132234Y313174D01*
X131890Y314172D01*
X131572Y315178D01*
X131278Y316191D01*
X131009Y317212D01*
X130765Y318239D01*
X130546Y319271D01*
X130353Y320309D01*
X130185Y321351D01*
X130043Y322396D01*
X129927Y323445D01*
X129837Y324497D01*
X129772Y325550D01*
X129733Y326605D01*
X129720Y327660D01*
D12*
X108666Y413517D02*
X103474Y413517D01*
X103361Y413519D01*
X103248Y413525D01*
X103135Y413535D01*
X103022Y413549D01*
X102910Y413566D01*
X102799Y413588D01*
X102689Y413613D01*
X102579Y413643D01*
X102471Y413676D01*
X102364Y413713D01*
X102258Y413753D01*
X102154Y413798D01*
X102051Y413846D01*
X101950Y413897D01*
X101851Y413952D01*
X101754Y414010D01*
X101659Y414072D01*
X101566Y414137D01*
X101476Y414205D01*
X101388Y414276D01*
X101302Y414351D01*
X101219Y414428D01*
X101139Y414508D01*
X101062Y414591D01*
X100987Y414677D01*
X100916Y414765D01*
X100848Y414855D01*
X100783Y414948D01*
X100721Y415043D01*
X100663Y415140D01*
X100608Y415239D01*
X100557Y415340D01*
X100509Y415443D01*
X100464Y415547D01*
X100424Y415653D01*
X100387Y415760D01*
X100354Y415868D01*
X100324Y415978D01*
X100299Y416088D01*
X100277Y416199D01*
X100260Y416311D01*
X100246Y416424D01*
X100236Y416537D01*
X100230Y416650D01*
X100228Y416763D01*
X100230Y416876D01*
X100236Y416989D01*
X100246Y417102D01*
X100260Y417215D01*
X100277Y417327D01*
X100299Y417438D01*
X100324Y417548D01*
X100354Y417658D01*
X100387Y417766D01*
X100424Y417873D01*
X100464Y417979D01*
X100509Y418083D01*
X100557Y418186D01*
X100608Y418287D01*
X100663Y418386D01*
X100721Y418483D01*
X100783Y418578D01*
X100848Y418671D01*
X100916Y418761D01*
X100987Y418849D01*
X101062Y418935D01*
X101139Y419018D01*
X101219Y419098D01*
X101302Y419175D01*
X101388Y419250D01*
X101476Y419321D01*
X101566Y419389D01*
X101659Y419454D01*
X101754Y419516D01*
X101851Y419574D01*
X101950Y419629D01*
X102051Y419680D01*
X102154Y419728D01*
X102258Y419773D01*
X102364Y419813D01*
X102471Y419850D01*
X102579Y419883D01*
X102689Y419913D01*
X102799Y419938D01*
X102910Y419960D01*
X103022Y419977D01*
X103135Y419991D01*
X103248Y420001D01*
X103361Y420007D01*
X103474Y420009D01*
X103474Y420008D02*
X108666Y420008D01*
X108666Y420009D02*
X108779Y420007D01*
X108892Y420001D01*
X109005Y419991D01*
X109118Y419977D01*
X109230Y419960D01*
X109341Y419938D01*
X109451Y419913D01*
X109561Y419883D01*
X109669Y419850D01*
X109776Y419813D01*
X109882Y419773D01*
X109986Y419728D01*
X110089Y419680D01*
X110190Y419629D01*
X110289Y419574D01*
X110386Y419516D01*
X110481Y419454D01*
X110574Y419389D01*
X110664Y419321D01*
X110752Y419250D01*
X110838Y419175D01*
X110921Y419098D01*
X111001Y419018D01*
X111078Y418935D01*
X111153Y418849D01*
X111224Y418761D01*
X111292Y418671D01*
X111357Y418578D01*
X111419Y418483D01*
X111477Y418386D01*
X111532Y418287D01*
X111583Y418186D01*
X111631Y418083D01*
X111676Y417979D01*
X111716Y417873D01*
X111753Y417766D01*
X111786Y417658D01*
X111816Y417548D01*
X111841Y417438D01*
X111863Y417327D01*
X111880Y417215D01*
X111894Y417102D01*
X111904Y416989D01*
X111910Y416876D01*
X111912Y416763D01*
X111910Y416650D01*
X111904Y416537D01*
X111894Y416424D01*
X111880Y416311D01*
X111863Y416199D01*
X111841Y416088D01*
X111816Y415978D01*
X111786Y415868D01*
X111753Y415760D01*
X111716Y415653D01*
X111676Y415547D01*
X111631Y415443D01*
X111583Y415340D01*
X111532Y415239D01*
X111477Y415140D01*
X111419Y415043D01*
X111357Y414948D01*
X111292Y414855D01*
X111224Y414765D01*
X111153Y414677D01*
X111078Y414591D01*
X111001Y414508D01*
X110921Y414428D01*
X110838Y414351D01*
X110752Y414276D01*
X110664Y414205D01*
X110574Y414137D01*
X110481Y414072D01*
X110386Y414010D01*
X110289Y413952D01*
X110190Y413897D01*
X110089Y413846D01*
X109986Y413798D01*
X109882Y413753D01*
X109776Y413713D01*
X109669Y413676D01*
X109561Y413643D01*
X109451Y413613D01*
X109341Y413588D01*
X109230Y413566D01*
X109118Y413549D01*
X109005Y413535D01*
X108892Y413525D01*
X108779Y413519D01*
X108666Y413517D01*
X109316Y418710D02*
X111912Y421306D01*
X102824Y424661D02*
X100228Y427906D01*
X111912Y427906D01*
X111912Y424661D02*
X111912Y431152D01*
D13*
X59020Y212570D02*
X59020Y205070D01*
X66520Y205070D01*
X126520Y205070D02*
X134020Y205070D01*
X134020Y212570D01*
X134020Y272570D02*
X134020Y280070D01*
X126520Y280070D01*
X66520Y280070D02*
X59020Y280070D01*
X59020Y272570D01*
D14*
X53020Y277570D02*
X53022Y277633D01*
X53028Y277695D01*
X53038Y277757D01*
X53051Y277819D01*
X53069Y277879D01*
X53090Y277938D01*
X53115Y277996D01*
X53144Y278052D01*
X53176Y278106D01*
X53211Y278158D01*
X53249Y278207D01*
X53291Y278255D01*
X53335Y278299D01*
X53383Y278341D01*
X53432Y278379D01*
X53484Y278414D01*
X53538Y278446D01*
X53594Y278475D01*
X53652Y278500D01*
X53711Y278521D01*
X53771Y278539D01*
X53833Y278552D01*
X53895Y278562D01*
X53957Y278568D01*
X54020Y278570D01*
X54083Y278568D01*
X54145Y278562D01*
X54207Y278552D01*
X54269Y278539D01*
X54329Y278521D01*
X54388Y278500D01*
X54446Y278475D01*
X54502Y278446D01*
X54556Y278414D01*
X54608Y278379D01*
X54657Y278341D01*
X54705Y278299D01*
X54749Y278255D01*
X54791Y278207D01*
X54829Y278158D01*
X54864Y278106D01*
X54896Y278052D01*
X54925Y277996D01*
X54950Y277938D01*
X54971Y277879D01*
X54989Y277819D01*
X55002Y277757D01*
X55012Y277695D01*
X55018Y277633D01*
X55020Y277570D01*
X55018Y277507D01*
X55012Y277445D01*
X55002Y277383D01*
X54989Y277321D01*
X54971Y277261D01*
X54950Y277202D01*
X54925Y277144D01*
X54896Y277088D01*
X54864Y277034D01*
X54829Y276982D01*
X54791Y276933D01*
X54749Y276885D01*
X54705Y276841D01*
X54657Y276799D01*
X54608Y276761D01*
X54556Y276726D01*
X54502Y276694D01*
X54446Y276665D01*
X54388Y276640D01*
X54329Y276619D01*
X54269Y276601D01*
X54207Y276588D01*
X54145Y276578D01*
X54083Y276572D01*
X54020Y276570D01*
X53957Y276572D01*
X53895Y276578D01*
X53833Y276588D01*
X53771Y276601D01*
X53711Y276619D01*
X53652Y276640D01*
X53594Y276665D01*
X53538Y276694D01*
X53484Y276726D01*
X53432Y276761D01*
X53383Y276799D01*
X53335Y276841D01*
X53291Y276885D01*
X53249Y276933D01*
X53211Y276982D01*
X53176Y277034D01*
X53144Y277088D01*
X53115Y277144D01*
X53090Y277202D01*
X53069Y277261D01*
X53051Y277321D01*
X53038Y277383D01*
X53028Y277445D01*
X53022Y277507D01*
X53020Y277570D01*
D15*
X71901Y285517D02*
X71901Y292189D01*
X71901Y285517D02*
X71903Y285418D01*
X71909Y285318D01*
X71918Y285219D01*
X71932Y285121D01*
X71949Y285023D01*
X71970Y284925D01*
X71995Y284829D01*
X72024Y284734D01*
X72056Y284639D01*
X72092Y284547D01*
X72131Y284455D01*
X72174Y284365D01*
X72220Y284277D01*
X72270Y284191D01*
X72323Y284107D01*
X72379Y284025D01*
X72439Y283945D01*
X72501Y283868D01*
X72567Y283793D01*
X72635Y283720D01*
X72706Y283651D01*
X72780Y283584D01*
X72856Y283520D01*
X72935Y283459D01*
X73016Y283401D01*
X73099Y283346D01*
X73184Y283295D01*
X73271Y283247D01*
X73360Y283202D01*
X73451Y283161D01*
X73543Y283123D01*
X73636Y283089D01*
X73731Y283059D01*
X73827Y283032D01*
X73924Y283009D01*
X74021Y282990D01*
X74120Y282975D01*
X74219Y282963D01*
X74318Y282955D01*
X74417Y282951D01*
X74517Y282951D01*
X74616Y282955D01*
X74715Y282963D01*
X74814Y282975D01*
X74913Y282990D01*
X75010Y283009D01*
X75107Y283032D01*
X75203Y283059D01*
X75298Y283089D01*
X75391Y283123D01*
X75483Y283161D01*
X75574Y283202D01*
X75663Y283247D01*
X75750Y283295D01*
X75835Y283346D01*
X75918Y283401D01*
X75999Y283459D01*
X76078Y283520D01*
X76154Y283584D01*
X76228Y283651D01*
X76299Y283720D01*
X76367Y283793D01*
X76433Y283868D01*
X76495Y283945D01*
X76555Y284025D01*
X76611Y284107D01*
X76664Y284191D01*
X76714Y284277D01*
X76760Y284365D01*
X76803Y284455D01*
X76842Y284547D01*
X76878Y284639D01*
X76910Y284734D01*
X76939Y284829D01*
X76964Y284925D01*
X76985Y285023D01*
X77002Y285121D01*
X77016Y285219D01*
X77025Y285318D01*
X77031Y285418D01*
X77033Y285517D01*
X77033Y292189D01*
X83167Y292189D02*
X83167Y282951D01*
X83167Y287570D02*
X81884Y288340D01*
X81884Y288339D02*
X81819Y288381D01*
X81756Y288426D01*
X81695Y288473D01*
X81637Y288524D01*
X81581Y288578D01*
X81528Y288634D01*
X81478Y288693D01*
X81432Y288755D01*
X81388Y288818D01*
X81347Y288884D01*
X81310Y288952D01*
X81277Y289022D01*
X81246Y289093D01*
X81220Y289165D01*
X81197Y289239D01*
X81178Y289314D01*
X81163Y289390D01*
X81152Y289466D01*
X81144Y289543D01*
X81140Y289621D01*
X81141Y289698D01*
X81145Y289775D01*
X81153Y289852D01*
X81165Y289928D01*
X81180Y290004D01*
X81200Y290079D01*
X81223Y290152D01*
X81250Y290225D01*
X81281Y290296D01*
X81315Y290365D01*
X81353Y290433D01*
X81393Y290498D01*
X81438Y290562D01*
X81485Y290623D01*
X81535Y290682D01*
X81589Y290738D01*
X81645Y290791D01*
X81703Y290841D01*
X81764Y290889D01*
X81828Y290933D01*
X81893Y290974D01*
X81961Y291011D01*
X82030Y291046D01*
X82101Y291076D01*
X82173Y291103D01*
X82247Y291127D01*
X82322Y291146D01*
X82398Y291162D01*
X82397Y291162D02*
X82518Y291182D01*
X82639Y291198D01*
X82760Y291211D01*
X82882Y291221D01*
X83004Y291226D01*
X83126Y291228D01*
X83248Y291226D01*
X83370Y291221D01*
X83492Y291212D01*
X83614Y291199D01*
X83735Y291182D01*
X83855Y291162D01*
X83975Y291139D01*
X84094Y291112D01*
X84212Y291081D01*
X84330Y291046D01*
X84446Y291009D01*
X84561Y290967D01*
X84674Y290922D01*
X84787Y290874D01*
X84898Y290823D01*
X85007Y290768D01*
X85114Y290710D01*
X85220Y290649D01*
X83167Y287570D02*
X84450Y286800D01*
X84450Y286801D02*
X84515Y286759D01*
X84578Y286714D01*
X84639Y286667D01*
X84697Y286616D01*
X84753Y286562D01*
X84806Y286506D01*
X84856Y286447D01*
X84902Y286385D01*
X84946Y286322D01*
X84987Y286256D01*
X85024Y286188D01*
X85057Y286118D01*
X85088Y286047D01*
X85114Y285975D01*
X85137Y285901D01*
X85156Y285826D01*
X85171Y285750D01*
X85182Y285674D01*
X85190Y285597D01*
X85194Y285520D01*
X85193Y285442D01*
X85189Y285365D01*
X85181Y285288D01*
X85169Y285212D01*
X85154Y285136D01*
X85134Y285061D01*
X85111Y284988D01*
X85084Y284915D01*
X85053Y284844D01*
X85019Y284775D01*
X84981Y284707D01*
X84941Y284642D01*
X84896Y284578D01*
X84849Y284517D01*
X84799Y284459D01*
X84745Y284402D01*
X84689Y284349D01*
X84631Y284299D01*
X84570Y284251D01*
X84506Y284207D01*
X84441Y284166D01*
X84373Y284129D01*
X84304Y284094D01*
X84233Y284064D01*
X84161Y284037D01*
X84087Y284013D01*
X84012Y283994D01*
X83937Y283978D01*
X83937Y283977D02*
X83816Y283957D01*
X83695Y283941D01*
X83574Y283928D01*
X83452Y283918D01*
X83330Y283913D01*
X83208Y283911D01*
X83086Y283913D01*
X82964Y283918D01*
X82842Y283927D01*
X82720Y283940D01*
X82599Y283957D01*
X82479Y283977D01*
X82359Y284000D01*
X82240Y284027D01*
X82121Y284058D01*
X82004Y284093D01*
X81888Y284131D01*
X81773Y284172D01*
X81659Y284217D01*
X81547Y284265D01*
X81436Y284316D01*
X81327Y284371D01*
X81220Y284429D01*
X81114Y284490D01*
X91824Y292189D02*
X91917Y292187D01*
X92010Y292182D01*
X92102Y292172D01*
X92195Y292159D01*
X92286Y292142D01*
X92377Y292122D01*
X92467Y292098D01*
X92556Y292070D01*
X92643Y292039D01*
X92729Y292004D01*
X92814Y291966D01*
X92898Y291924D01*
X92979Y291880D01*
X93059Y291831D01*
X93136Y291780D01*
X93212Y291726D01*
X93285Y291668D01*
X93356Y291608D01*
X93424Y291545D01*
X93490Y291479D01*
X93553Y291411D01*
X93613Y291340D01*
X93671Y291267D01*
X93725Y291191D01*
X93776Y291114D01*
X93825Y291034D01*
X93869Y290953D01*
X93911Y290869D01*
X93949Y290784D01*
X93984Y290698D01*
X94015Y290611D01*
X94043Y290522D01*
X94067Y290432D01*
X94087Y290341D01*
X94104Y290250D01*
X94117Y290157D01*
X94127Y290065D01*
X94132Y289972D01*
X94134Y289879D01*
X91824Y292189D02*
X91717Y292187D01*
X91611Y292181D01*
X91505Y292172D01*
X91399Y292158D01*
X91294Y292141D01*
X91189Y292120D01*
X91086Y292096D01*
X90983Y292067D01*
X90881Y292035D01*
X90781Y292000D01*
X90682Y291960D01*
X90584Y291917D01*
X90488Y291871D01*
X90394Y291821D01*
X90301Y291768D01*
X90211Y291712D01*
X90122Y291652D01*
X90036Y291590D01*
X89952Y291524D01*
X89871Y291455D01*
X89792Y291384D01*
X89715Y291309D01*
X89642Y291232D01*
X89571Y291153D01*
X89503Y291070D01*
X89438Y290986D01*
X89376Y290899D01*
X89318Y290810D01*
X89262Y290719D01*
X89210Y290626D01*
X89161Y290531D01*
X89116Y290435D01*
X89074Y290336D01*
X89036Y290237D01*
X89001Y290136D01*
X93364Y288082D02*
X93432Y288150D01*
X93497Y288220D01*
X93560Y288292D01*
X93620Y288367D01*
X93677Y288444D01*
X93730Y288523D01*
X93781Y288604D01*
X93829Y288687D01*
X93873Y288771D01*
X93914Y288858D01*
X93952Y288946D01*
X93986Y289035D01*
X94017Y289126D01*
X94044Y289217D01*
X94068Y289310D01*
X94088Y289404D01*
X94105Y289498D01*
X94117Y289593D01*
X94127Y289688D01*
X94132Y289783D01*
X94134Y289879D01*
X93363Y288083D02*
X89001Y282951D01*
X94133Y282951D01*
D16*
X58618Y87884D02*
X178618Y87884D01*
X58618Y87884D02*
X58618Y100084D01*
X178618Y100084D02*
X178618Y87884D01*
X158618Y130084D02*
X78618Y130084D01*
D10*
X55211Y12328D02*
X51457Y12328D01*
X55211Y12327D02*
X55276Y12325D01*
X55340Y12319D01*
X55404Y12309D01*
X55468Y12296D01*
X55530Y12278D01*
X55591Y12257D01*
X55651Y12233D01*
X55709Y12204D01*
X55766Y12172D01*
X55820Y12137D01*
X55872Y12099D01*
X55922Y12057D01*
X55969Y12013D01*
X56013Y11966D01*
X56055Y11916D01*
X56093Y11864D01*
X56128Y11810D01*
X56160Y11753D01*
X56189Y11695D01*
X56213Y11635D01*
X56234Y11574D01*
X56252Y11512D01*
X56265Y11448D01*
X56275Y11384D01*
X56281Y11320D01*
X56283Y11255D01*
X56283Y10719D01*
X56283Y15276D02*
X56283Y16616D01*
X56281Y16687D01*
X56275Y16759D01*
X56266Y16829D01*
X56253Y16899D01*
X56236Y16969D01*
X56215Y17037D01*
X56191Y17104D01*
X56163Y17170D01*
X56132Y17234D01*
X56097Y17297D01*
X56059Y17357D01*
X56018Y17416D01*
X55974Y17472D01*
X55927Y17526D01*
X55878Y17577D01*
X55825Y17625D01*
X55770Y17671D01*
X55713Y17713D01*
X55653Y17753D01*
X55592Y17789D01*
X55528Y17822D01*
X55463Y17851D01*
X55397Y17877D01*
X55329Y17900D01*
X55260Y17919D01*
X55190Y17934D01*
X55120Y17945D01*
X55049Y17953D01*
X54978Y17957D01*
X54906Y17957D01*
X54835Y17953D01*
X54764Y17945D01*
X54694Y17934D01*
X54624Y17919D01*
X54555Y17900D01*
X54487Y17877D01*
X54421Y17851D01*
X54356Y17822D01*
X54292Y17789D01*
X54231Y17753D01*
X54171Y17713D01*
X54114Y17671D01*
X54059Y17625D01*
X54006Y17577D01*
X53957Y17526D01*
X53910Y17472D01*
X53866Y17416D01*
X53825Y17357D01*
X53787Y17297D01*
X53752Y17234D01*
X53721Y17170D01*
X53693Y17104D01*
X53669Y17037D01*
X53648Y16969D01*
X53631Y16899D01*
X53618Y16829D01*
X53609Y16759D01*
X53603Y16687D01*
X53601Y16616D01*
X51457Y16884D02*
X51457Y15276D01*
X51457Y16884D02*
X51459Y16949D01*
X51465Y17013D01*
X51475Y17077D01*
X51488Y17141D01*
X51506Y17203D01*
X51527Y17264D01*
X51551Y17324D01*
X51580Y17382D01*
X51612Y17439D01*
X51647Y17493D01*
X51685Y17545D01*
X51727Y17595D01*
X51771Y17642D01*
X51818Y17686D01*
X51868Y17728D01*
X51920Y17766D01*
X51974Y17801D01*
X52031Y17833D01*
X52089Y17862D01*
X52149Y17886D01*
X52210Y17907D01*
X52272Y17925D01*
X52336Y17938D01*
X52400Y17948D01*
X52464Y17954D01*
X52529Y17956D01*
X52594Y17954D01*
X52658Y17948D01*
X52722Y17938D01*
X52786Y17925D01*
X52848Y17907D01*
X52909Y17886D01*
X52969Y17862D01*
X53027Y17833D01*
X53084Y17801D01*
X53138Y17766D01*
X53190Y17728D01*
X53240Y17686D01*
X53287Y17642D01*
X53331Y17595D01*
X53373Y17545D01*
X53411Y17493D01*
X53446Y17439D01*
X53478Y17382D01*
X53507Y17324D01*
X53531Y17264D01*
X53552Y17203D01*
X53570Y17141D01*
X53583Y17077D01*
X53593Y17013D01*
X53599Y16949D01*
X53601Y16884D01*
X53602Y16884D02*
X53602Y15812D01*
X156591Y145605D02*
X161417Y145605D01*
X156591Y145605D02*
X156591Y146946D01*
X156593Y147017D01*
X156599Y147089D01*
X156608Y147159D01*
X156621Y147229D01*
X156638Y147299D01*
X156659Y147367D01*
X156683Y147434D01*
X156711Y147500D01*
X156742Y147564D01*
X156777Y147627D01*
X156815Y147687D01*
X156856Y147746D01*
X156900Y147802D01*
X156947Y147856D01*
X156996Y147907D01*
X157049Y147955D01*
X157104Y148001D01*
X157161Y148043D01*
X157221Y148083D01*
X157282Y148119D01*
X157346Y148152D01*
X157411Y148181D01*
X157477Y148207D01*
X157545Y148230D01*
X157614Y148249D01*
X157684Y148264D01*
X157754Y148275D01*
X157825Y148283D01*
X157896Y148287D01*
X157968Y148287D01*
X158039Y148283D01*
X158110Y148275D01*
X158180Y148264D01*
X158250Y148249D01*
X158319Y148230D01*
X158387Y148207D01*
X158453Y148181D01*
X158518Y148152D01*
X158582Y148119D01*
X158643Y148083D01*
X158703Y148043D01*
X158760Y148001D01*
X158815Y147955D01*
X158868Y147907D01*
X158917Y147856D01*
X158964Y147802D01*
X159008Y147746D01*
X159049Y147687D01*
X159087Y147627D01*
X159122Y147564D01*
X159153Y147500D01*
X159181Y147434D01*
X159205Y147367D01*
X159226Y147299D01*
X159243Y147229D01*
X159256Y147159D01*
X159265Y147089D01*
X159271Y147017D01*
X159273Y146946D01*
X159272Y146946D02*
X159272Y145605D01*
X159272Y147214D02*
X161417Y148286D01*
X160345Y151028D02*
X156591Y152100D01*
X160345Y151028D02*
X160345Y153709D01*
X161417Y152904D02*
X159272Y152904D01*
X161417Y156514D02*
X161417Y158123D01*
X161415Y158188D01*
X161409Y158252D01*
X161399Y158316D01*
X161386Y158380D01*
X161368Y158442D01*
X161347Y158503D01*
X161323Y158563D01*
X161294Y158621D01*
X161262Y158678D01*
X161227Y158732D01*
X161189Y158784D01*
X161147Y158834D01*
X161103Y158881D01*
X161056Y158925D01*
X161006Y158967D01*
X160954Y159005D01*
X160900Y159040D01*
X160843Y159072D01*
X160785Y159101D01*
X160725Y159125D01*
X160664Y159146D01*
X160602Y159164D01*
X160538Y159177D01*
X160474Y159187D01*
X160410Y159193D01*
X160345Y159195D01*
X159808Y159195D01*
X159743Y159193D01*
X159679Y159187D01*
X159615Y159177D01*
X159551Y159164D01*
X159489Y159146D01*
X159428Y159125D01*
X159368Y159101D01*
X159310Y159072D01*
X159253Y159040D01*
X159199Y159005D01*
X159147Y158967D01*
X159097Y158925D01*
X159050Y158881D01*
X159006Y158834D01*
X158964Y158784D01*
X158926Y158732D01*
X158891Y158678D01*
X158859Y158621D01*
X158830Y158563D01*
X158806Y158503D01*
X158785Y158442D01*
X158767Y158380D01*
X158754Y158316D01*
X158744Y158252D01*
X158738Y158188D01*
X158736Y158123D01*
X158736Y156514D01*
X156591Y156514D01*
X156591Y159195D01*
X80645Y145351D02*
X75819Y145351D01*
X75819Y146691D01*
X75821Y146762D01*
X75827Y146834D01*
X75836Y146904D01*
X75849Y146974D01*
X75866Y147044D01*
X75887Y147112D01*
X75911Y147179D01*
X75939Y147245D01*
X75970Y147309D01*
X76005Y147372D01*
X76043Y147432D01*
X76084Y147491D01*
X76128Y147547D01*
X76175Y147601D01*
X76224Y147652D01*
X76277Y147700D01*
X76332Y147746D01*
X76389Y147788D01*
X76449Y147828D01*
X76510Y147864D01*
X76574Y147897D01*
X76639Y147926D01*
X76705Y147952D01*
X76773Y147975D01*
X76842Y147994D01*
X76912Y148009D01*
X76982Y148020D01*
X77053Y148028D01*
X77124Y148032D01*
X77196Y148032D01*
X77267Y148028D01*
X77338Y148020D01*
X77408Y148009D01*
X77478Y147994D01*
X77547Y147975D01*
X77615Y147952D01*
X77681Y147926D01*
X77746Y147897D01*
X77810Y147864D01*
X77871Y147828D01*
X77931Y147788D01*
X77988Y147746D01*
X78043Y147700D01*
X78096Y147652D01*
X78145Y147601D01*
X78192Y147547D01*
X78236Y147491D01*
X78277Y147432D01*
X78315Y147372D01*
X78350Y147309D01*
X78381Y147245D01*
X78409Y147179D01*
X78433Y147112D01*
X78454Y147044D01*
X78471Y146974D01*
X78484Y146904D01*
X78493Y146834D01*
X78499Y146762D01*
X78501Y146691D01*
X78500Y146691D02*
X78500Y145351D01*
X78500Y146960D02*
X80645Y148032D01*
X79573Y150774D02*
X75819Y151846D01*
X79573Y150774D02*
X79573Y153455D01*
X80645Y152650D02*
X78500Y152650D01*
X77964Y156260D02*
X77964Y157869D01*
X77966Y157934D01*
X77972Y157998D01*
X77982Y158062D01*
X77995Y158126D01*
X78013Y158188D01*
X78034Y158249D01*
X78058Y158309D01*
X78087Y158367D01*
X78119Y158424D01*
X78154Y158478D01*
X78192Y158530D01*
X78234Y158580D01*
X78278Y158627D01*
X78325Y158671D01*
X78375Y158713D01*
X78427Y158751D01*
X78481Y158786D01*
X78538Y158818D01*
X78596Y158847D01*
X78656Y158871D01*
X78717Y158892D01*
X78779Y158910D01*
X78843Y158923D01*
X78907Y158933D01*
X78971Y158939D01*
X79036Y158941D01*
X79304Y158941D01*
X79375Y158939D01*
X79447Y158933D01*
X79517Y158924D01*
X79587Y158911D01*
X79657Y158894D01*
X79725Y158873D01*
X79792Y158849D01*
X79858Y158821D01*
X79922Y158790D01*
X79985Y158755D01*
X80045Y158717D01*
X80104Y158676D01*
X80160Y158632D01*
X80214Y158585D01*
X80265Y158536D01*
X80313Y158483D01*
X80359Y158428D01*
X80401Y158371D01*
X80441Y158311D01*
X80477Y158250D01*
X80510Y158186D01*
X80539Y158121D01*
X80565Y158055D01*
X80588Y157987D01*
X80607Y157918D01*
X80622Y157848D01*
X80633Y157778D01*
X80641Y157707D01*
X80645Y157636D01*
X80645Y157564D01*
X80641Y157493D01*
X80633Y157422D01*
X80622Y157352D01*
X80607Y157282D01*
X80588Y157213D01*
X80565Y157145D01*
X80539Y157079D01*
X80510Y157014D01*
X80477Y156950D01*
X80441Y156889D01*
X80401Y156829D01*
X80359Y156772D01*
X80313Y156717D01*
X80265Y156664D01*
X80214Y156615D01*
X80160Y156568D01*
X80104Y156524D01*
X80045Y156483D01*
X79985Y156445D01*
X79922Y156410D01*
X79858Y156379D01*
X79792Y156351D01*
X79725Y156327D01*
X79657Y156306D01*
X79587Y156289D01*
X79517Y156276D01*
X79447Y156267D01*
X79375Y156261D01*
X79304Y156259D01*
X79304Y156260D02*
X77964Y156260D01*
X77873Y156262D01*
X77782Y156268D01*
X77692Y156277D01*
X77601Y156291D01*
X77512Y156308D01*
X77424Y156329D01*
X77336Y156354D01*
X77249Y156383D01*
X77164Y156415D01*
X77080Y156450D01*
X76998Y156490D01*
X76918Y156532D01*
X76839Y156578D01*
X76763Y156628D01*
X76689Y156680D01*
X76616Y156736D01*
X76547Y156795D01*
X76480Y156856D01*
X76415Y156921D01*
X76354Y156988D01*
X76295Y157057D01*
X76239Y157129D01*
X76187Y157204D01*
X76137Y157280D01*
X76091Y157359D01*
X76049Y157439D01*
X76009Y157521D01*
X75974Y157605D01*
X75942Y157690D01*
X75913Y157777D01*
X75888Y157864D01*
X75867Y157953D01*
X75850Y158042D01*
X75836Y158132D01*
X75827Y158223D01*
X75821Y158314D01*
X75819Y158405D01*
X206778Y196755D02*
X207851Y196755D01*
X206778Y196755D02*
X206713Y196757D01*
X206649Y196763D01*
X206585Y196773D01*
X206521Y196786D01*
X206459Y196804D01*
X206398Y196825D01*
X206338Y196849D01*
X206280Y196878D01*
X206223Y196910D01*
X206169Y196945D01*
X206117Y196983D01*
X206067Y197025D01*
X206020Y197069D01*
X205976Y197116D01*
X205934Y197166D01*
X205896Y197218D01*
X205861Y197272D01*
X205829Y197329D01*
X205800Y197387D01*
X205776Y197447D01*
X205755Y197508D01*
X205737Y197570D01*
X205724Y197634D01*
X205714Y197698D01*
X205708Y197762D01*
X205706Y197827D01*
X205706Y200509D01*
X205708Y200574D01*
X205714Y200638D01*
X205724Y200702D01*
X205737Y200766D01*
X205755Y200828D01*
X205776Y200889D01*
X205800Y200949D01*
X205829Y201007D01*
X205861Y201064D01*
X205896Y201118D01*
X205934Y201170D01*
X205976Y201220D01*
X206020Y201267D01*
X206067Y201311D01*
X206117Y201353D01*
X206169Y201391D01*
X206223Y201426D01*
X206280Y201458D01*
X206338Y201487D01*
X206398Y201511D01*
X206459Y201532D01*
X206521Y201550D01*
X206585Y201563D01*
X206649Y201573D01*
X206713Y201579D01*
X206778Y201581D01*
X207851Y201581D01*
X210307Y200509D02*
X211647Y201581D01*
X211647Y196755D01*
X210307Y196755D02*
X212988Y196755D01*
X215793Y199168D02*
X215795Y199288D01*
X215800Y199408D01*
X215809Y199528D01*
X215822Y199648D01*
X215838Y199767D01*
X215858Y199886D01*
X215882Y200004D01*
X215909Y200121D01*
X215939Y200237D01*
X215973Y200352D01*
X216011Y200467D01*
X216052Y200580D01*
X216096Y200691D01*
X216144Y200802D01*
X216195Y200911D01*
X216196Y200911D02*
X216217Y200968D01*
X216243Y201024D01*
X216271Y201079D01*
X216303Y201131D01*
X216339Y201182D01*
X216377Y201230D01*
X216418Y201276D01*
X216462Y201319D01*
X216508Y201359D01*
X216557Y201396D01*
X216609Y201430D01*
X216662Y201461D01*
X216717Y201489D01*
X216773Y201513D01*
X216831Y201534D01*
X216890Y201551D01*
X216950Y201564D01*
X217011Y201573D01*
X217073Y201579D01*
X217134Y201581D01*
X217195Y201579D01*
X217257Y201573D01*
X217318Y201564D01*
X217378Y201551D01*
X217437Y201534D01*
X217495Y201513D01*
X217551Y201489D01*
X217606Y201461D01*
X217659Y201430D01*
X217711Y201396D01*
X217760Y201359D01*
X217806Y201319D01*
X217850Y201276D01*
X217891Y201230D01*
X217929Y201182D01*
X217965Y201131D01*
X217997Y201079D01*
X218025Y201024D01*
X218051Y200968D01*
X218072Y200911D01*
X218123Y200802D01*
X218171Y200691D01*
X218215Y200580D01*
X218256Y200467D01*
X218294Y200352D01*
X218328Y200237D01*
X218358Y200121D01*
X218385Y200004D01*
X218409Y199886D01*
X218429Y199767D01*
X218445Y199648D01*
X218458Y199528D01*
X218467Y199408D01*
X218472Y199288D01*
X218474Y199168D01*
X215793Y199168D02*
X215795Y199048D01*
X215800Y198928D01*
X215809Y198808D01*
X215822Y198688D01*
X215838Y198569D01*
X215858Y198450D01*
X215882Y198332D01*
X215909Y198215D01*
X215939Y198099D01*
X215973Y197984D01*
X216011Y197869D01*
X216052Y197756D01*
X216096Y197645D01*
X216144Y197534D01*
X216195Y197425D01*
X216196Y197425D02*
X216217Y197368D01*
X216243Y197312D01*
X216271Y197257D01*
X216303Y197205D01*
X216339Y197154D01*
X216377Y197106D01*
X216418Y197060D01*
X216462Y197017D01*
X216508Y196977D01*
X216557Y196940D01*
X216609Y196906D01*
X216662Y196875D01*
X216717Y196847D01*
X216773Y196823D01*
X216831Y196802D01*
X216890Y196785D01*
X216950Y196772D01*
X217011Y196763D01*
X217073Y196757D01*
X217134Y196755D01*
X218072Y197425D02*
X218123Y197534D01*
X218171Y197645D01*
X218215Y197756D01*
X218256Y197869D01*
X218294Y197984D01*
X218328Y198099D01*
X218358Y198215D01*
X218385Y198332D01*
X218409Y198450D01*
X218429Y198569D01*
X218445Y198688D01*
X218458Y198808D01*
X218467Y198928D01*
X218472Y199048D01*
X218474Y199168D01*
X218072Y197425D02*
X218051Y197368D01*
X218025Y197312D01*
X217997Y197257D01*
X217965Y197205D01*
X217929Y197154D01*
X217891Y197106D01*
X217850Y197060D01*
X217806Y197017D01*
X217759Y196977D01*
X217711Y196940D01*
X217659Y196906D01*
X217606Y196875D01*
X217551Y196847D01*
X217495Y196823D01*
X217437Y196802D01*
X217378Y196785D01*
X217318Y196772D01*
X217257Y196763D01*
X217195Y196757D01*
X217134Y196755D01*
X216061Y197827D02*
X218206Y200509D01*
X206581Y233585D02*
X205508Y233585D01*
X205443Y233587D01*
X205379Y233593D01*
X205315Y233603D01*
X205251Y233616D01*
X205189Y233634D01*
X205128Y233655D01*
X205068Y233679D01*
X205010Y233708D01*
X204953Y233740D01*
X204899Y233775D01*
X204847Y233813D01*
X204797Y233855D01*
X204750Y233899D01*
X204706Y233946D01*
X204664Y233996D01*
X204626Y234048D01*
X204591Y234102D01*
X204559Y234159D01*
X204530Y234217D01*
X204506Y234277D01*
X204485Y234338D01*
X204467Y234400D01*
X204454Y234464D01*
X204444Y234528D01*
X204438Y234592D01*
X204436Y234657D01*
X204436Y237339D01*
X204438Y237404D01*
X204444Y237468D01*
X204454Y237532D01*
X204467Y237596D01*
X204485Y237658D01*
X204506Y237719D01*
X204530Y237779D01*
X204559Y237837D01*
X204591Y237894D01*
X204626Y237948D01*
X204664Y238000D01*
X204706Y238050D01*
X204750Y238097D01*
X204797Y238141D01*
X204847Y238183D01*
X204899Y238221D01*
X204953Y238256D01*
X205010Y238288D01*
X205068Y238317D01*
X205128Y238341D01*
X205189Y238362D01*
X205251Y238380D01*
X205315Y238393D01*
X205379Y238403D01*
X205443Y238409D01*
X205508Y238411D01*
X206581Y238411D01*
X210511Y238411D02*
X210579Y238409D01*
X210646Y238403D01*
X210713Y238394D01*
X210780Y238381D01*
X210845Y238364D01*
X210910Y238343D01*
X210973Y238319D01*
X211035Y238291D01*
X211095Y238260D01*
X211153Y238226D01*
X211209Y238188D01*
X211264Y238148D01*
X211315Y238104D01*
X211364Y238057D01*
X211411Y238008D01*
X211455Y237957D01*
X211495Y237902D01*
X211533Y237846D01*
X211567Y237788D01*
X211598Y237728D01*
X211626Y237666D01*
X211650Y237603D01*
X211671Y237538D01*
X211688Y237473D01*
X211701Y237406D01*
X211710Y237339D01*
X211716Y237272D01*
X211718Y237204D01*
X210511Y238411D02*
X210433Y238409D01*
X210355Y238403D01*
X210278Y238393D01*
X210201Y238380D01*
X210125Y238362D01*
X210050Y238341D01*
X209976Y238316D01*
X209904Y238287D01*
X209833Y238255D01*
X209764Y238219D01*
X209696Y238180D01*
X209631Y238137D01*
X209568Y238091D01*
X209507Y238042D01*
X209449Y237990D01*
X209394Y237935D01*
X209341Y237878D01*
X209292Y237818D01*
X209245Y237755D01*
X209202Y237691D01*
X209162Y237624D01*
X209125Y237555D01*
X209092Y237484D01*
X209062Y237412D01*
X209036Y237339D01*
X211316Y236266D02*
X211365Y236315D01*
X211412Y236367D01*
X211455Y236422D01*
X211496Y236479D01*
X211534Y236538D01*
X211568Y236599D01*
X211599Y236662D01*
X211627Y236726D01*
X211651Y236792D01*
X211671Y236858D01*
X211688Y236926D01*
X211701Y236995D01*
X211710Y237064D01*
X211716Y237134D01*
X211718Y237204D01*
X211316Y236266D02*
X209037Y233585D01*
X211718Y233585D01*
X214523Y237875D02*
X214523Y238411D01*
X217204Y238411D01*
X215864Y233585D01*
X194945Y204663D02*
X190119Y204663D01*
X194945Y204663D02*
X194945Y206808D01*
X191191Y209216D02*
X190119Y210556D01*
X194945Y210556D01*
X194945Y209216D02*
X194945Y211897D01*
X202820Y257320D02*
X202820Y265920D01*
X218820Y265920D02*
X218820Y257320D01*
D17*
X214876Y235860D02*
X214878Y235923D01*
X214884Y235985D01*
X214894Y236047D01*
X214907Y236109D01*
X214925Y236169D01*
X214946Y236228D01*
X214971Y236286D01*
X215000Y236342D01*
X215032Y236396D01*
X215067Y236448D01*
X215105Y236497D01*
X215147Y236545D01*
X215191Y236589D01*
X215239Y236631D01*
X215288Y236669D01*
X215340Y236704D01*
X215394Y236736D01*
X215450Y236765D01*
X215508Y236790D01*
X215567Y236811D01*
X215627Y236829D01*
X215689Y236842D01*
X215751Y236852D01*
X215813Y236858D01*
X215876Y236860D01*
X215939Y236858D01*
X216001Y236852D01*
X216063Y236842D01*
X216125Y236829D01*
X216185Y236811D01*
X216244Y236790D01*
X216302Y236765D01*
X216358Y236736D01*
X216412Y236704D01*
X216464Y236669D01*
X216513Y236631D01*
X216561Y236589D01*
X216605Y236545D01*
X216647Y236497D01*
X216685Y236448D01*
X216720Y236396D01*
X216752Y236342D01*
X216781Y236286D01*
X216806Y236228D01*
X216827Y236169D01*
X216845Y236109D01*
X216858Y236047D01*
X216868Y235985D01*
X216874Y235923D01*
X216876Y235860D01*
X216874Y235797D01*
X216868Y235735D01*
X216858Y235673D01*
X216845Y235611D01*
X216827Y235551D01*
X216806Y235492D01*
X216781Y235434D01*
X216752Y235378D01*
X216720Y235324D01*
X216685Y235272D01*
X216647Y235223D01*
X216605Y235175D01*
X216561Y235131D01*
X216513Y235089D01*
X216464Y235051D01*
X216412Y235016D01*
X216358Y234984D01*
X216302Y234955D01*
X216244Y234930D01*
X216185Y234909D01*
X216125Y234891D01*
X216063Y234878D01*
X216001Y234868D01*
X215939Y234862D01*
X215876Y234860D01*
X215813Y234862D01*
X215751Y234868D01*
X215689Y234878D01*
X215627Y234891D01*
X215567Y234909D01*
X215508Y234930D01*
X215450Y234955D01*
X215394Y234984D01*
X215340Y235016D01*
X215288Y235051D01*
X215239Y235089D01*
X215191Y235131D01*
X215147Y235175D01*
X215105Y235223D01*
X215067Y235272D01*
X215032Y235324D01*
X215000Y235378D01*
X214971Y235434D01*
X214946Y235492D01*
X214925Y235551D01*
X214907Y235611D01*
X214894Y235673D01*
X214884Y235735D01*
X214878Y235797D01*
X214876Y235860D01*
D12*
X195312Y237128D02*
X195312Y242321D01*
X195312Y237128D02*
X183628Y237128D01*
X183628Y242321D01*
X188821Y241023D02*
X188821Y237128D01*
X186224Y246630D02*
X183628Y249876D01*
X195312Y249876D01*
X195312Y246630D02*
X195312Y253122D01*
M02*
