G04 EAGLE Gerber X2 export*
G75*
%MOMM*%
%FSLAX34Y34*%
%LPD*%
%AMOC8*
5,1,8,0,0,1.08239X$1,22.5*%
G01*
%ADD10R,0.600000X0.600000*%
%ADD11R,0.800000X0.400000*%
%ADD12R,0.200000X0.700000*%
%ADD13R,1.200000X1.000000*%
%ADD14R,0.900000X0.850000*%
%ADD15R,0.900000X0.800000*%
%ADD16R,0.550000X1.200000*%


D10*
X123444Y244776D03*
X123444Y234776D03*
X77724Y245538D03*
X77724Y235538D03*
X132160Y190500D03*
X142160Y190500D03*
X120570Y152400D03*
X110570Y152400D03*
D11*
X142590Y320500D03*
X142590Y314500D03*
X154590Y320500D03*
X154590Y314500D03*
D12*
X136590Y332250D03*
X140590Y332250D03*
X144590Y332250D03*
X148590Y332250D03*
X152590Y332250D03*
X156590Y332250D03*
X160590Y332250D03*
X136590Y302750D03*
X140590Y302750D03*
X144590Y302750D03*
X148590Y302750D03*
X152590Y302750D03*
X156590Y302750D03*
X160590Y302750D03*
D13*
X91830Y247800D03*
X108830Y247800D03*
X108830Y234800D03*
X91830Y234800D03*
D10*
X157400Y351790D03*
X147400Y351790D03*
D14*
X172720Y273600D03*
X172720Y285200D03*
D10*
X144860Y287020D03*
X154860Y287020D03*
X124380Y306070D03*
X114380Y306070D03*
X134620Y276940D03*
X134620Y286940D03*
X124460Y285830D03*
X124460Y295830D03*
D15*
X53500Y308000D03*
X53500Y327000D03*
X74500Y317500D03*
D10*
X43180Y312500D03*
X43180Y322500D03*
X64850Y294640D03*
X74850Y294640D03*
X111840Y332740D03*
X121840Y332740D03*
D16*
X123800Y164799D03*
X114300Y164799D03*
X104800Y164799D03*
X104800Y190801D03*
X123800Y190801D03*
M02*
